<?xml version="1.0" standalone="no"?>
<!DOCTYPE svg PUBLIC "-//W3C//DTD SVG 1.1//EN" "http://www.w3.org/Graphics/SVG/1.1/DTD/svg11.dtd" >
<svg xmlns="http://www.w3.org/2000/svg" xmlns:xlink="http://www.w3.org/1999/xlink" version="1.1">
<metadata>
Created by FontForge 20170731 at Mon Jul 25 03:02:23 2005
 By Aleksey,,,
Copyright (c) 1991 Adobe Systems Incorporated.  All Rights Reserved.Formata is a trademark of H. Berthold AG.
</metadata>
<defs>
<font id="Formata-Regular" horiz-adv-x="583" >
  <font-face 
    font-family="Formata"
    font-weight="400"
    font-stretch="normal"
    units-per-em="1000"
    panose-1="2 0 5 3 6 0 0 2 0 4"
    ascent="800"
    descent="-200"
    x-height="522"
    cap-height="709"
    bbox="-115 -250 1285 960"
    underline-thickness="50"
    underline-position="-175"
    unicode-range="U+0020-FB02"
  />
<missing-glyph horiz-adv-x="292" 
 />
    <glyph glyph-name=".notdef" horiz-adv-x="292" 
 />
    <glyph glyph-name=".null" horiz-adv-x="0" 
 />
    <glyph glyph-name="nonmarkingreturn" horiz-adv-x="292" 
 />
    <glyph glyph-name="space" unicode=" " horiz-adv-x="292" 
 />
    <glyph glyph-name="space" unicode="&#xa0;" horiz-adv-x="292" 
 />
    <glyph glyph-name="exclam" unicode="!" horiz-adv-x="271" 
d="M205 225q0 39 1 86t3.5 97.5l5 101t5.5 97t5.5 86.5t5.5 68l-6 7q-22 -1 -36.5 -1.5t-26.5 -0.5h-25h-31l-6 -7q3 -41 5 -90.5t3.5 -101.5t3 -103.5t2 -97.5t0.5 -84v-60l6 -8q14 1 23 1.5t17 1t17 1t23 0.5zM215 122q-17 -1 -28.5 -1.5l-23 -1t-24.5 -1t-32 -0.5l-8 -9
q1 -13 1 -26v-25v-27t-1 -26l7 -8q21 1 34 1.5t23.5 1t22 1t31.5 1.5l7 9q0 15 -0.5 26.5t-0.5 22.5v23v31z" />
    <glyph glyph-name="quotedbl" unicode="&#x22;" horiz-adv-x="396" 
d="M343 690q1 10 0.5 19t-5.5 17q-4 7 -14.5 15t-29.5 8q-18 0 -36 -11.5t-18 -40.5v-10q0 -4 1 -9l39 -244h23zM156 690q0 10 -0.5 19t-5.5 17q-4 7 -14.5 15t-28.5 8t-36.5 -11.5t-18.5 -40.5q0 -5 0.5 -9.5t0.5 -9.5l39 -244h23z" />
    <glyph glyph-name="numbersign" unicode="#" horiz-adv-x="667" 
d="M450 229h150v77h-139l16 108h148v77h-138l30 214h-78l-32 -214h-110l31 214h-80l-31 -214h-152v-77h142l-16 -108h-149v-77h139l-35 -229h81l33 229h111l-33 -229h79zM270 306l16 108h111l-15 -108h-112z" />
    <glyph glyph-name="dollar" unicode="$" horiz-adv-x="479" 
d="M164 -86q3 14 4.5 23.5t3.5 18t3.5 16.5t4.5 20q24 -3 52 -3q57 0 99 17t69.5 44.5t41 61.5t13.5 68q0 36 -11.5 63t-27.5 46.5t-32.5 32t-26.5 18.5q-5 3 -14 8.5t-20 11.5t-22.5 12.5t-21.5 12.5l54 221q14 -4 25 -8t21 -9t20 -12t24 -17l8 2q3 14 4.5 22.5t3.5 16
t3.5 15t4.5 19.5l-4 8q-15 8 -26.5 13.5t-22 9t-21 6.5t-23.5 6q3 13 5.5 22t4.5 18t5 18.5t8 23.5l-4 6h-53l-7 -4q-4 -21 -6.5 -34.5l-7.5 -40.5q-10 1 -16 1.5t-17 0.5q-54 0 -91 -11t-62 -29q-17 -12 -30.5 -27.5t-21.5 -33.5q-15 -33 -15 -70q0 -39 13 -67.5t34.5 -51
t48.5 -40t55 -33.5l13 -8l-59 -241q-17 4 -30 8.5t-24 10t-21 12t-22 15.5l-7 -3q-5 -21 -8.5 -36t-10.5 -40l4 -8q23 -13 43.5 -21t55.5 -16q-3 -14 -5.5 -23t-4.5 -17.5t-5 -18.5t-8 -25l5 -6h14h11q6 0 11.5 -0.5t13.5 -0.5zM254 291q21 -12 40 -23.5t33 -25t22 -30.5
t8 -39q0 -45 -35 -76t-98 -31h-10t-14 1zM229 414q-18 12 -34.5 23.5t-28.5 24.5t-19.5 28.5t-7.5 36.5q0 41 33 65t82 24q7 0 13 -0.5t13 -0.5z" />
    <glyph glyph-name="percent" unicode="%" horiz-adv-x="917" 
d="M889 222q0 10 -1 30.5t-5.5 45.5t-14.5 52t-28.5 48.5t-47 35.5t-70.5 14q-49 0 -87.5 -23t-60.5 -70q-16 -33 -20.5 -69.5t-4.5 -65.5q0 -12 1 -33t5.5 -46.5t14.5 -51.5t28.5 -47.5t47.5 -35t71 -13.5t71 13t48 34t30 47t16 51.5t6 47.5t1 36zM811 223q0 -32 -4.5 -66
t-15.5 -58q-8 -17 -23.5 -32t-47.5 -15q-50 0 -71 45.5t-21 119.5q0 24 3 54t12.5 56.5t28 44.5t49.5 18q30 0 47.5 -16t27 -40.5t12.5 -54t3 -56.5zM368 457q0 10 -1 30.5t-5.5 46t-14.5 52t-28.5 48.5t-47 36t-70.5 14q-49 0 -87.5 -23t-60.5 -70q-16 -33 -20.5 -70
t-4.5 -66q0 -12 1 -33t5.5 -46t14.5 -51t28.5 -47.5t47.5 -35t71 -13.5q63 0 98 28t51.5 66t19.5 76t3 58zM290 458q0 -84 -21.5 -127t-69.5 -43q-25 0 -42.5 12t-28.5 33.5t-16 51.5t-5 67q0 24 3 54t12.5 57t28 45t49.5 18q30 0 47.5 -15.5t27 -40t12.5 -54.5t3 -58z
M359 5q49 125 98.5 248t103.5 246q4 10 15 35t23 52.5t23 52t15 33.5l-4 5h-67l-6 -5q-17 -44 -39.5 -101t-43.5 -108.5t-37 -88.5t-18 -42q-35 -82 -70 -163.5t-72 -162.5l4 -5q12 0 19 -0.5t14 -0.5h15h21z" />
    <glyph glyph-name="ampersand" unicode="&#x26;" horiz-adv-x="604" 
d="M598 8q-13 12 -30 31t-33.5 38t-30 36t-20.5 26q13 16 35 46t44 78l-1 9q-10 11 -16 18t-11.5 14t-11.5 15l-15 20l-7 -1q-12 -34 -29 -69.5t-38 -64.5l-122 153q17 11 40 27t44 38.5t35.5 51.5t14.5 66q0 30 -11 57t-32 47.5t-51.5 32.5t-69.5 12q-41 0 -73 -13.5
t-54 -35.5t-33.5 -50.5t-11.5 -58.5q0 -28 7.5 -52.5t19 -45.5t24 -38.5t23.5 -30.5q-28 -18 -54.5 -36t-47 -41t-33 -51.5t-12.5 -67.5q0 -33 12 -65t35.5 -57t59 -40t82.5 -15q37 0 67 8.5t54 20.5t41.5 25.5t28.5 22.5q8 -11 14 -19t10.5 -15.5t9.5 -14.5t11 -17l8 -5
q4 0 15.5 0.5t25 1t25.5 1t17 0.5q11 0 21 -0.5t20 -0.5zM266 418q-21 24 -33 43t-18.5 33.5t-8.5 26t-2 20.5q0 36 22.5 56.5t53.5 20.5q33 0 55.5 -22t22.5 -57q0 -22 -8.5 -39.5t-21.5 -32t-29.5 -26.5t-32.5 -23zM371 128q-39 -35 -73.5 -45t-54.5 -10q-47 0 -76 29
t-29 71t27 72t68 58z" />
    <glyph glyph-name="quotesingle" unicode="'" horiz-adv-x="208" 
d="M156 690q0 10 -0.5 19t-5.5 17q-4 7 -14.5 15t-28.5 8t-36.5 -11.5t-18.5 -40.5q0 -5 0.5 -9.5t0.5 -9.5l39 -244h23z" />
    <glyph glyph-name="parenleft" unicode="(" horiz-adv-x="396" 
d="M396 -207q-57 55 -96.5 115.5t-63.5 122t-34.5 121.5t-10.5 115q0 84 19.5 157.5t50.5 135.5t68.5 111.5t73.5 84.5l-3 9q-15 0 -24 -0.5t-16 -0.5h-14h-17l-9 -3q-41 -41 -83.5 -91t-77 -110.5t-56.5 -132t-22 -156.5q0 -59 11 -111t29 -97.5t41 -85t47 -72.5
q34 -48 60 -74.5t46 -45.5l8 -3q10 1 19 1.5t19 0.5q8 1 16 1h16z" />
    <glyph glyph-name="parenright" unicode=")" horiz-adv-x="396" 
d="M0 754q57 -56 96.5 -116.5t63.5 -122t34.5 -121.5t10.5 -114q0 -86 -20.5 -161t-52 -137t-68.5 -110t-71 -81l3 -9q15 0 24 0.5t16 0.5h13h18l9 4q42 42 84.5 92t77 110t56 131.5t21.5 155.5q0 59 -11 111t-29 97.5t-40.5 85t-46.5 72.5q-35 48 -61 74.5t-46 45.5l-8 3
q-10 -1 -19 -1t-19 -1q-8 -1 -16 -1h-16z" />
    <glyph glyph-name="asterisk" unicode="*" horiz-adv-x="437" 
d="M407 505q-21 9 -35.5 15t-27.5 11.5t-28.5 12t-39.5 17.5q23 12 38 19.5l28 14t27.5 13t36.5 17.5l3 9q-13 21 -20 33.5t-16 29.5l-9 1q-18 -15 -31 -25t-25 -19l-26 -19.5t-36 -26.5q2 25 4 42.5t3.5 33t4 33t5.5 43.5l-5 7q-13 -1 -22 -1.5t-17 -0.5h-17h-21l-6 -7
q4 -27 6.5 -44.5t4.5 -33t3.5 -32t4.5 -40.5q-22 16 -35.5 25.5t-25 18.5t-25 19t-35.5 26l-8 -1q-6 -12 -10.5 -19.5t-8.5 -14t-8 -13.5t-10 -16l2 -8q27 -11 43 -18t29.5 -12.5t29 -12.5t40.5 -18q-21 -9 -36.5 -16t-30.5 -13.5t-33 -14t-43 -17.5l-2 -9q11 -17 18 -29
t21 -34h8q21 16 34.5 26t25.5 19t26.5 19t36.5 26q-3 -23 -5.5 -39l-5 -32t-5.5 -34.5t-7 -44.5l6 -7q13 0 23 0.5t18 0.5q9 0 17.5 -0.5t20.5 -0.5l6 8q-4 24 -6.5 41.5t-4.5 33t-4 33t-5 43.5q18 -13 30.5 -23t25 -19.5t27 -21t35.5 -28.5h10q7 12 11 19.5t8 14t8 14
t10 18.5z" />
    <glyph glyph-name="plus" unicode="+" horiz-adv-x="667" 
d="M372 251h251v80h-251v249h-80v-249h-249v-80h249v-251h80v251z" />
    <glyph glyph-name="comma" unicode="," horiz-adv-x="229" 
d="M186 119q-20 -1 -33.5 -1.5t-25 -1t-23.5 -1t-30 -0.5l-6 -7q-5 -31 -9.5 -58.5t-11 -56t-14.5 -62t-18 -76.5l4 -6q13 1 21.5 1.5t14.5 0.5h15h20l7 7q7 21 17.5 52t23 65.5t26 69.5t26.5 66z" />
    <glyph glyph-name="hyphen" unicode="-" horiz-adv-x="333" 
d="M299 326q-13 -1 -22.5 -1.5t-19.5 -1t-22 -0.5h-29q-41 0 -82 0.5t-82 1.5l-7 -7q0 -12 -0.5 -20.5t-1.5 -16t-2 -15.5t-2 -19l6 -8q40 1 78.5 1.5t78.5 0.5q37 0 58 -0.5t42 -1.5l6 6q1 12 1.5 20.5t1 16.5t1.5 16.5t2 21.5z" />
    <glyph glyph-name="period" unicode="." horiz-adv-x="229" 
d="M168 122q-17 -1 -28.5 -1.5t-22.5 -1t-24 -1t-33 -0.5l-8 -9q1 -13 1 -26v-25v-27t-1 -26l7 -8q21 1 34 1.5t23.5 1t22 1t31.5 1.5l7 9q0 15 -0.5 26.5t-0.5 22.5t0.5 23.5t0.5 30.5z" />
    <glyph glyph-name="slash" unicode="/" horiz-adv-x="458" 
d="M92 -134q65 167 132 331t139 329q4 9 12 27.5t18 41t21 48t21 48l18 40.5t11 26l-6 8h-16t-28 -0.5t-28 -0.5h-13l-8 -6q-14 -38 -32 -84.5t-38 -95.5t-39.5 -96t-35 -85t-26.5 -64t-13 -31q-1 -2 -12.5 -28.5t-28.5 -66t-37.5 -86.5t-39.5 -90.5t-34.5 -78.5t-21.5 -49
q-4 -9 -7.5 -18t-8.5 -18l4 -7h26q11 0 20 -0.5t18.5 -1t24.5 -0.5z" />
    <glyph glyph-name="zero" unicode="0" 
d="M110 64q23 -27 48.5 -42t49.5 -22.5t45 -9t35 -1.5q20 0 42.5 2.5t46 10t47 22.5t45.5 39q11 12 24.5 32.5t25 52.5t19.5 79t8 112q0 36 -4.5 86t-21.5 98.5t-51 89.5t-92 61q-38 13 -81 13q-33 0 -65 -7.5t-61 -24.5t-53.5 -43.5t-42.5 -65.5q-23 -49 -30 -104t-7 -106
q0 -56 5.5 -98.5t15.5 -75t23.5 -56.5t28.5 -42zM391 562q20 -27 29 -64.5t13 -77.5q2 -20 3 -39.5t1 -39.5q0 -24 -1.5 -50.5t-4.5 -52t-9 -50t-15 -43.5q-5 -12 -13.5 -25.5t-22 -25.5t-32.5 -19.5t-46 -7.5q-38 0 -62 15.5t-38.5 36.5t-21 42t-9.5 31q-8 35 -11.5 69.5
t-3.5 69.5q0 13 0.5 31.5t3 40t6 44.5t9.5 44q2 8 9 27.5t22 40t38.5 36t59.5 15.5q35 0 59 -15.5t37 -32.5z" />
    <glyph glyph-name="one" unicode="1" 
d="M366 6q-2 28 -3.5 56t-2.5 61.5t-1 77.5v104q0 97 0.5 160.5t2 105t2.5 67t3 45.5l-8 5q-33 -5 -56.5 -8.5t-45.5 -6.5t-45 -5.5t-55 -6.5l-6 -7q0 -11 -0.5 -19t-1 -15.5t-1.5 -16t-2 -19.5l8 -6q15 3 26 5t21 4t22 4t29 5q1 -43 0.5 -98t-0.5 -108q-1 -72 -1.5 -119
t-1 -86t-1 -80t-1.5 -101l6 -7q19 1 32 1.5t24 1t22 0.5h29z" />
    <glyph glyph-name="two" unicode="2" 
d="M520 89q-42 -2 -68 -3t-45.5 -2t-39 -1.5t-47.5 -1.5h-99l56 56q56 55 98 101.5t70 88t42 80t14 77.5q0 40 -15.5 77t-45 65t-73.5 44.5t-101 16.5q-26 0 -51 -3.5t-49 -9.5q-44 -12 -66.5 -26t-33.5 -23l-6 -8v-31v-21q0 -9 -0.5 -18t-0.5 -23l8 -4q14 15 33.5 31.5
t51.5 30.5q45 20 94 20q37 0 64.5 -11t45.5 -29.5t27 -42t9 -48.5q0 -29 -11.5 -57.5t-29 -54.5t-37.5 -49.5t-38 -42.5q-60 -66 -120.5 -130.5t-122.5 -129.5l4 -10q25 0 66 0.5t88.5 1t96.5 0.5q50 0 90.5 0.5t68.5 0.5h33l38 -1l5 5v21v16q0 8 0.5 17.5t1.5 23.5z" />
    <glyph glyph-name="three" unicode="3" 
d="M69 672v-19t-0.5 -15.5t-1 -16.5t-1.5 -22l6 -6q40 1 70.5 1.5t59.5 1t61 0.5h76q-18 -29 -44 -66.5t-53.5 -75t-51.5 -69.5t-37 -49l6 -7q15 5 33.5 9.5t47.5 4.5q9 0 23 -1t30.5 -4.5t34 -11t32.5 -20.5q20 -17 32 -41.5t12 -56.5q0 -62 -46 -102t-126 -40
q-35 0 -62.5 7.5t-48 17t-34.5 20t-21 16.5l-8 -4q-1 -15 -1.5 -24.5t-1 -18.5t-1 -18.5t-1.5 -22.5l5 -7q41 -24 86 -33t93 -9q42 0 81 7.5t72.5 23t60 40.5t43.5 61q21 45 21 93q0 26 -9 59t-31.5 62.5t-61 50.5t-97.5 23q7 10 21.5 31t32.5 47t38 55t38 54.5t32.5 46
t20.5 29.5l-4 7q-13 0 -25 -0.5t-26.5 -1t-33.5 -0.5h-42h-294z" />
    <glyph glyph-name="four" unicode="4" 
d="M542 182q1 13 1.5 21.5t1 15.5t1.5 15t2 20l-6 6q-17 -1 -27 -1.5t-19 -0.5h-19h-26v72v79v60q0 27 0.5 49t0.5 45t0.5 49.5t1.5 61.5l-5 6q-23 0 -38 -0.5t-30 -0.5h-33h-44l-7 -5q-28 -49 -64.5 -108.5t-73.5 -117.5t-70 -108.5t-54 -82.5l-3 -8q0 -12 -0.5 -20
t-0.5 -14t-0.5 -13t-0.5 -18l5 -6h33t55 0.5t90 0.5h138q0 -26 -0.5 -45l-1 -38t-1 -40.5t-1.5 -52.5l6 -6q16 1 27 1.5t21 0.5h21h26l5 6q-1 27 -1.5 46.5t-0.5 37.5v39v51h25h20q10 0 19.5 -0.5t21.5 -1.5zM134 257l223 362l-4 -362h-219z" />
    <glyph glyph-name="five" unicode="5" 
d="M80 16q33 -12 71.5 -19t79.5 -7q75 0 128.5 22t88 56.5t50.5 77t16 84.5q0 52 -22.5 98.5t-64.5 77.5q-36 28 -80 39t-90 11q-26 0 -42.5 -2.5t-29.5 -4.5l8 146q24 0 50 0.5t48 0.5h39h21h50t55 -2l6 6q1 13 1.5 22t0.5 17t0.5 16t1.5 19l-6 6q-50 0 -87.5 -0.5
t-75.5 -1t-83 -0.5h-109l-7 -7q0 -44 -2 -89t-4 -87.5t-5 -82t-5 -72.5l7 -5q8 4 21.5 10.5t31.5 12.5t41 10t50 4q42 0 74 -11.5t54 -32t33.5 -48t11.5 -58.5q0 -30 -11.5 -57.5t-34.5 -48.5t-56.5 -33.5t-78.5 -12.5q-32 0 -57 5.5t-44 13.5t-31.5 16t-19.5 13l-9 -4
l-4 -84l5 -7z" />
    <glyph glyph-name="six" unicode="6" 
d="M505 570v25q0 11 0.5 19.5t1.5 17.5t2 21l-5 6q-18 8 -54 18t-93 10q-21 0 -46.5 -2.5t-53 -11t-56.5 -24.5t-56 -44q-23 -24 -38.5 -50.5t-25.5 -52t-15.5 -50.5t-8.5 -46q-3 -24 -5 -47.5t-2 -47.5q0 -55 11.5 -112.5t40.5 -102.5q33 -50 88 -78q29 -15 60.5 -21.5
t62.5 -6.5q52 0 94.5 16.5t73 46.5t47.5 72.5t17 93.5q0 52 -17.5 92t-46.5 67t-67.5 41t-81.5 14q-53 0 -94 -19t-67 -46l-11 -14q0 17 2 40.5t12 58.5q4 14 10.5 32t17.5 36.5t28.5 36.5t43.5 31q40 20 91 20q27 0 48 -5t37.5 -12t27.5 -14.5t18 -12.5zM165 258q3 5 6 11
t7 11q20 30 54 49t78 19q26 0 49.5 -8t41.5 -24.5t28.5 -42.5t10.5 -61q0 -34 -10.5 -60t-28 -44t-40.5 -27t-49 -9q-36 0 -63.5 14.5t-45.5 37.5t-27.5 52t-10.5 58v24z" />
    <glyph glyph-name="seven" unicode="7" 
d="M533 680q-51 -1 -121.5 -2t-140.5 -1h-127h-85l-6 -5q-2 -27 -3 -42t-3 -32l5 -6q28 1 49.5 1.5t42.5 1t44 1t52 0.5h69h94q-14 -38 -34.5 -89t-45 -108t-50 -115.5t-49.5 -111.5t-44.5 -96.5t-33.5 -71.5l5 -7q21 1 36 1.5t28.5 1t26.5 0.5h34l7 5q2 8 4 15t4 15
q18 65 49 149.5t66 172t70 170.5t61 145z" />
    <glyph glyph-name="eight" unicode="8" 
d="M416 369q10 5 27.5 14.5t33.5 26t28 42t12 62.5q0 33 -13 64.5t-40.5 55.5t-69 39t-98.5 15q-56 0 -94.5 -12t-63.5 -29q-32 -23 -52 -58t-20 -79q0 -35 10.5 -60t25.5 -41.5t31.5 -26t27.5 -15.5q-12 -5 -32 -15t-39.5 -29.5t-33.5 -50.5t-14 -77q0 -40 14.5 -77
t44.5 -65.5t76.5 -45.5t110.5 -17q48 0 94.5 11t84.5 41q27 21 50.5 59.5t23.5 94.5q0 29 -8.5 59t-27.5 55q-23 30 -47.5 42t-41.5 17zM414 515q1 -14 -3 -33.5t-17.5 -37.5t-37.5 -30.5t-63 -12.5q-58 0 -91 28.5t-33 73.5q0 43 31.5 74.5t92.5 31.5q29 0 51 -8.5t37 -22
t23 -30.5t10 -33zM430 197q0 -27 -9 -50.5t-26.5 -41t-43 -27.5t-59.5 -10q-67 0 -103.5 35.5t-36.5 92.5q0 58 38.5 93.5t102.5 35.5q33 0 58.5 -10t43 -27.5t26.5 -41t9 -49.5z" />
    <glyph glyph-name="nine" unicode="9" 
d="M81 107q0 -16 -0.5 -25.5t-0.5 -17.5q0 -7 -0.5 -15.5t-1.5 -22.5l4 -7q7 -3 20.5 -7.5t33 -9.5t44 -8.5t53.5 -3.5q22 0 47 3t52 12t54.5 25t53.5 43q24 24 39.5 49.5t25.5 51t15.5 50.5t8.5 47q6 46 6 93q0 24 -2 52t-7.5 57t-15 57t-24.5 52q-16 26 -39 46t-50 34
t-57 20t-61 6q-57 0 -101.5 -18t-75 -49.5t-46.5 -73.5t-16 -90q0 -50 16.5 -89t45.5 -66.5t68 -42t83 -14.5q48 0 86 15.5t63 38.5q7 5 12.5 11.5t11.5 13.5q-1 -21 -3 -44.5t-11 -56.5q-4 -14 -10.5 -31.5t-17.5 -36.5t-28.5 -36.5t-43.5 -30.5q-40 -20 -91 -20
q-27 0 -48.5 5t-38 12t-27.5 14.5t-18 12.5zM420 420q-2 -5 -5 -11t-7 -11q-20 -31 -54.5 -49.5t-77.5 -18.5q-56 0 -93.5 34t-37.5 102q0 32 10 58t28 44t42 28t52 10q43 0 70.5 -18t44 -43.5t23 -53.5t6.5 -47z" />
    <glyph glyph-name="colon" unicode=":" horiz-adv-x="271" 
d="M210 529q-17 -1 -29 -2t-23 -1.5t-24 -0.5h-32l-8 -9q0 -13 0.5 -25.5t0.5 -26.5q0 -13 -0.5 -26t-0.5 -26l7 -8q20 1 33 1.5t24.5 1t23.5 1t30 1.5l7 8q0 15 -0.5 26.5t-0.5 22.5v24v30zM210 122q-17 -1 -29 -1.5t-23 -1t-24 -1t-32 -0.5l-8 -9q0 -13 0.5 -25.5
t0.5 -25.5q0 -14 -0.5 -27t-0.5 -26l7 -8q21 1 34 1.5t23.5 1t22 1t31.5 1.5l7 9q0 15 -0.5 26.5t-0.5 22.5v23v31z" />
    <glyph glyph-name="semicolon" unicode=";" horiz-adv-x="271" 
d="M228 119q-20 -1 -33.5 -1.5t-25 -1t-23.5 -1t-30 -0.5l-6 -7q-4 -31 -9 -58.5t-11 -56t-14.5 -62t-18.5 -76.5l4 -6q13 1 21.5 1.5t14.5 0.5h15h20l7 7q7 21 17.5 52t23 65.5t26 69.5t26.5 66zM228 529q-17 -1 -29 -2t-23 -1.5t-24 -0.5h-33l-7 -9q0 -13 0.5 -25.5
t0.5 -26.5q0 -13 -0.5 -26t-0.5 -26l6 -8q20 1 33 1.5t24.5 1t24 1t30.5 1.5l7 8q-1 15 -1.5 26.5t-0.5 22.5q0 12 0.5 24.5t0.5 29.5z" />
    <glyph glyph-name="less" unicode="&#x3c;" horiz-adv-x="667" 
d="M667 83l-567 270l567 270v86l-667 -313v-86l667 -313v86z" />
    <glyph glyph-name="equal" unicode="=" horiz-adv-x="667" 
d="M667 241h-667v-79h667v79zM667 421h-667v-79h667v79z" />
    <glyph glyph-name="greater" unicode="&#x3e;" horiz-adv-x="667" 
d="M667 310v86l-667 313v-86l567 -270l-567 -270v-86z" />
    <glyph glyph-name="question" unicode="?" horiz-adv-x="417" 
d="M238 215q2 17 5 32.5t10 32t17.5 36t27.5 44.5l28 43q9 14 19.5 31.5t19 38.5t14.5 46t6 54q0 44 -14.5 80t-41.5 61.5t-65 39.5t-86 14q-42 0 -79.5 -9.5t-72.5 -31.5l-5 -7q-1 -15 -1.5 -25.5t-1.5 -20t-2 -20t-2 -26.5l9 -3q9 7 21.5 16.5t28.5 17.5t36 14t45 6
q24 0 45.5 -7t38 -22t26.5 -37.5t10 -53.5q0 -47 -19 -86t-39 -72l-22 -34q-12 -20 -21.5 -38t-16.5 -36t-11.5 -37.5t-6.5 -44.5l7 -6q13 1 22.5 1.5t18.5 0.5h20h26zM241 122q-17 -1 -29 -1.5t-23 -1t-24 -1t-33 -0.5l-8 -9q1 -13 1 -26v-25v-27t-1 -26l7 -8q21 1 34 1.5
t23.5 1t22.5 1t31 1.5l7 9q0 15 -0.5 26.5t-0.5 22.5t0.5 23.5t0.5 30.5z" />
    <glyph glyph-name="at" unicode="@" horiz-adv-x="896" 
d="M787 76q-80 -76 -165 -110.5t-171 -34.5q-54 0 -111.5 15.5t-105 51.5t-78.5 94t-31 143t32 162t87 134.5t126.5 91.5t151.5 34q60 0 106 -17t77.5 -48.5t47.5 -75t16 -95.5q0 -59 -16 -112t-39 -93t-49.5 -63.5t-47.5 -23.5q-8 0 -19 8.5t-11 34.5q0 12 1.5 25.5
t4.5 32.5t8.5 46.5t13.5 68.5l33 150h-68l-15 -62q-4 9 -11.5 23.5t-20.5 28t-33 23t-50 9.5q-42 0 -80 -23.5t-67.5 -63t-46.5 -91t-17 -107.5q0 -44 11.5 -74.5t30 -49.5t42 -28t46.5 -9q25 0 47 8t40 20t32 27t25 29q1 -8 2 -18.5t5.5 -21t13 -20.5t23.5 -17q19 -8 40 -8
q38 0 84 29.5t84 93.5q18 30 30 62.5t19 62.5t10 57t3 47q0 65 -21 118.5t-59.5 91.5t-93 59t-122.5 21q-69 0 -130 -18.5t-112.5 -51.5t-92 -78t-69 -98t-43.5 -111.5t-15 -118.5q0 -101 37 -170t94 -111t124.5 -60.5t129.5 -18.5q99 0 191 39.5t174 120.5zM541 348
q-1 -42 -13 -81t-32 -68t-46 -46.5t-54 -17.5q-8 0 -21 3t-25.5 14t-22 31t-9.5 55t10 73t28 69.5t44 52t58 20.5q14 0 29 -6t27 -18.5t19.5 -33t7.5 -48.5v1z" />
    <glyph glyph-name="A" unicode="A" horiz-adv-x="604" 
d="M390 703l-7 7q-24 -1 -39.5 -1.5t-30 -1t-31 -1t-42.5 -0.5l-8 -7q-11 -36 -21 -68.5t-22.5 -70t-29 -85.5t-38.5 -114q-54 -162 -111 -324q-3 -8 -6 -15.5t-5 -15.5l4 -7q19 1 31.5 1.5t23 1t21.5 0.5h27l7 7q9 33 15.5 56.5t12.5 45t13 46t18 59.5q30 0 63.5 0.5
t66.5 0.5q30 0 59.5 -0.5t59.5 -0.5q10 -34 17 -58t13 -46t13 -47t16 -60l7 -7q16 1 28.5 1.5t25.5 1t27.5 1t34.5 0.5l4 8q-11 36 -25.5 81t-29.5 92t-29.5 92t-26.5 81q-23 72 -49.5 159t-51.5 170zM302 634l96 -338q-26 0 -52.5 -0.5t-52.5 -0.5q-24 0 -48 0.5t-48 0.5z
" />
    <glyph glyph-name="B" unicode="B" horiz-adv-x="625" 
d="M258 -2q59 0 102 2.5t83 16.5q60 22 98.5 69.5t38.5 116.5q0 14 -3 34t-12.5 41t-28.5 41.5t-51 34.5q-27 12 -51 14.5t-41 3.5q52 13 82 36t45 48t18.5 48.5t3.5 36.5q0 28 -7 50t-18.5 38.5t-25.5 28.5t-28 20q-38 22 -82.5 26.5t-89.5 4.5h-42q-21 0 -36 -1l-134 -2
l-5 -7q1 -20 2.5 -40.5t2.5 -45t1.5 -55.5t0.5 -70v-36v-53q0 -29 -0.5 -62t-0.5 -62v-52v-34v-61q0 -26 -0.5 -47.5t-1 -40t-1.5 -36.5l5 -7zM214 321q20 1 32.5 1.5t19.5 0.5h12h8q18 0 48 -2t58.5 -13t49.5 -35t21 -68q0 -38 -19.5 -67t-55.5 -43q-29 -12 -73.5 -13.5
t-101.5 -1.5h-19q-2 41 -2.5 67.5t-1 50.5t-0.5 51v71zM190 626q46 3 94 3q9 0 23.5 -0.5t32 -3.5t34.5 -10t30 -20q13 -14 20.5 -32.5t7.5 -38.5q0 -25 -11 -48t-30 -39q-32 -25 -82.5 -29.5t-118.5 -3.5v222z" />
    <glyph glyph-name="C" unicode="C" horiz-adv-x="625" 
d="M593 139q-12 -8 -29 -18.5t-39.5 -20t-51.5 -16t-64 -6.5q-52 0 -96 16.5t-76.5 51t-50.5 86.5t-18 123q0 63 16 114.5t47.5 87.5t77.5 56t106 20q33 0 59 -5t46 -12.5t33 -15t21 -12.5l9 4q1 16 2 27t2 20t2 18.5t3 23.5l-4 8q-25 9 -69.5 20.5t-113.5 11.5
q-27 0 -59.5 -3t-67.5 -13.5t-70 -31t-67 -55.5q-33 -36 -51 -75t-27 -75t-11 -66.5t-2 -48.5q0 -84 23.5 -152t68.5 -116t109.5 -74t146.5 -26q38 0 68.5 5t54.5 12t40.5 14.5t25.5 12.5l6 7q1 14 1.5 25t1 21.5t1.5 22.5t3 30z" />
    <glyph glyph-name="D" unicode="D" horiz-adv-x="708" 
d="M149 -2h80t49 0.5t31 1t27 2.5q38 4 80.5 13.5t82.5 32t75 61t58 99.5q15 39 21 80t6 83q0 10 -0.5 30t-4 45t-11.5 53.5t-22.5 57t-37 55t-55.5 47.5q-31 20 -66 30.5t-73 15t-79 5t-85 -0.5l-147 -3l-6 -7q2 -28 3.5 -60.5t3 -81t2 -119t0.5 -175.5q0 -77 -1 -137.5
t-3 -121.5l5 -7zM193 82q-1 34 -1.5 59t-1 54.5t-0.5 71.5v111v93t0.5 64t1 47.5t1.5 44.5q26 1 48.5 1.5t48.5 0.5q15 0 36.5 -1t45.5 -5.5t49.5 -14.5t47.5 -29q27 -24 42 -53.5t22 -58t8 -52.5t1 -36q0 -42 -5.5 -78.5t-18.5 -69.5q-23 -57 -57.5 -88t-77.5 -44.5
t-91.5 -15.5t-98.5 -1z" />
    <glyph glyph-name="E" unicode="E" horiz-adv-x="542" 
d="M501 89q-48 -2 -81.5 -3t-65.5 -1.5t-70 -0.5h-94q0 36 -0.5 61.5t-0.5 50.5v54t1 73h84q34 0 62 -0.5t57.5 -1t73.5 -1.5l6 7q0 12 0.5 20.5l1 17t1 17.5t2.5 22l-5 7q-46 -1 -78.5 -1.5t-62.5 -0.5h-63h-79v59t0.5 47.5t1 47t1.5 59.5q48 0 82.5 -0.5t66.5 -1t67 -1.5
t83 -2l6 7q1 13 1.5 23t1.5 18.5l2 17t2 19.5l-6 7q-69 -1 -115.5 -1.5t-89.5 -0.5t-92 -0.5t-123 -0.5l-6 -7q3 -43 4 -84t2 -85.5t1 -95.5v-114q0 -69 -0.5 -115.5t-1.5 -81.5t-2 -62t-2 -57l5 -7q47 0 83 0.5t66 1t57 0.5t57.5 0.5t66.5 0.5h86l7 7q1 13 1.5 21.5t1 16
t1 16t1.5 21.5z" />
    <glyph glyph-name="F" unicode="F" horiz-adv-x="479" 
d="M437 315q1 11 1.5 18.5t1.5 15.5t1.5 18.5t2.5 27.5l-5 6q-38 -1 -65 -2t-53.5 -1.5t-56.5 -1t-73 -0.5v23q0 22 0.5 50.5l1 57t1 53.5t0.5 40h78t61.5 -0.5t61.5 -1.5t79 -2l6 6q1 15 1.5 24t1 17t1 16.5t2.5 22.5l-5 7q-17 -1 -49 -1t-71 -0.5t-81.5 -1t-81.5 -0.5h-71
h-49l-5 -7q1 -23 2 -47.5t2 -55t1.5 -70.5t0.5 -93q0 -111 -0.5 -181t-1 -115.5t-2 -75t-2.5 -57.5l5 -7q20 1 33 1.5t24.5 1t24.5 0.5h34l5 7q-3 41 -4.5 87.5t-2 89.5t-0.5 77q0 35 1 51q45 0 73.5 -0.5t53 -1t49.5 -1t62 -1.5z" />
    <glyph glyph-name="G" unicode="G" horiz-adv-x="688" 
d="M632 347q-18 -1 -30 -1.5t-24 -0.5h-25h-33l-6 -7q2 -28 4 -72t2 -102l-1 -75q-17 -5 -41 -11t-62 -6q-60 0 -106.5 19.5t-77.5 55t-47 85.5t-16 112q0 17 1.5 41t7 51t16.5 54.5t30 53.5q23 31 50 49t52.5 26.5t47 10.5t35.5 2q35 0 63.5 -6.5t51.5 -15.5t40 -19.5
t29 -18.5l8 2q1 17 2.5 29.5t2.5 23t2.5 21t3.5 23.5l-5 7q-11 5 -29 12.5t-43.5 14t-58.5 11.5t-73 5q-20 0 -50.5 -2.5t-65.5 -13t-72.5 -31.5t-71.5 -59q-42 -47 -68.5 -115t-26.5 -156q0 -87 25.5 -151t62.5 -104q28 -30 61.5 -50t69.5 -32t74 -17t75 -5q57 0 108 10
t104 31l6 7q-1 22 -1.5 40t-0.5 49q0 45 1 102t4 117z" />
    <glyph glyph-name="H" unicode="H" horiz-adv-x="708" 
d="M638 7q-2 34 -4 67.5t-3.5 74t-2 93t-0.5 125.5v112q0 47 0.5 84.5t1.5 70t2 68.5l-5 7q-18 -1 -30 -1.5t-24 -0.5q-11 0 -24 -0.5t-33 -0.5l-5 -7q2 -23 3 -42t1.5 -47t1 -71t1.5 -114q-18 -1 -35.5 -1.5t-38.5 -1t-47 -0.5h-60h-43q-18 0 -34.5 0.5t-32.5 1t-35 0.5
q0 103 1 168.5t2 109.5l-5 7q-18 -1 -30.5 -1.5t-24.5 -0.5q-11 0 -24 -0.5t-32 -0.5l-6 -7q1 -23 2 -44.5t2 -49t1.5 -63t0.5 -86.5v-132t-0.5 -98t-0.5 -73t-0.5 -56t-1.5 -46.5t-2 -46.5l6 -7q21 1 33.5 1.5t23 1t22.5 0.5h34l5 7q-2 28 -3.5 56.5t-2.5 66t-1 87.5v122
q52 1 113 1.5t120 0.5q35 0 56 -0.5t38 -0.5q1 -78 -1 -164.5t-4 -171.5l6 -7q21 1 34 1.5t24 1t23 0.5h32z" />
    <glyph glyph-name="I" unicode="I" horiz-adv-x="271" 
d="M189 709q-19 -1 -32.5 -1.5t-25.5 -1t-25 -0.5h-28l-5 -8q5 -113 6 -225t1 -226q0 -48 -0.5 -83.5t-1 -63.5t-1 -50.5t-1.5 -45.5l6 -7q20 1 33.5 1.5t25.5 0.5t23.5 0.5t28.5 0.5l6 7q-2 39 -3.5 75.5t-2.5 79.5t-1.5 96.5t-0.5 125.5q0 64 0.5 112.5t1 86t1.5 66
t2 53.5z" />
    <glyph glyph-name="J" unicode="J" horiz-adv-x="333" 
d="M4 2q14 -3 30.5 -5.5t43.5 -2.5q68 0 105.5 22t55.5 54.5t21.5 69.5t3.5 68v54t-1 36v90q0 23 -0.5 40.5t0 34.5t0.5 36q0 20 0.5 47.5t1.5 65t2 90.5l-5 7q-20 -1 -34 -1.5t-26 -0.5t-24 -0.5t-28 -0.5l-6 -7q5 -96 6.5 -191t1.5 -192q0 -59 -0.5 -92.5t-2 -51.5
t-3.5 -26t-5 -15q-8 -18 -19.5 -27.5t-23.5 -14t-22 -5t-16 -0.5q-19 0 -31 2.5t-24 5.5l-7 -5q1 -14 1 -27v-19v-31z" />
    <glyph glyph-name="K" unicode="K" horiz-adv-x="604" 
d="M561 709q-20 -1 -32.5 -1.5t-23.5 -1t-24 -0.5h-34l-8 -6q-11 -16 -32 -43.5t-45.5 -59t-50 -64t-47 -59t-35.5 -44t-15 -18.5q-6 -8 -12 -15l-12 -14v85q0 35 0.5 67.5t1.5 70.5t3 96l-5 7q-19 -1 -31 -1.5t-24 -0.5q-11 0 -24 -0.5t-33 -0.5l-6 -7q2 -30 3.5 -57.5
t2.5 -60t1.5 -73t0.5 -96.5v-119v-85t-0.5 -62t-1 -48.5t-1 -44.5t-1.5 -49l5 -7q19 1 31 1.5t22.5 1t23.5 0.5h34l6 7q-3 46 -4.5 101t-2 106t-1 92.5t-0.5 60.5q6 -8 25 -32.5t44.5 -58.5t54.5 -73t57 -77t51.5 -70.5t37.5 -52.5l9 -6q24 1 39 1.5t27.5 1t26.5 0.5h36
l6 11q-77 94 -150 188t-144 191q30 38 65 81t70 85t66.5 79.5t55.5 65.5z" />
    <glyph glyph-name="L" unicode="L" horiz-adv-x="479" 
d="M466 92q-50 -2 -83.5 -2.5t-62 -1.5t-57.5 -1h-71q0 18 -0.5 35t-1 36.5t-0.5 41.5v52v54q0 46 1 110.5t3 140.5t6 146l-6 6q-19 -1 -32 -1.5t-25 -0.5q-11 0 -24.5 -0.5t-33.5 -0.5l-7 -7q2 -30 3.5 -62t2.5 -70t1.5 -83.5t0.5 -103.5q0 -132 -1.5 -223.5t-3.5 -152.5
l6 -7q47 1 81 1.5t61 0.5q28 0 52 0.5t51 0.5h59h77l5 7q2 22 2.5 37t2.5 40z" />
    <glyph glyph-name="M" unicode="M" horiz-adv-x="854" 
d="M762 709q-26 -1 -42.5 -1.5t-31.5 -1t-33 -0.5h-44l-6 -7l-10 -35t-9.5 -32t-14 -46t-23.5 -77l-127 -417l-109 404q-15 51 -28 98.5t-27 107.5l-7 7q-24 -1 -40.5 -1.5t-32.5 -1t-35 -0.5h-46l-6 -7q0 -33 -0.5 -55.5t-1.5 -49.5t-3 -66t-6 -106q-5 -90 -9 -178.5
t-12 -178.5q-2 -15 -3 -30.5t-3 -30.5l5 -7q16 1 26 1.5t19.5 1t20.5 0.5h30l5 7q0 29 0.5 51t1 45t1 52.5t2.5 73.5l7 179q1 37 2 62.5t1.5 48.5t1 48t0.5 63q5 -24 9 -41.5t10 -40t15 -55t24 -86.5l40 -140q4 -12 13 -42.5t19 -64.5t18.5 -64t11.5 -42q4 -12 7.5 -24.5
t7.5 -25.5l6 -7q21 1 34.5 1.5t24.5 1t24 0.5h33l6 7q9 29 16 52.5t15 48.5t17.5 54.5t23.5 71.5l46 145q16 52 27 90t19 66.5t14.5 50.5t12.5 44v-47t0.5 -72t0.5 -78v-65l2 -106q1 -41 2 -70.5t1 -57.5v-58v-72l6 -7q19 1 31.5 1.5t23 1t22.5 0.5h31l5 7
q-10 175 -16 347.5t-10 347.5z" />
    <glyph glyph-name="N" unicode="N" horiz-adv-x="708" 
d="M634 49q-3 141 -3 283q0 93 1 185.5t3 184.5l-6 7q-15 -1 -25.5 -1.5t-20 -1t-21.5 -0.5h-28l-6 -7q1 -26 2.5 -46t2 -45.5t1.5 -62t3 -95.5l8 -332l-124 219q-50 88 -101.5 180.5t-102.5 184.5l-10 7q-21 -1 -35.5 -1.5t-27.5 -0.5t-28 -0.5t-38 -0.5l-5 -7
q4 -103 5 -204.5t1 -204.5q0 -72 -1 -143t-4 -143l6 -7q18 1 29 1.5t20.5 1t19.5 0.5h27l6 7q-1 15 -1.5 25t-1 22t-1 30t-1.5 49q-1 32 -2 62.5t-2 62.5l-10 343l158 -282q45 -79 89 -157.5t89 -157.5l8 -7q22 1 36 1.5t26 1t25 0.5h36l5 7z" />
    <glyph glyph-name="O" unicode="O" horiz-adv-x="750" 
d="M374 -15q74 0 134 23.5t103 69.5t66 114t23 158q0 87 -22.5 156t-64.5 116.5t-102 73t-134 25.5q-78 0 -138.5 -27t-102.5 -75.5t-64 -117.5t-22 -153q0 -83 21.5 -150t63 -114.5t101.5 -73t138 -25.5zM376 69q-56 0 -97 25t-67 69q-13 22 -21 48t-12.5 52t-6 50t-1.5 42
q0 17 1.5 41.5t6.5 52t14 55t23 49.5q8 13 21 27.5t32.5 27.5t46 21.5t61.5 8.5q9 0 28 -1.5t42 -9.5t47 -25.5t44 -49.5q14 -23 22.5 -51.5t13 -56.5t6 -51.5t1.5 -37.5q0 -57 -11.5 -109t-36 -91.5t-63.5 -62.5t-94 -23z" />
    <glyph glyph-name="P" unicode="P" 
d="M200 7q-2 46 -3.5 77.5t-2 59t-1 56t-0.5 69.5q11 0 21 -0.5t24 -0.5q45 0 87.5 5t80 18t68.5 36t53 59q15 25 22.5 53.5t7.5 58.5q0 26 -6.5 55t-22 56t-42.5 49.5t-69 36.5q-36 11 -75.5 13t-89.5 2l-66 -2q-7 0 -22.5 -0.5t-33.5 -0.5q-17 0 -32 -0.5t-21 -0.5l-5 -7
q7 -115 8 -232t1 -234v-77q0 -32 -0.5 -58t-1 -48t-1.5 -46l6 -7q19 1 31 1.5t22.5 1t22.5 0.5h34zM192 350q0 34 -0.5 67.5t-0.5 67.5q0 35 0.5 70t0.5 70q10 1 18.5 1.5t18 1t22 1t31.5 0.5q16 0 37 -1t42 -8t40.5 -21t31.5 -40q7 -15 9.5 -31t2.5 -31q0 -19 -4 -37.5
t-13 -34.5q-13 -23 -32 -37t-38 -21t-36.5 -9.5t-27.5 -3.5q-20 -2 -48 -2.5t-54 -1.5z" />
    <glyph glyph-name="Q" unicode="Q" horiz-adv-x="750" 
d="M554 -86q29 -12 48.5 -19.5t34.5 -13.5t29 -12t32 -13l8 4q8 14 13 23t9.5 17t9.5 16.5t13 22.5l-4 9q-26 6 -56 14t-60.5 17.5t-59.5 20t-51 19.5q15 7 36.5 19.5t44 35t44 57.5t36.5 87q9 32 14 66.5t5 72.5q0 58 -15 122t-52 118t-100 89t-158 35q-86 0 -147.5 -30
t-101 -81t-58 -118t-18.5 -142q0 -71 17 -133.5t51.5 -110.5t87.5 -79t125 -39q11 -1 21.5 -1.5t21.5 -1.5zM579 355q0 -18 -1.5 -42t-6 -50t-12.5 -52t-21 -48t-30.5 -41t-39.5 -31q-21 -11 -44.5 -16.5t-47.5 -5.5q-52 0 -87 18.5t-58 46.5t-35.5 62t-18 66t-6.5 57.5
t-1 35.5q0 88 21 143t52 86t66.5 42.5t65.5 11.5q48 0 90 -23t69 -65q14 -22 22.5 -48t13.5 -52.5t7 -51.5t2 -43z" />
    <glyph glyph-name="R" unicode="R" horiz-adv-x="604" 
d="M200 7q-2 31 -3.5 73t-2.5 84t-1 78v58h21h16q8 0 15.5 0.5t19.5 0.5q9 -12 15.5 -21.5t15.5 -23t22.5 -34t36.5 -54.5q24 -37 48.5 -73.5t46.5 -74.5l12 -21l7 -5q16 2 31.5 2.5t31.5 1.5q15 1 30 1h31l4 10q-23 31 -38.5 51.5t-26.5 36t-20.5 28.5t-21.5 30
q-7 10 -23 33.5t-34 49.5t-34 48.5t-22 31.5q48 13 80.5 34t53 47t29 55.5t8.5 59.5q0 72 -34 114.5t-92 62.5q-37 13 -76 15t-81 2l-61 -1q-26 0 -56.5 -0.5t-44.5 -0.5h-25l-6 -7q2 -38 4 -74t3.5 -81t2 -104.5t0.5 -143.5q0 -73 -1 -146t-3 -146l6 -7q19 1 31 1.5t22.5 1
t22.5 0.5h34zM191 382q0 42 -0.5 68.5t-0.5 50.5q0 25 0.5 52.5t0.5 71.5q26 1 40 1h25q28 0 52 -1t44.5 -6.5t36.5 -16t28 -28.5q11 -17 15 -35t4 -34q0 -24 -9.5 -46t-28.5 -38q-18 -16 -42 -24t-51 -11.5t-57 -3.5h-57z" />
    <glyph glyph-name="S" unicode="S" horiz-adv-x="542" 
d="M282 422q-23 10 -36 15.5t-20.5 9t-11.5 6t-9 5.5q-8 5 -17 11.5t-16.5 16t-12.5 22t-5 29.5q0 45 36 71.5t99 26.5q56 0 94.5 -15t70.5 -31l8 4q1 13 2 23.5t1.5 20t1.5 20t3 24.5l-5 8q-40 13 -80.5 22.5t-99.5 9.5q-61 0 -118 -19t-92 -69q-16 -23 -23.5 -50t-7.5 -55
q0 -46 16 -78t40.5 -54.5t53.5 -38t56 -27.5l50 -22q24 -9 46.5 -19.5t39.5 -24.5t27 -33t10 -45q0 -23 -8.5 -43t-26 -36t-45 -25t-66.5 -9q-35 0 -63.5 7t-50 16.5t-37.5 19.5t-25 16l-10 -4q-1 -14 -2 -25.5t-1.5 -22t-2 -21t-2.5 -23.5l4 -7q9 -5 26 -12t42 -14.5
t57.5 -12.5t72.5 -5q65 0 113.5 17.5t80.5 47t47.5 68t15.5 80.5q0 48 -16.5 81t-41.5 56t-55 38t-57 27z" />
    <glyph glyph-name="T" unicode="T" horiz-adv-x="500" 
d="M498 627v19t0.5 16t1.5 17.5t2 22.5l-5 7q-58 -1 -115.5 -1.5t-115.5 -0.5q-27 0 -60.5 -0.5t-69.5 -0.5h-69h-60l-5 -7q-1 -13 -1.5 -21.5t-0.5 -15.5t-0.5 -15.5t-1.5 -21.5l6 -7q33 1 54 1.5t39.5 1t39 1t53.5 0.5q1 -32 2 -77t1 -121q0 -106 -1 -210t-5 -210l5 -7
q21 1 33.5 1.5t23.5 1t24 0.5h34l6 7q-1 22 -2.5 54t-2.5 79.5t-1.5 115t-0.5 161.5v55v43q0 21 0.5 45t1.5 62h53h39q19 0 39.5 -0.5t52.5 -1.5z" />
    <glyph glyph-name="U" unicode="U" horiz-adv-x="688" 
d="M608 709q-15 -1 -25 -1.5t-19 -0.5t-20 -0.5t-28 -0.5l-5 -7q3 -43 4.5 -91t2 -97t1 -97.5t0.5 -91.5q0 -59 -2.5 -102t-19.5 -75q-14 -28 -34.5 -43t-41.5 -22.5t-39 -9t-27 -1.5q-52 0 -82 16.5t-43 32.5q-26 31 -31.5 79t-5.5 123v86t0.5 102.5t1 103.5t2.5 90l-5 7
q-19 -1 -31 -1.5t-23 -0.5t-24 -0.5t-34 -0.5l-7 -7q1 -49 1.5 -80t1 -60t0.5 -64v-88v-102q0 -44 1 -78t6 -62t16 -52t31 -47q10 -11 27 -25t43.5 -26.5t63.5 -21t85 -8.5q61 0 115.5 17.5t90.5 56.5q22 24 33.5 51t17 54.5t6.5 54t1 49.5l-1 90q0 28 -0.5 49t-0.5 38v32
v31v51t0.5 41.5t1 44t1.5 57.5z" />
    <glyph glyph-name="V" unicode="V" 
d="M367 7q3 11 6 20.5t6 19.5q22 76 46.5 151t48.5 150q4 14 13 42t19.5 63.5t22.5 74t23 73t19.5 62t12.5 39.5l-5 7q-18 -1 -29 -1.5t-20.5 -1t-21.5 -0.5h-29l-6 -7q-21 -79 -42.5 -157.5t-43.5 -156.5l-89 -314l-87 315q-23 83 -36 133t-21.5 82t-14 53.5t-12.5 47.5
l-7 7q-19 -1 -31.5 -1.5t-24 -1t-25.5 -0.5h-34l-5 -7q1 -4 8.5 -28.5t18.5 -59.5t23.5 -76t24.5 -79.5t21.5 -69.5t13.5 -45q26 -85 50.5 -168.5t48.5 -168.5l7 -7q27 1 43.5 1.5t30.5 1t29 0.5h42z" />
    <glyph glyph-name="W" unicode="W" horiz-adv-x="875" 
d="M714 7q1 5 2 10.5t2 10.5q17 82 36 163t38 163q21 91 33.5 146t20.5 90t14.5 59t15.5 53l-5 7q-16 -1 -26.5 -1.5l-21 -1t-22.5 -0.5h-28l-6 -7q-2 -15 -3.5 -27t-6 -34.5t-12 -63t-21.5 -112.5l-78 -395l-79 422q-2 13 -7 40t-10.5 57t-10 55.5t-5.5 35.5q-1 7 -1.5 13
t-1.5 12l-6 7q-26 -1 -43.5 -1.5t-33.5 -0.5t-35 -0.5t-47 -0.5l-6 -7q-7 -38 -11 -61.5t-7.5 -42l-7 -37t-8.5 -45.5l-84 -443l-73 382l-12 66t-12 67q-7 38 -11.5 64.5t-9.5 52.5l-6 7q-18 -1 -30.5 -1.5t-24 -1t-25.5 -0.5h-34l-5 -7q13 -57 28.5 -124t31.5 -136.5
t31 -138t28 -126.5t22.5 -103t13.5 -67l7 -7q26 1 41.5 1.5t29.5 1t30 0.5h44l6 7q1 9 4.5 26t7.5 37t8 40.5t7 36.5q5 20 8.5 41t7.5 41l83 408l82 -431q5 -27 9 -48t8 -43t8.5 -48t10.5 -63l7 -7q25 1 41 1.5t30.5 1t30.5 0.5h42z" />
    <glyph glyph-name="X" unicode="X" horiz-adv-x="542" 
d="M539 11q-53 89 -104.5 177.5t-102.5 178.5q28 46 57 94t56 92t51 82.5t42 66.5l-5 7q-18 -1 -30.5 -1.5t-24 -1t-24.5 -0.5h-32l-7 -7q-22 -43 -36.5 -71.5t-28 -54t-29 -53t-38.5 -67.5q-22 40 -37 69t-29.5 55.5t-29.5 56.5l-37 74l-8 5q-29 -5 -58 -6q-14 -2 -29 -2
t-29 -1l-5 -9q25 -40 53.5 -88.5t55.5 -96t49 -87t34 -61.5q-12 -20 -21 -36t-20 -33.5t-26 -40.5t-37 -58q-13 -20 -25 -40t-26 -42t-30.5 -48t-37.5 -59l6 -8q21 1 33.5 1.5t24 1t23.5 0.5h31l8 7q24 44 40.5 75t32.5 59t33 57.5t42 71.5q26 -47 44 -79t33.5 -60.5t31 -58
t36.5 -71.5l8 -5q16 2 31 2.5t31 1.5l57 3z" />
    <glyph glyph-name="Y" unicode="Y" horiz-adv-x="542" 
d="M331 6q-2 27 -2.5 57.5t-1.5 60t-1 55.5v43v33q0 18 1 43q12 23 20 38.5t17.5 33.5t23 43t36.5 66q29 52 46.5 83.5t30 53.5t23 40.5t25.5 44.5l-6 8q-15 -1 -25.5 -1.5t-20.5 -1t-22 -0.5h-30l-8 -6q-13 -27 -31.5 -65t-40 -80.5t-44 -85.5t-43.5 -80q-26 52 -43 85
t-32 63t-31.5 65t-42.5 89q-2 5 -4 8.5t-4 8.5l-8 4q-14 -1 -28.5 -2t-29.5 -2l-57 -3l-5 -9q33 -58 62.5 -111t56 -102.5t51 -97t49.5 -95.5q1 -10 1 -21v-26v-50q0 -31 -0.5 -65.5t-1.5 -67.5t-2 -55l6 -7q16 1 28 1.5t24 0.5t25.5 -0.5t32.5 -0.5z" />
    <glyph glyph-name="Z" unicode="Z" horiz-adv-x="521" 
d="M496 4q2 27 3.5 41.5t4.5 34.5l-6 6q-53 -2 -89.5 -2.5t-71 -1.5t-74.5 -1h-101q82 157 168 315q37 68 62.5 115t44.5 81t33 58.5t28 47.5l-5 10q-26 -1 -58.5 -1.5t-85.5 -0.5q-77 0 -153.5 0.5t-153.5 1.5l-6 -7q-1 -11 -1.5 -19t-1.5 -15.5t-2 -16.5t-2 -21l5 -7
q55 1 95 1.5t73 0.5h65h69l-110 -207q-55 -103 -110 -204.5t-112 -204.5l6 -9q30 1 56 1h34h194q101 0 195 -1z" />
    <glyph glyph-name="bracketleft" unicode="[" horiz-adv-x="313" 
d="M304 -211q0 24 0.5 36.5t2.5 29.5l-6 8q-14 -1 -24 -1.5t-21 -1t-24 -0.5h-30q-1 43 -1.5 78t-1 71t-1 77.5t-0.5 96.5q0 127 1 252.5t9 252.5h26h20t19.5 -0.5t26.5 -0.5l6 6v18v14t0.5 14.5t1.5 18.5l-6 7q-32 -1 -58.5 -1.5t-55.5 -0.5h-45t-45 1l-6 -7q1 -24 2 -52
t2 -67.5t1.5 -94t0.5 -129.5q0 -50 -0.5 -106.5t-0.5 -109.5t-0.5 -98t-0.5 -70q0 -41 -0.5 -73t-1.5 -59.5t-2 -54t-3 -54.5l5 -6h55h44q22 0 46 -0.5t59 -0.5z" />
    <glyph glyph-name="backslash" unicode="\" horiz-adv-x="458" 
d="M467 -132q-9 21 -16 36t-17 37.5t-26 59t-44 101.5q-25 58 -43.5 101t-33 76.5t-26.5 61.5t-23.5 56.5t-25 61t-31.5 75.5q-17 43 -29.5 73.5t-22 55.5t-18 47t-17.5 48l-9 6h-13t-27 0.5t-29 0.5h-16l-6 -8q4 -9 12 -27.5t18 -41t21 -48t21 -48l18 -40.5t11 -26
q72 -165 139 -328.5t132 -331.5l8 -7q15 0 24.5 0.5t18.5 0.5h19h27z" />
    <glyph glyph-name="bracketright" unicode="]" horiz-adv-x="313" 
d="M8 758q0 -24 -0.5 -36.5t-2.5 -29.5l6 -8q13 1 23.5 1.5t21.5 1t23 0.5h31q1 -43 1.5 -78.5t1 -71.5t1 -77t0.5 -96q0 -127 -1 -252.5t-9 -252.5h-27h-19t-19.5 0.5t-26.5 0.5l-6 -6v-18v-14t-0.5 -14.5t-1.5 -18.5l6 -7q32 1 58.5 1.5t55.5 0.5h45t45 -1l6 7
q-1 24 -2 52t-2 67.5t-1.5 94t-0.5 129.5q0 49 0.5 106t0.5 110t0.5 97.5t0.5 70.5q0 40 0.5 72.5t1.5 60t2 53.5t3 55l-5 6h-55h-45q-21 0 -45 0.5t-59 0.5z" />
    <glyph glyph-name="asciicircum" unicode="^" horiz-adv-x="729" 
d="M407 706h-77l-188 -370h96l128 260l124 -260h97z" />
    <glyph glyph-name="underscore" unicode="_" horiz-adv-x="500" 
d="M510 -75h-520v-50h520v50z" />
    <glyph glyph-name="grave" unicode="`" horiz-adv-x="292" 
d="M175 741q-20 0 -34 -0.5t-27 -0.5h-25h-30l-4 -8q18 -26 30 -43t22.5 -33t21.5 -33t26 -41l6 -6q12 1 19.5 1.5t14.5 0.5h15h21l5 8q-15 38 -24 61t-14.5 38t-8.5 26t-7 25z" />
    <glyph glyph-name="a" unicode="a" horiz-adv-x="521" 
d="M452 305q0 32 -1 68t-6 57q-8 29 -24.5 49t-39 32t-49 17t-54.5 5q-45 0 -88 -9t-85 -24l-6 -6q0 -8 -0.5 -14t-0.5 -14q0 -7 -0.5 -17.5t-1.5 -27.5l8 -5q32 14 67.5 26t84.5 12q38 0 56.5 -11.5t26.5 -25.5q7 -12 8 -27t1 -35l-17 -2q-68 -8 -122 -21t-91.5 -35.5
t-58 -57t-20.5 -84.5q0 -37 12.5 -68t35 -53t53.5 -34t69 -12q28 0 51 6t40.5 14t29.5 16.5t19 14.5l-1 -36l4 -6q17 1 28.5 1.5t21.5 1t21.5 1t29.5 0.5l5 5q-2 24 -3 41t-2 37t-1 47v75v99zM349 281v-167q-4 -4 -13 -11t-22.5 -14.5t-32 -13t-41.5 -5.5q-36 0 -55 13.5
t-28 30t-10.5 31t-1.5 16.5q0 33 16.5 53.5t43.5 33t62 19t73 12.5z" />
    <glyph glyph-name="b" unicode="b" 
d="M177 -2q32 -1 71 0t79.5 10t79 29.5t70.5 58.5q21 25 33.5 52t19 51.5t8 46t1.5 36.5q0 59 -17 105.5t-47 79t-70.5 49.5t-87.5 17q-28 0 -51 -5t-40 -12.5t-29.5 -15t-19.5 -12.5l4 303l-7 7l-105 -21l-5 -6q4 -38 6 -72t3 -74t1.5 -88.5t0.5 -114.5v-149
q0 -52 -0.5 -91.5t-1 -71t-1 -57t-1.5 -48.5l6 -6h22h18t17 -0.5t22 -0.5h21zM180 76q-1 57 -1.5 96t-0.5 73v73v95q17 11 44 24.5t64 13.5q26 0 52 -10t46 -31q22 -22 34 -51t12 -78q0 -48 -13.5 -86.5t-36.5 -62.5q-21 -23 -46 -34.5t-49 -17t-45 -5.5h-32z" />
    <glyph glyph-name="c" unicode="c" horiz-adv-x="458" 
d="M438 123q-7 -6 -18.5 -14.5t-27.5 -16.5t-37 -13.5t-46 -5.5q-29 0 -57 10t-50 31.5t-35 57t-13 86.5q0 48 12.5 84t34 60t50 36t59.5 12q30 0 58 -10.5t53 -28.5l8 4q1 22 2.5 37t4.5 42l-4 7q-20 8 -54 20t-83 12q-58 0 -104.5 -21t-79 -58.5t-50 -88.5t-17.5 -111
q0 -59 17.5 -107.5t50 -83.5t78.5 -54.5t103 -19.5q53 0 84.5 11.5t53.5 22.5l7 7q1 15 2 25t1.5 19t1.5 19t3 26z" />
    <glyph glyph-name="d" unicode="d" 
d="M400 771q2 -22 3.5 -45t3 -51.5t2 -64t0.5 -81.5q-20 2 -31 2h-27q-20 0 -46.5 -1.5t-56 -8.5t-60 -20.5t-57.5 -38.5q-16 -14 -31.5 -34t-28 -46.5t-20.5 -60t-8 -74.5q0 -57 16.5 -104.5t46 -81t71 -52.5t91.5 -19q27 0 49 5.5t38.5 13t29 16t21.5 15.5l-2 -37l7 -6
q17 1 29 1.5t22.5 1t21.5 0.5h29l5 7q-2 26 -3 54t-2.5 63t-2 79t-0.5 102q0 37 0.5 98.5t1 130.5t2 137.5t4.5 120.5l-7 6q-17 -4 -28.5 -6.5t-22.5 -4.5t-23.5 -4.5t-31.5 -5.5zM405 123q-5 -5 -14.5 -12t-23.5 -14.5t-32.5 -12.5t-41.5 -5q-39 0 -64 14.5t-39 30.5
q-16 19 -26.5 49.5t-10.5 73.5q0 33 6 59t15 45t19 32t18 21q18 17 38.5 26.5t40.5 14t37 5.5t29 1q16 0 26.5 -1t23.5 -2q0 -62 0.5 -102t0.5 -73t-0.5 -67t-1.5 -83z" />
    <glyph glyph-name="e" unicode="e" horiz-adv-x="542" 
d="M477 127q-10 -8 -27 -20.5t-45 -23.5q-42 -15 -87 -15q-12 0 -27.5 1.5t-33 7t-35.5 16.5t-33 29q-26 31 -31.5 65t-6.5 60q41 0 72 0.5t56 0.5h48h48t54.5 -0.5t68.5 -0.5l7 6v41q0 26 -5 55.5t-16.5 59t-32.5 55.5q-23 27 -63.5 48t-100.5 21q-49 0 -93 -17
t-77.5 -51.5t-53 -86.5t-19.5 -122q0 -65 18.5 -115t53.5 -84t84 -51.5t111 -17.5q33 0 60 4.5t47 11t33.5 13t19.5 9.5l6 7q1 15 1.5 25t1.5 19t2 19.5t3 25.5zM402 324q-35 0 -61.5 -0.5t-53.5 -0.5h-59h-77q4 37 17 63.5t31.5 43t40.5 24t43 7.5q34 0 64 -18t45 -60
q6 -17 7.5 -32.5t2.5 -26.5z" />
    <glyph glyph-name="f" unicode="f" horiz-adv-x="292" 
d="M194 7q-1 8 -1.5 16t-0.5 16q-5 100 -6.5 200t-1.5 200h25h19q10 0 21 -0.5t27 -0.5l6 6q0 12 0.5 20t1 15.5t1 15.5t1.5 20l-5 6q-4 0 -19.5 -0.5t-33.5 -0.5q-17 0 -31 -0.5t-15 -0.5v30v43q0 19 1.5 33t4.5 24.5t9 19.5q12 20 28 25t32 5q8 0 14 -1t13 -3l7 5
q2 23 3 37t4 35l-5 7q-10 1 -18.5 1.5t-19.5 0.5t-36 -2t-53 -12.5t-52.5 -34.5t-33.5 -67q-1 -7 -1.5 -13t-1 -15t-0.5 -21v-31l1 -66q-11 0 -26 0.5t-38 1.5l-6 -6q0 -13 -0.5 -22t-1 -16.5t-1 -15.5t-1.5 -18l6 -6h33t37 1q0 -17 0.5 -29.5t0.5 -25.5v-26v-34
q0 -80 -0.5 -160t-4.5 -159l5 -7q20 1 33 1.5t24 1t22 0.5h29z" />
    <glyph glyph-name="g" unicode="g" horiz-adv-x="521" 
d="M218 167q11 -2 21 -2.5t23 -0.5q47 0 83.5 14t61.5 37.5t38 55t13 66.5q0 29 -10 59t-37 53l84 -6l6 6q1 12 1.5 19t1 13t1 13.5t1.5 20.5l-5 6q-27 0 -46 -0.5t-35 -0.5t-32.5 0.5t-37.5 0.5l-25 1q-15 0 -29.5 0.5t-26.5 0.5q-21 0 -48.5 -2t-56 -12t-54.5 -29.5
t-44 -53.5q-11 -22 -16 -44.5t-5 -44.5q0 -46 23 -88t73 -62q-9 -15 -16.5 -26.5t-15 -22.5t-16 -23.5t-20.5 -29.5l2 -12q14 -7 22.5 -10.5t24.5 -10.5q-15 -12 -30.5 -25.5t-28.5 -31t-21.5 -39.5t-8.5 -49q0 -32 14.5 -60.5t43 -50t70.5 -34t98 -12.5q60 0 104 15.5
t72.5 41t42.5 57.5t14 64q0 41 -15 67.5t-35.5 43t-41 25t-30.5 11.5q-11 3 -37 10t-55 14.5t-54.5 13.5t-35.5 9zM356 341q0 -18 -4 -37.5t-15.5 -36t-31.5 -27t-51 -10.5q-30 0 -50.5 10.5t-33 26.5t-17.5 36t-5 38q0 50 28.5 82t77.5 32q28 0 47.5 -10t31.5 -26.5
t17.5 -37t5.5 -40.5zM263 6q24 -6 46 -13t39 -17.5t27 -26.5t10 -41q0 -18 -7.5 -34t-22.5 -29t-37.5 -20.5t-53.5 -7.5q-38 0 -63.5 10.5t-40.5 25.5t-21.5 32t-6.5 31q0 34 16.5 58.5t42.5 50.5z" />
    <glyph glyph-name="h" unicode="h" 
d="M519 7q-2 21 -2.5 35.5t-1 30t-1 35.5t-1.5 52l-1 47v117q-1 25 -1.5 41t-1 26.5t-1.5 17t-3 14.5q-8 31 -28 56t-54 39q-16 7 -33 9.5t-34 2.5q-32 0 -59 -6.5t-50 -16.5t-40.5 -20.5t-29.5 -18.5q0 81 0.5 161.5t5.5 161.5l-6 7q-17 -4 -29.5 -6.5t-24 -5t-24.5 -4.5
t-31 -5l-5 -6q1 -17 2 -32t2 -33t2 -41t2 -56q1 -63 1.5 -126t0.5 -126q0 -72 -0.5 -126t-1.5 -95.5t-1.5 -73t-1.5 -58.5l5 -7q18 1 30.5 1.5t24 1t23.5 1t29 0.5l5 6q-2 44 -3.5 84.5t-2.5 85t-1 95.5v117q25 18 58 37t76 19q38 0 60 -20.5t30 -55.5q4 -17 4.5 -34
t0.5 -34l1 -107v-79q0 -39 -1 -78l-1 -33l7 -7q17 1 28 1.5t21 1t21.5 1t29.5 0.5z" />
    <glyph glyph-name="i" unicode="i" horiz-adv-x="250" 
d="M185 7q-2 25 -3 46t-1.5 49.5t-1 71t-0.5 112.5q0 48 0.5 83.5t1.5 62.5t2 48t2 41l-10 6q-19 -4 -32 -6.5t-24.5 -5t-23.5 -4t-28 -4.5l-5 -7q3 -22 4.5 -42.5t3 -51t2 -75.5t0.5 -117q0 -42 -0.5 -72.5t-1.5 -54.5t-2 -43.5t-2 -39.5l5 -7q18 1 30 1.5t23 1t23.5 1
t32.5 0.5zM187 673q0 16 -0.5 27.5t-0.5 20.5q0 10 0.5 21t0.5 26l-6 6q-19 -2 -31.5 -3t-23.5 -2t-24 -2.5t-32 -2.5l-7 -6q1 -15 1.5 -27.5t0.5 -26.5v-20t-1 -20l6 -6q18 2 30.5 3t24 2t24.5 1.5t32 1.5z" />
    <glyph glyph-name="j" unicode="j" horiz-adv-x="250" 
d="M179 526q-18 -3 -30.5 -5.5t-24.5 -4.5t-25.5 -4t-31.5 -5l-6 -6q3 -32 5 -60.5t3.5 -68.5t2 -98.5t0.5 -149.5v-84q0 -31 -1 -59q-2 -67 -19.5 -100.5t-67.5 -44.5l-5 -8q7 -23 9.5 -34t7.5 -31l7 -4q12 3 33 9t44 18t44.5 32t36.5 51q15 33 17.5 71.5t1.5 97.5l-1 77
q0 96 0.5 158.5t1.5 106.5t2.5 75.5t3.5 64.5zM184 673q0 16 -0.5 27.5t-0.5 20.5q0 10 0.5 21t0.5 26l-6 6q-19 -2 -31.5 -3t-23.5 -2t-24 -2.5t-32 -2.5l-7 -6q1 -15 1.5 -27.5t0.5 -26.5v-20t-1 -20l6 -6q18 2 30.5 3t24 2t24.5 1.5t32 1.5z" />
    <glyph glyph-name="k" unicode="k" horiz-adv-x="500" 
d="M506 11q-36 49 -61 83.5t-47.5 66t-47 66t-59.5 85.5q28 33 46.5 54.5t36.5 42t39 44.5t54 61l-3 9q-41 -2 -64 -2t-46 -1l-9 -6q-40 -55 -82.5 -106.5t-85.5 -103.5v207q0 48 0.5 83.5t1 66t1.5 61t2 69.5l-7 6q-19 -4 -31.5 -6.5t-23.5 -4.5t-23 -4t-29 -5l-6 -7
q3 -35 4.5 -64.5t3 -65t2 -82.5t0.5 -116q1 -39 1 -79v-78q0 -55 -0.5 -97t-1 -75t-1 -59.5t-1.5 -50.5l6 -6q17 1 28.5 1.5t21.5 0.5q11 0 23 0.5t31 0.5l5 7q-1 14 -2 29t-1.5 34.5t-1.5 45t-1 60.5l-2 123q16 -23 42 -60t54 -78t55 -83t47 -75l8 -6q23 2 41 3t36 1h43z
" />
    <glyph glyph-name="l" unicode="l" horiz-adv-x="250" 
d="M184 7q-2 36 -3.5 70.5t-2.5 78t-1.5 101.5t-0.5 140q0 99 1 197t6 197l-6 7q-19 -4 -31.5 -6.5t-23.5 -5t-23.5 -4.5t-30.5 -5l-5 -6q8 -97 9 -203.5t1 -210.5q0 -72 -0.5 -126t-1.5 -95.5t-1.5 -73t-1.5 -58.5l5 -7q18 1 29.5 1.5t22.5 1t23 1t30 0.5z" />
    <glyph glyph-name="m" unicode="m" horiz-adv-x="896" 
d="M64 500q2 -17 4 -39.5t3.5 -56t2.5 -82.5t1 -119q0 -77 -1.5 -123.5t-2.5 -76.5l6 -6q18 1 29 1.5t21.5 1t21.5 0.5h32l6 7q-2 21 -3 42t-2 45.5t-1.5 55.5t-0.5 73v171q35 28 67 39.5t59 11.5q22 0 37 -7t24.5 -17.5t14.5 -23t8 -24.5q5 -20 6 -42t1 -60v-56t-1 -68
t-2 -73t-2 -71l6 -6q18 1 29 1.5t21.5 1t22.5 0.5h32l5 7q-2 26 -3 47.5t-2 44t-1 49.5v66v57v28q0 18 -0.5 36t-1.5 34t-2 24q42 33 75.5 42t52.5 9q42 0 61.5 -23t26.5 -55q4 -17 4.5 -39t0.5 -69q0 -61 -0.5 -126.5t-2.5 -128.5l6 -6q17 1 28.5 1.5t22 1t21.5 0.5h30l6 7
q-2 34 -3 58.5t-2 48.5t-1 53v72v85q0 32 -1 56t-5.5 43.5t-14 36t-27.5 33.5q-21 21 -50 30.5t-57 9.5q-35 0 -66 -8.5t-56 -20.5t-43 -24t-27 -19q-5 9 -14 21t-23.5 23.5t-37 19.5t-54.5 8q-29 0 -54.5 -6.5t-46.5 -16t-38 -21t-30 -20.5l3 51l-6 7q-22 -5 -45.5 -9.5
t-61.5 -10.5z" />
    <glyph glyph-name="n" unicode="n" 
d="M519 7q-1 14 -2 30.5t-1.5 39.5t-1.5 54.5t-2 75.5v117q-1 47 -3 73t-12 49q-17 41 -58 65q-20 11 -42 15t-41 4q-33 0 -61 -7t-50.5 -17t-38.5 -20.5t-26 -17.5l1 52l-7 7q-18 -3 -29.5 -5.5t-22.5 -4.5t-23 -4.5t-31 -5.5l-6 -7q2 -25 4 -54.5t4 -66.5t3 -84t1 -107
q0 -56 -1 -99t-2 -85l5 -7q18 1 30 1.5t22.5 1t22.5 1t30 0.5l6 6q-3 44 -4.5 84.5t-2.5 85t-1 95.5v117q10 8 23.5 17.5t30.5 18t36.5 14.5t42.5 6q5 0 17 -1t26 -8.5t27 -23t20 -43.5q2 -8 3 -16t2 -26.5t1 -51.5v-91v-74q0 -36 -1 -73q0 -8 -0.5 -16.5t-0.5 -16.5l7 -7
q17 1 28 1.5t21 1t21.5 1t29.5 0.5z" />
    <glyph glyph-name="o" unicode="o" 
d="M539 268q-2 53 -14 103t-47 90q-33 38 -80.5 55t-98.5 17q-38 0 -67.5 -7t-52.5 -17.5t-39.5 -22.5t-26.5 -23q-25 -25 -39 -54.5t-20.5 -58t-8 -52.5t-1.5 -38q0 -12 1 -36t8 -52.5t20.5 -59t39.5 -56.5q24 -25 67.5 -46t111.5 -21q53 0 96.5 14t76.5 47q49 49 65 121
q5 23 7 47t2 50zM430 264v-24q0 -15 -2.5 -33.5t-7 -38.5t-13.5 -37q-22 -41 -54 -54t-60 -13q-15 0 -30 3t-29 10q-30 15 -46 39.5t-23.5 51t-9 51t-1.5 39.5q0 32 5 71t25 70q13 21 29 32.5t32 17.5t29 7t20 1q42 0 67.5 -17t39.5 -40q9 -17 15 -36.5t9 -38.5t4 -35.5
t1 -25.5z" />
    <glyph glyph-name="p" unicode="p" 
d="M179 521l-7 6q-17 -3 -28.5 -5.5t-22.5 -5t-23.5 -4.5t-30.5 -5l-5 -6q4 -43 6.5 -79.5t4 -74.5t2 -82.5t0.5 -102.5q0 -45 0.5 -88.5t0.5 -88.5q0 -38 -0.5 -69.5t-1 -58.5t-1 -51t-1.5 -47l5 -6l105 3l6 6q-2 35 -3.5 60t-2 50t-1.5 55t-1 75q11 -1 21 -1.5t24 -0.5
q79 0 138 23t98 62.5t58.5 92t19.5 110.5q0 53 -16 98t-44.5 77.5t-68 51t-87.5 18.5q-29 0 -53 -6t-42 -15t-31 -18t-20 -15zM179 77q-1 44 -1.5 87.5t-0.5 88.5q0 38 0.5 76.5t1.5 77.5q17 12 45.5 27t69.5 15q60 0 97.5 -45t37.5 -123q0 -46 -14 -84t-40.5 -65.5
t-65.5 -42.5t-88 -15q-13 0 -22.5 1t-19.5 2z" />
    <glyph glyph-name="q" unicode="q" 
d="M515 522q-8 0 -28.5 0.5t-43 1t-42.5 1t-27 0.5q-34 0 -76 -3.5t-84 -18.5t-80 -45.5t-63 -84.5q-14 -30 -20.5 -63t-6.5 -67q0 -52 15.5 -98.5t44 -81t69.5 -55t92 -20.5q28 0 50.5 5.5t40.5 13t32 16t23 14.5q0 -45 0.5 -76.5t0 -61t-1.5 -62t-2 -78.5l6 -6l103 3l5 6
l-2 43q-3 79 -4 157t-1 156q0 100 1 199t6 199zM410 119q-14 -11 -41.5 -26t-73.5 -15q-38 0 -64.5 14.5t-43 38t-24.5 53.5t-8 61q0 54 17.5 91.5t40.5 58.5q19 18 42 27.5t45 14t41 5.5t31 1h38v-324z" />
    <glyph glyph-name="r" unicode="r" horiz-adv-x="333" 
d="M310 421q3 16 4.5 27.5t3.5 22t4.5 22.5t6.5 30l-4 6q-6 2 -12 2.5t-16 0.5q-32 0 -53.5 -10.5t-35 -25.5t-21.5 -31.5t-12 -28.5l5 85l-6 6q-32 -6 -53.5 -10.5t-50.5 -9.5l-6 -7q2 -22 4 -42.5t3 -48.5t1.5 -68t0.5 -100q0 -70 -0.5 -125.5t-1.5 -112.5l5 -6
q18 1 30 1.5t23 1t23 0.5h30l5 7q-2 21 -3 43.5t-2 49.5t-1.5 60t-0.5 75q0 39 0.5 67.5t4.5 49t12.5 35t23.5 25.5q7 5 17.5 9t24.5 4q13 0 22.5 -3t17.5 -6z" />
    <glyph glyph-name="s" unicode="s" horiz-adv-x="437" 
d="M245 315q-47 14 -75 28.5t-28 46.5q0 23 16 38.5t39 21.5q11 3 21.5 4t21.5 1q49 0 79.5 -14t49.5 -26l9 4q1 14 2 23t1.5 17t1.5 16.5t3 22.5l-5 7q-14 5 -51 16.5t-93 11.5q-42 0 -79 -9.5t-64 -29t-43 -48t-16 -67.5t14.5 -64.5t35.5 -42t43.5 -25t37.5 -13.5l32 -11
q46 -15 75 -31t29 -50q0 -12 -6 -25t-18.5 -24t-33 -18.5t-50.5 -7.5q-29 0 -51.5 5.5t-40 13t-29 16t-18.5 13.5l-10 -3q-1 -15 -1.5 -24.5t-1 -18t-1.5 -17.5t-2 -24l5 -9l15 -6q29 -11 62.5 -18t74.5 -7q13 0 32.5 1t41 6t44 14.5t42.5 26.5q31 25 43.5 56.5t12.5 61.5
q0 40 -15 66.5t-35.5 43.5t-43 26t-37.5 14z" />
    <glyph glyph-name="t" unicode="t" horiz-adv-x="313" 
d="M292 85q-8 -3 -20 -6t-28 -3q-19 0 -30.5 4.5t-18 16t-8.5 30t-2 45.5v17v25t-0.5 24.5t-0.5 16.5l2 186h32q13 0 23.5 -0.5t22.5 -1t31 -0.5l5 6v22t0.5 16.5l1 15t1.5 17.5l-5 6q-21 -1 -35.5 -1.5t-26.5 -0.5q-11 0 -22 -0.5t-27 -0.5v45t0.5 33.5t1.5 32t2 41.5l-7 5
q-17 -5 -29 -8.5t-22.5 -6.5t-22 -6t-28.5 -7l-5 -7l3 -57v-32t1 -32q-25 -1 -38 -0.5t-30 0.5l-6 -6v-21v-16q0 -7 -0.5 -15t-1.5 -20l4 -6q13 0 21.5 0.5t15 1t14.5 0.5h21l-2 -220q0 -44 0.5 -72.5t2 -46.5t5 -29.5t10.5 -22.5q12 -20 28.5 -30.5t33.5 -15t32 -5.5t24 -1
q28 0 43.5 2.5t31.5 6.5l5 6q0 11 0.5 18.5t1 14.5t1 15.5t1.5 20.5z" />
    <glyph glyph-name="u" unicode="u" 
d="M506 524q-17 -1 -29 -1.5t-22.5 -1t-22.5 -1t-29 -0.5l-6 -7q2 -24 3.5 -44t2 -44.5t1 -58t0.5 -85.5v-81q0 -36 -1 -77q-9 -7 -21.5 -16t-28 -17t-34.5 -13.5t-41 -5.5q-38 0 -59 14.5t-30.5 35.5t-12 43.5t-2.5 38.5q-1 36 -0.5 55.5t0.5 39.5l4 219l-6 7
q-18 -2 -29.5 -2.5t-22 -1t-22 -1t-29.5 -0.5l-5 -7q1 -20 1.5 -36t1 -37.5t1 -53.5t1.5 -86v-62q0 -29 1.5 -59t7.5 -58t19 -53.5t37 -44.5t54.5 -26.5t59.5 -7.5q31 0 56 6.5t45 16t34 19t22 15.5l-1 -42l6 -6q17 1 28.5 1.5t22 1t22 1t29.5 0.5l4 6q-1 11 -1.5 21
t-0.5 21q-2 32 -3.5 89.5t-1.5 150.5q0 61 0.5 116t2.5 112z" />
    <glyph glyph-name="v" unicode="v" horiz-adv-x="458" 
d="M296 7q39 129 80 255.5t87 253.5l-5 7q-15 0 -24.5 -0.5t-19.5 -0.5h-21t-29 1l-7 -5q-3 -13 -6.5 -28t-9 -36.5t-14 -52t-20.5 -73.5q-4 -15 -14.5 -50.5t-21.5 -75t-21 -75t-14 -48.5q-31 111 -61 221t-58 222l-8 5q-18 -2 -30.5 -3t-24 -2t-24 -2t-30.5 -2l-4 -8
q45 -126 84 -252t76 -254l6 -7q22 1 36.5 1.5t28 1t28 1t35.5 0.5z" />
    <glyph glyph-name="w" unicode="w" horiz-adv-x="792" 
d="M649 7q10 43 24 93t28.5 101.5t29.5 101.5t28 92t23 73.5t15 45.5l-6 6q-11 0 -22.5 -0.5t-22.5 -0.5q-12 0 -24.5 0.5t-24.5 0.5l-7 -6q-2 -14 -4 -24t-4.5 -21.5t-6.5 -27.5t-10 -41l-24 -105l-56 -233l-53 212q-7 28 -14.5 60t-15 63.5t-14.5 61.5t-12 56l-6 7
q-25 -1 -42 -1.5t-32 -1t-31 -0.5h-37l-7 -7q-2 -12 -4 -22.5t-6 -28.5t-10.5 -47.5t-17.5 -79.5l-65 -269l-48 206q-16 69 -26 112t-16 69.5t-9 41t-5 26.5l-6 6q-18 -2 -30.5 -3t-24 -2t-24 -1.5t-30.5 -1.5l-4 -7q8 -25 24.5 -82t37 -129t41 -150.5t37.5 -145.5l6 -7
q24 1 38.5 1.5t28 1t29.5 1t42 0.5l6 6q3 16 7 33t9.5 40t13.5 54.5t19 76.5l59 246l58 -240q13 -54 26 -110.5t22 -102.5l7 -7q23 1 37.5 1.5t28 1t29.5 1t41 0.5z" />
    <glyph glyph-name="x" unicode="x" horiz-adv-x="458" 
d="M457 10q-8 12 -23 35t-33 51t-36.5 57.5t-34.5 55t-27 43t-14 22.5q12 18 33.5 51t45 69t45.5 68.5t35 50.5l-3 9q-15 0 -25.5 -0.5t-21.5 -0.5h-23h-31l-8 -6q-9 -19 -16.5 -33.5t-17 -31t-22.5 -39t-34 -57.5q-15 24 -26 44t-20.5 39t-19.5 39.5t-22 45.5l-5 4
q-18 -2 -31 -3l-26 -2t-26.5 -2t-32.5 -2l-3 -9q38 -60 75 -120t74 -122q-18 -27 -43.5 -64.5t-51.5 -75t-49.5 -69.5t-36.5 -50l3 -8q19 1 33 1.5t26 0.5t24.5 -0.5t30.5 -0.5l7 5q4 7 16.5 30t28 51t31.5 56t27 46q26 -47 52 -94.5t50 -95.5l6 -5q22 1 38 2.5t28.5 2.5
t24 1.5t24.5 1.5z" />
    <glyph glyph-name="y" unicode="y" horiz-adv-x="458" 
d="M462 523q-34 -1 -56 -1h-41l-7 -6q-12 -43 -29 -99.5t-33 -108.5l-57 -176l-63 191q-8 24 -15 45.5t-14 44t-15 48t-18 59.5l-6 6q-19 -2 -32 -3.5t-24 -2.5t-23.5 -2t-31.5 -2l-4 -9q11 -26 29.5 -73t39.5 -103.5t43 -115.5t40 -108t29 -81.5t11 -35.5q-2 -6 -3 -8
q-8 -26 -19.5 -50.5t-22.5 -49.5q-13 -29 -24.5 -58t-25.5 -57l-4 -7l4 -7q18 1 29.5 1.5t22.5 0.5t23 0.5t31 0.5l9 8q16 70 37.5 138t44.5 137q6 17 18 49.5t27 73.5t32 88t35 94t35 91t31 79z" />
    <glyph glyph-name="z" unicode="z" horiz-adv-x="437" 
d="M410 5q1 22 2.5 36.5t4.5 37.5l-5 6q-51 -2 -113 -3.5t-127 -2.5q7 13 21.5 40t34 63t43 79t48 87t49.5 87t47 79l-5 8q-65 -1 -106 -1.5t-76.5 -1t-75.5 -0.5h-103l-6 -6q-1 -11 -1.5 -18t-1.5 -14.5t-2 -16t-2 -20.5l5 -6q24 1 43 1.5t41.5 1t54 1t81.5 0.5
q-19 -36 -49.5 -91t-65 -116t-70 -121.5t-63.5 -107.5l4 -9q23 1 39 1.5t35 0.5h46h71h40t59 0.5t58 0.5h39z" />
    <glyph glyph-name="braceleft" unicode="{" horiz-adv-x="354" 
d="M61 249q18 -5 32.5 -13t26.5 -35q8 -19 10 -43.5t2 -69.5v-97q0 -32 1.5 -56.5t5 -44t11 -35t19.5 -28.5q13 -15 27 -23t32.5 -12.5t43 -6.5t60.5 -3v50q-20 5 -43.5 14.5t-39.5 37.5q-11 18 -13.5 43t-3.5 72v47v45q0 23 -1 46q-1 37 -8 61t-18 39t-26.5 23t-33.5 14
q18 6 33.5 14t26.5 23t18 38.5t8 61.5q1 23 1 45v46v46q1 47 3.5 72t13.5 43q16 28 39.5 37.5t43.5 14.5v50q-36 -2 -60.5 -3.5t-43 -6t-32.5 -12.5t-27 -23q-12 -14 -19.5 -29.5t-11 -35t-5 -44t-1.5 -55.5v-96q0 -45 -2 -69.5t-10 -43.5q-12 -27 -26.5 -35t-32.5 -13v-50z
" />
    <glyph glyph-name="bar" unicode="|" horiz-adv-x="229" 
d="M154 750h-80v-1000h80v1000z" />
    <glyph glyph-name="braceright" unicode="}" horiz-adv-x="354" 
d="M293 298q-18 5 -32.5 13t-26.5 35q-8 19 -10 43.5t-2 69.5v97q0 31 -1.5 55.5t-5 44t-11 35t-19.5 29.5q-14 15 -27.5 23t-32 12.5t-43 6t-60.5 3.5v-50q20 -5 43.5 -14.5t39.5 -37.5q11 -18 13.5 -43t3.5 -72v-47v-46q0 -22 1 -45q1 -38 7.5 -61.5t18 -38.5t27 -23
t33.5 -14q-18 -6 -33.5 -14t-27 -23t-18 -39t-7.5 -61q-1 -23 -1 -46v-45v-46q-1 -47 -3.5 -72t-13.5 -43q-16 -28 -39.5 -37.5t-43.5 -14.5v-50q36 1 60.5 3t43 6.5t32 12.5t27.5 23q12 13 19.5 28.5t11 35t5 44t1.5 56.5v96q0 45 2 69.5t10 43.5q12 27 26.5 35t32.5 13v50
z" />
    <glyph glyph-name="asciitilde" unicode="~" horiz-adv-x="729" 
d="M567 366q-7 -9 -17 -20t-22.5 -20.5t-27 -15.5t-29.5 -6q-16 0 -31.5 5.5t-38.5 15.5l-33 15q-27 13 -54 23.5t-57 10.5q-29 0 -51 -10t-38 -23.5t-27 -28t-17 -23.5l40 -71q16 19 27 31.5t21.5 20.5t21 11.5t25.5 3.5q20 0 40.5 -7.5t39.5 -16.5l28 -14
q33 -15 54.5 -23.5t46.5 -8.5q24 0 45 8t38.5 20t31 26t22.5 26z" />
    <glyph glyph-name="exclamdown" unicode="&#xa1;" horiz-adv-x="271" 
d="M66 541q0 -39 -1 -85.5t-3.5 -97t-5 -101.5t-5.5 -98t-6 -87t-5 -68l6 -7q22 1 36.5 1.5t26.5 1t24 0.5h32l6 7q-3 41 -5 90t-3.5 101t-3 103.5t-2 97.5t-0.5 83v62l-6 7q-15 -1 -24 -1.5t-16.5 -1t-16.5 -1t-23 -0.5zM56 643q18 1 30 1.5t22.5 1t23 1t32.5 0.5l8 9
q-1 13 -1 25v27v26t1 27l-7 7q-17 -1 -29.5 -1.5t-24.5 -1t-25.5 -1t-31.5 -1.5l-7 -8q0 -16 0.5 -27.5t0.5 -22.5t-0.5 -23.5t-0.5 -29.5z" />
    <glyph glyph-name="cent" unicode="&#xa2;" horiz-adv-x="479" 
d="M438 119q-8 -6 -20 -14.5t-28.5 -17t-37.5 -14.5t-46 -6q-13 0 -24 1.5t-19 3.5l95 378q25 -8 37.5 -15.5t28.5 -22.5l10 4q2 14 3.5 23.5t2.5 18t2.5 17t3.5 20.5l-3 5q-17 9 -30 14t-37 12q3 10 5 17.5t4 15.5t5 18.5t7 26.5l-5 6q-17 -1 -26 -1q-8 0 -28 1l-6 -6
q-2 -13 -3.5 -21t-2.5 -15t-2.5 -14.5t-4.5 -19.5q-8 0 -14 0.5t-14 0.5q-47 0 -91.5 -18t-79 -53t-55.5 -87t-21 -120q0 -27 5.5 -63.5t21 -72.5t44.5 -67.5t76 -47.5q-4 -14 -7 -24t-6 -19.5t-6.5 -21t-8.5 -27.5l4 -6h16h11q6 0 12 -0.5t16 -0.5l7 5q2 13 4 22.5t3.5 18
t3.5 17.5t5 23q11 -2 20.5 -3.5t26.5 -1.5q56 0 89.5 12.5t52.5 21.5l6 7q0 14 0.5 24t1.5 19t2 19t3 24zM212 93q-7 6 -18 17.5t-21.5 31t-18 47t-7.5 66.5q0 5 0.5 21.5t5 39t14 47.5t26.5 46t43.5 35t64.5 14z" />
    <glyph glyph-name="sterling" unicode="&#xa3;" horiz-adv-x="479" 
d="M454 84q-20 -2 -35.5 -2.5t-31.5 -1t-36 -0.5h-49h-31t-50 -0.5t-48 -0.5h-25q13 40 25 95t11 135h78h50t38.5 -0.5t44.5 -0.5l6 7q1 11 1.5 18t1 13t1 13t1.5 19l-5 5q-36 -1 -61 -2t-47.5 -1.5t-48.5 -0.5h-61l-1 38q-1 24 -1 30v14q0 30 5 57t19.5 47t40 32t67.5 12
q18 0 53 -6t77 -29l8 4q1 12 1.5 21t1 17t1.5 16.5t3 20.5l-6 8q-42 17 -83.5 22.5t-70.5 5.5q-46 0 -90 -12t-77 -44q-20 -20 -31.5 -43t-16.5 -45t-6 -41.5t-1 -32.5q0 -6 0.5 -19t1 -27.5t1 -27.5t0.5 -18l-64 2l-5 -7q-1 -17 -1.5 -28t-0.5 -33l6 -6l66 2
q0 -59 -5.5 -106t-13 -84.5t-16.5 -65.5t-16 -49l4 -7q24 1 60 2t98 1q14 0 47.5 -0.5t70.5 -0.5t70 -0.5t46 -0.5h27l6 6q0 13 0.5 21.5t0.5 16.5t0.5 16t1.5 19z" />
    <glyph glyph-name="currency" unicode="&#xa4;" horiz-adv-x="667" 
d="M625 570l-61 61l-76 -76q-16 10 -31 19.5t-33 16.5t-39.5 11t-49.5 4q-31 0 -55.5 -5t-43.5 -13t-33 -17t-25 -16l-75 75l-60 -60l75 -75q-6 -9 -15 -23t-17 -32.5t-13.5 -43t-5.5 -55.5q0 -30 4 -52t11 -40t16.5 -33.5t19.5 -31.5l-76 -76l60 -60l76 76
q15 -10 30.5 -19.5t33.5 -16.5t40.5 -11t51.5 -4q28 0 49 4t39 10.5t33.5 15.5t31.5 20l76 -77l61 60l-76 77q10 16 19.5 31.5t16.5 33.5t11 41t4 53q0 28 -4 49t-11 39t-16 33.5t-19 31.5zM519 340q0 -43 -15.5 -78t-41 -59.5t-59 -38t-70.5 -13.5q-36 0 -69.5 13.5
t-59.5 38t-41.5 59.5t-15.5 79q0 40 14.5 74.5t40 59.5t60 39t73.5 14q34 0 67.5 -13t59.5 -37t41.5 -59t15.5 -79z" />
    <glyph glyph-name="yen" unicode="&#xa5;" horiz-adv-x="542" 
d="M462 178q1 18 2 29.5t3 30.5l-6 6q-12 -1 -22.5 -1.5t-29.5 -0.5h-83q-1 11 -0.5 21t0.5 23q5 9 9.5 19t11.5 21h46h29t18 -0.5t16 -0.5l6 6q1 18 2 29.5t3 30.5l-6 5q-14 -1 -20 -1h-16h-40q13 24 23.5 43t20.5 36.5t20 35.5t23 40.5t30 52t40 69.5l-6 8
q-16 -1 -27.5 -1.5t-21.5 -1t-21 -0.5h-26l-8 -6q-12 -27 -31 -65.5t-40.5 -80t-43 -81.5t-39.5 -71q-16 31 -31.5 61.5t-33.5 65.5t-39.5 78t-48.5 100l-7 5q-14 -2 -28.5 -2.5t-28.5 -1.5t-28 -1.5t-28 -1.5l-5 -9q19 -33 33 -57t25.5 -43.5t21 -37t20 -36.5t23 -42.5
t29.5 -55.5q-29 0 -41 0.5t-24 0.5l-7 -7q0 -9 -0.5 -15t-1 -11.5t-1.5 -12.5t-2 -18l6 -7q15 0 41 0.5t67 0.5q1 -3 5 -10t8 -14.5t7.5 -14t4.5 -9.5q1 -14 1 -21v-15h-37t-40.5 0.5t-34.5 0.5h-16l-7 -7q0 -9 -0.5 -15t-1 -11.5t-1.5 -12.5t-2 -17l6 -8q10 0 38.5 0.5
t94.5 0.5v-31v-45t-0.5 -33t-1 -28.5t-1.5 -30.5l6 -7q17 1 29 1.5t23 0.5h24h31l6 7q-1 21 -1.5 36t-1 32.5t-1 40t-0.5 57.5h76h15h11q6 0 12 -0.5t16 -0.5z" />
    <glyph glyph-name="brokenbar" unicode="&#xa6;" horiz-adv-x="229" 
d="M75 -191h80v381h-80v-381zM155 308v381h-80v-381h80z" />
    <glyph glyph-name="section" unicode="&#xa7;" horiz-adv-x="500" 
d="M276 493q-28 14 -48.5 25t-34 22t-20.5 23t-7 27q0 12 5.5 24.5t18 23t33 17t50.5 6.5q36 0 71 -10t67 -29l7 4q1 13 1.5 22.5t1 17.5t1.5 16t2 19l-5 8q-45 17 -83.5 23.5t-69.5 6.5q-47 0 -82.5 -11t-58.5 -28q-7 -5 -16.5 -14.5t-18.5 -24t-15.5 -34.5t-6.5 -45
q0 -23 5.5 -40.5t14 -31t19 -23.5t20.5 -19q-9 -6 -26 -16.5t-33.5 -28.5t-28.5 -44t-12 -62q0 -76 65 -126q14 -11 30 -19.5t47 -24.5l53 -26q18 -9 28.5 -14t17 -8t11 -5.5t9.5 -5.5q8 -4 18 -10.5t19 -15.5t15 -21.5t6 -28.5q0 -35 -32.5 -56t-83.5 -21q-32 0 -57.5 7
t-45.5 16t-34 18.5t-21 14.5l-9 -4v-21q0 -9 -0.5 -17t-1 -17.5t-1.5 -23.5l4 -7q40 -21 84 -31.5t89 -10.5q51 0 87 10.5t59.5 26.5t36.5 35.5t19.5 37.5t8 32.5t1.5 19.5q0 27 -6.5 46.5t-17 34.5t-23 26t-23.5 20q9 5 25.5 16t32 29.5t27.5 44.5t12 61q0 36 -13.5 62
t-34.5 45t-45 32.5t-45 23.5zM223 232q-29 15 -49.5 27t-33.5 23t-19 24t-6 31q0 19 7.5 33.5t18 25.5t23 19t22.5 14q11 -7 17 -10.5t17 -8.5l41 -21q31 -16 54.5 -28.5t39 -25t23 -27t7.5 -33.5q0 -18 -8 -32.5t-19 -26t-23 -20t-20 -12.5z" />
    <glyph glyph-name="dieresis" unicode="&#xa8;" horiz-adv-x="292" 
d="M300 725q-18 -1 -30.5 -1.5t-23.5 -0.5t-22.5 0.5t-27.5 0.5l-8 -7q0 -15 0.5 -25.5t0.5 -21.5q0 -10 -0.5 -22.5t-0.5 -29.5l6 -8q18 0 30.5 0.5t23.5 0.5h24h29l7 8q-1 18 -1.5 30.5t-0.5 23.5t0.5 21t0.5 24zM95 725q-17 -1 -28 -1.5t-22 -0.5h-22h-31l-8 -9
q1 -17 1 -29v-22v-21t-1 -26l6 -8q17 1 28 1.5t22 0.5h23h33l6 8q0 13 -0.5 23.5t-0.5 21.5t0.5 23.5t0.5 30.5z" />
    <glyph glyph-name="copyright" unicode="&#xa9;" horiz-adv-x="833" 
d="M773 351q0 76 -27.5 141.5t-75 113.5t-112.5 75.5t-140 27.5q-74 0 -139 -27.5t-113.5 -75.5t-76.5 -113t-28 -140q0 -79 29.5 -144.5t79 -112.5t113.5 -73t133 -26q50 0 95 12.5t83.5 34t69.5 50.5t52 62q26 42 41.5 92t15.5 103zM741 352q-1 -72 -27.5 -131.5
t-70.5 -102t-102 -66t-122 -23.5q-70 0 -129.5 26t-103 70t-68.5 102.5t-25 124.5q0 69 25.5 128t70 103t103.5 69t127 25q71 0 130 -26.5t102 -71t66.5 -103.5t23.5 -124zM558 258q-8 -9 -19.5 -20.5t-27.5 -21t-37.5 -16.5t-49.5 -7q-30 0 -58.5 11t-50.5 32t-35.5 51
t-13.5 67t12.5 67t34.5 51.5t50.5 33t61.5 11.5q27 0 47.5 -7t37 -17.5t28 -22.5t20.5 -21l55 53q-9 10 -24 25.5t-38 29.5t-54.5 24.5t-73.5 10.5q-52 0 -95 -19t-74 -51t-48.5 -75.5t-17.5 -92.5q0 -51 17.5 -94.5t49 -75t74.5 -49t94 -17.5q42 0 73.5 10.5t54.5 24.5
t38.5 29.5t24.5 26.5z" />
    <glyph glyph-name="ordfeminine" unicode="&#xaa;" horiz-adv-x="333" 
d="M293 562q0 33 -0.5 50.5t-4.5 30.5q-9 35 -38 52t-73 17q-29 0 -57 -5.5t-55 -16.5l-6 -5q0 -2 -0.5 -9.5t-0.5 -16.5q0 -8 -0.5 -15.5t-0.5 -9.5l9 -6q30 14 52 19.5t44 5.5q21 0 32 -5t16.5 -13t6.5 -17.5t1 -19.5l-7 -1q-42 -5 -77 -13.5t-60 -23t-39 -37.5t-14 -57
q0 -48 31 -79.5t82 -31.5q30 0 48 8.5t36 19.5v-15l5 -7q13 1 34 1.5t34 0.5l6 6q-3 29 -3.5 60t-0.5 70v63zM219 542v-100q-3 -3 -20 -14.5t-46 -11.5q-21 0 -32.5 7.5t-16.5 17.5t-6 19t-1 11q0 19 9.5 31.5t26 20t38.5 11.5t47 8h1z" />
    <glyph glyph-name="guillemotleft" unicode="&#xab;" horiz-adv-x="437" 
d="M129 465q-18 -41 -42.5 -88.5t-56.5 -101.5l-1 -10q2 -2 9.5 -15t16.5 -28.5t17 -30.5t11 -20q3 -6 6 -11.5t8 -15t12.5 -24.5t19.5 -40l6 -5q12 0 21 0.5t17 0.5h19h26l5 8q-4 6 -17.5 29t-30 52.5l-33 59t-25.5 49.5q16 31 26 49.5t24 43.5q3 6 10.5 19.5t15.5 28.5
t15 28t10 18l-4 8h-40t-38 1zM287 465q-12 -25 -19 -39.5t-11 -23.5t-6.5 -13.5t-4.5 -9.5q-3 -6 -10.5 -20.5t-16 -30t-15.5 -29.5t-10 -19v-10q23 -39 39 -67t27.5 -49t20.5 -38t17 -33l6 -5h79l5 8q-3 5 -10 18t-15 27t-15 26.5t-10 17.5q-14 24 -22 38.5t-13.5 25
t-10.5 19.5t-11 21q7 15 19 38t26 48.5t28.5 51t27.5 45.5l-4 7h-41q-11 0 -21.5 0.5t-21.5 0.5z" />
    <glyph glyph-name="logicalnot" unicode="&#xac;" horiz-adv-x="667" 
d="M587 0h80v332h-667v-79h587v-253z" />
    <glyph glyph-name="registered" unicode="&#xae;" horiz-adv-x="833" 
d="M266 580v-449h80v201h28q22 0 38.5 -2t29 -9t20.5 -21t12 -38q1 -4 3 -13.5t3.5 -21t3 -21t1.5 -13.5q5 -29 10.5 -43t8.5 -19h92q-8 15 -13 28t-8.5 28t-6.5 33t-7 44q-4 23 -9.5 38t-13 25.5t-18 17.5t-24.5 13q44 11 68.5 37.5t24.5 69.5q0 32 -18 61.5t-54 42.5
q-21 8 -45.5 9.5t-59.5 1.5h-146zM347 518h51h32q13 0 21.5 -0.5t14 -2t11.5 -3.5q19 -9 25.5 -25t6.5 -28q0 -24 -10.5 -37t-25.5 -18.5t-31.5 -6.5t-28.5 -1h-66v122zM773 351q0 73 -26.5 138t-74 114t-113 77.5t-143.5 28.5q-72 0 -136.5 -27t-113 -74.5t-77 -113
t-28.5 -142.5q0 -79 29.5 -144t78.5 -112t113.5 -73t133.5 -26q75 0 140 27.5t113 75.5t76 112.5t28 138.5zM741 351q0 -67 -25 -126t-68.5 -102.5t-102.5 -68.5t-128 -25q-67 0 -126 25t-103 68.5t-69.5 102.5t-25.5 127q0 67 25 126t69 103.5t103 70t128 25.5t128.5 -26
t103 -70.5t67.5 -103.5t24 -126z" />
    <glyph glyph-name="macron" unicode="&#xaf;" horiz-adv-x="292" 
d="M299 707q-14 -1 -24.5 -1.5t-22 -1t-25.5 -0.5h-32h-97t-97 2l-7 -7q0 -11 -1 -19t-1.5 -15t-1.5 -15t-2 -18l6 -7q48 0 96 0.5t96 0.5h34q15 0 26.5 -0.5t22.5 -0.5h23l7 5q0 11 0.5 19t1.5 15.5t1.5 16t2.5 20.5z" />
    <glyph glyph-name="macron" unicode="&#x2c9;" horiz-adv-x="292" 
d="M299 707q-14 -1 -24.5 -1.5t-22 -1t-25.5 -0.5h-32h-97t-97 2l-7 -7q0 -11 -1 -19t-1.5 -15t-1.5 -15t-2 -18l6 -7q48 0 96 0.5t96 0.5h34q15 0 26.5 -0.5t22.5 -0.5h23l7 5q0 11 0.5 19t1.5 15.5t1.5 16t2.5 20.5z" />
    <glyph glyph-name="degree" unicode="&#xb0;" horiz-adv-x="354" 
d="M16 595q0 -34 12.5 -63.5t34.5 -51.5t51.5 -34.5t63.5 -12.5q33 0 62.5 12.5t51.5 34.5t34.5 51.5t12.5 63.5q0 33 -12.5 62.5t-34.5 51.5t-51.5 34.5t-62.5 12.5q-34 0 -63.5 -12.5t-51.5 -34.5t-34.5 -51.5t-12.5 -62.5zM98 595q0 32 23.5 55.5t56.5 23.5
q32 0 55.5 -23.5t23.5 -55.5q0 -33 -23.5 -56.5t-55.5 -23.5q-33 0 -56.5 23.5t-23.5 56.5z" />
    <glyph glyph-name="plusminus" unicode="&#xb1;" horiz-adv-x="667" 
d="M374 377h251v79h-251v242h-79v-242h-254v-79h254v-242h79v242zM625 79h-584v-79h584v79z" />
    <glyph glyph-name="twosuperior" unicode="&#xb2;" horiz-adv-x="396" 
d="M349 299q-33 -1 -54 -1.5t-40 -1t-39 -0.5h-51q43 43 75.5 77t54.5 63t33.5 56.5t11.5 56.5q0 26 -10 50.5t-30 43t-50 30t-69 11.5q-55 0 -87.5 -15.5t-45.5 -24.5l-5 -6q0 -17 -0.5 -37.5t-0.5 -27.5l11 -5q6 6 16.5 15t24.5 17.5t33 14.5t43 6q46 0 68.5 -24.5
t22.5 -54.5q0 -18 -7.5 -36t-19 -34.5t-24.5 -31t-24 -26.5q-56 -60 -95 -100.5t-67 -68.5l6 -12q14 0 39 0.5t56 0.5t64.5 0.5t64.5 0.5h56h38l6 6v25t1 26z" />
    <glyph glyph-name="threesuperior" unicode="&#xb3;" horiz-adv-x="396" 
d="M338 679q-17 0 -33.5 -0.5t-46.5 -0.5h-199l-6 -7v-25q0 -8 -2 -25l6 -6q29 1 49.5 1.5t38.5 0.5h37h45q-10 -15 -26.5 -38t-34 -47t-34 -45t-25.5 -33l8 -9q12 4 24 6.5t32 2.5q21 0 39.5 -5t32.5 -15t22 -25.5t8 -36.5q0 -38 -30 -62t-78 -24q-45 0 -71 15t-38 25
l-10 -5q-1 -9 -1.5 -15.5t-0.5 -12.5t-0.5 -13t-1.5 -17l5 -6q10 -6 38 -17t82 -11q51 0 86.5 14t57.5 35.5t32 48t10 50.5q0 19 -6.5 41t-21 40.5t-38 31.5t-57.5 16q6 10 22.5 33.5t34.5 49.5t34 49.5t22 32.5z" />
    <glyph glyph-name="acute" unicode="&#xb4;" horiz-adv-x="292" 
d="M235 742q-14 -1 -29 -1h-28h-28t-31 1l-6 -5q-17 -49 -35 -92t-26 -61l4 -7h39q14 0 34 -1l7 4q17 27 28 45t21.5 34t23 33t30.5 42z" />
    <glyph glyph-name="mu" unicode="&#xb5;" 
d="M172 524q-18 -2 -29.5 -2.5t-22 -1t-22 -1t-29.5 -0.5l-5 -7q2 -29 3 -70t2 -88.5t1.5 -98t0.5 -99.5v-91v-75q0 -42 -0.5 -76t-1 -61.5t-1 -50.5t-1.5 -43l5 -6l105 3l6 6q-2 36 -3.5 61t-2 53.5t-1 68.5t-1.5 105q5 -8 13.5 -18.5t22 -20.5t33 -16.5t46.5 -6.5
q26 0 45.5 7t33 17t22.5 20.5t14 17.5v-47l6 -6q17 1 28.5 1.5t21.5 0.5t21.5 0.5t29.5 0.5l5 7l-3 42q-1 13 -1 38q0 26 -0.5 57t-1 63.5t-1 61t-0.5 49.5v29q0 48 1 89t2 81l-6 7q-17 -1 -29 -1.5t-22.5 -1t-22.5 -1t-29 -0.5l-6 -7q3 -45 5 -89t2 -89v-141
q-1 -9 -3.5 -29.5t-14 -41.5t-34 -37t-63.5 -16q-7 0 -20.5 1t-29 7.5t-30.5 20.5t-25 39q-6 15 -9 37t-3 66q0 6 0.5 39.5t1 77.5t1.5 88t1 71z" />
    <glyph glyph-name="mu" unicode="&#x3bc;" 
d="M172 524q-18 -2 -29.5 -2.5t-22 -1t-22 -1t-29.5 -0.5l-5 -7q2 -29 3 -70t2 -88.5t1.5 -98t0.5 -99.5v-91v-75q0 -42 -0.5 -76t-1 -61.5t-1 -50.5t-1.5 -43l5 -6l105 3l6 6q-2 36 -3.5 61t-2 53.5t-1 68.5t-1.5 105q5 -8 13.5 -18.5t22 -20.5t33 -16.5t46.5 -6.5
q26 0 45.5 7t33 17t22.5 20.5t14 17.5v-47l6 -6q17 1 28.5 1.5t21.5 0.5t21.5 0.5t29.5 0.5l5 7l-3 42q-1 13 -1 38q0 26 -0.5 57t-1 63.5t-1 61t-0.5 49.5v29q0 48 1 89t2 81l-6 7q-17 -1 -29 -1.5t-22.5 -1t-22.5 -1t-29 -0.5l-6 -7q3 -45 5 -89t2 -89v-141
q-1 -9 -3.5 -29.5t-14 -41.5t-34 -37t-63.5 -16q-7 0 -20.5 1t-29 7.5t-30.5 20.5t-25 39q-6 15 -9 37t-3 66q0 6 0.5 39.5t1 77.5t1.5 88t1 71z" />
    <glyph glyph-name="paragraph" unicode="&#xb6;" horiz-adv-x="667" 
d="M309 706q-19 0 -43.5 -2t-51 -11t-52 -27t-46.5 -51q-17 -29 -23 -58.5t-6 -51.5q0 -37 12.5 -72.5t38.5 -62.5q29 -29 58 -38.5t49 -12.5v-486h57v819h145v-819h58v819h34v54h-230z" />
    <glyph glyph-name="periodcentered" unicode="&#xb7;" horiz-adv-x="229" 
d="M168 340q-17 -1 -28.5 -1.5t-22.5 -1t-24 -1t-33 -0.5l-8 -8q1 -14 1 -27v-25v-27q0 -12 -1 -26l7 -8q20 1 33 2t24.5 1.5t23.5 1t30 0.5l7 9q0 15 -0.5 26.5t-0.5 22.5t0.5 23.5t0.5 30.5z" />
    <glyph glyph-name="cedilla" unicode="&#xb8;" horiz-adv-x="292" 
d="M76 -186q17 0 29 0.5t22 0.5t20 -0.5t25 -0.5l7 7q6 21 10.5 36t9 29t9.5 29l12 36l-3 6q-16 0 -37.5 0.5t-36.5 0.5l-7 -5q-9 -19 -16 -33.5t-14 -28.5t-15 -30.5t-20 -38.5z" />
    <glyph glyph-name="onesuperior" unicode="&#xb9;" horiz-adv-x="396" 
d="M250 242q-2 19 -2.5 34t-1.5 35.5t-1 50.5v78q0 73 1 128.5t4 109.5l-6 7q-24 -4 -41 -6.5t-31.5 -4t-28.5 -3.5t-33 -4l-6 -7q-1 -17 -1.5 -24.5t-2.5 -24.5l6 -7q19 4 31.5 6.5t30.5 4.5q1 -26 0.5 -60t-0.5 -66q0 -45 -0.5 -73.5t-0.5 -53.5q0 -24 -0.5 -51t-1.5 -70
l6 -7q12 0 21 0.5t16 0.5h16h20z" />
    <glyph glyph-name="ordmasculine" unicode="&#xba;" horiz-adv-x="375" 
d="M350 538q-1 35 -9 67.5t-31 58.5q-15 17 -32.5 27t-34 14.5t-30 5.5t-21.5 1q-50 0 -79 -16t-43 -30q-17 -17 -26 -36.5t-13 -38t-5 -34t-1 -24.5q0 -81 40 -129.5t123 -48.5q57 0 89.5 21.5t49 51t20 60.5t3.5 50zM272 536q0 -14 -1.5 -35.5t-10 -41.5t-25.5 -34
t-47 -14q-25 0 -41 11t-25 25q-12 19 -15.5 42t-3.5 43q0 10 1.5 31t9.5 41t25.5 35.5t49.5 15.5q15 0 30 -5t26.5 -18t18.5 -36.5t8 -59.5z" />
    <glyph glyph-name="guillemotright" unicode="&#xbb;" horiz-adv-x="437" 
d="M308 80q19 41 43.5 88.5t56.5 102.5v9q-2 2 -9.5 15t-16.5 29t-17 30.5t-11 19.5q-3 6 -6 11.5t-7.5 15t-12 24.5t-19.5 40l-7 5q-12 0 -20.5 -0.5t-17.5 -0.5t-19.5 0.5t-25.5 0.5l-4 -8q4 -7 17 -30.5t29.5 -52.5t33 -59t25.5 -49q-8 -15 -14 -27t-11.5 -22.5l-11 -21
t-12.5 -22.5q-3 -6 -10.5 -19t-16 -28t-15.5 -28.5t-10 -18.5l4 -8h40q16 0 39 -1zM150 80q12 25 19 39.5t11.5 23.5t6.5 13.5t5 9.5q3 6 10.5 20t15.5 30t15.5 30t10.5 19v11q-21 35 -36 61.5t-27 47.5t-21.5 39.5t-19.5 37.5l-7 6q-20 -1 -39 -1h-39l-6 -8q3 -5 10.5 -18
t15.5 -27t15 -26.5t10 -17.5q13 -22 20.5 -35.5t13 -23.5t10.5 -20t12 -25q-8 -15 -19.5 -38t-25 -48.5t-28 -51t-27.5 -44.5l3 -8h41h21q11 0 22 -1z" />
    <glyph glyph-name="onequarter" unicode="&#xbc;" horiz-adv-x="917" 
d="M250 242q-2 19 -2.5 34t-1.5 35.5t-1 50.5v78q0 73 1.5 128.5t3.5 109.5l-6 6q-24 -3 -41 -5.5t-31.5 -4.5t-28.5 -4t-33 -4l-6 -6q-1 -17 -1.5 -24.5t-2.5 -24.5l6 -7q19 4 31.5 6t30.5 5q1 -26 0.5 -60t-0.5 -66q0 -45 -0.5 -73.5t-0.5 -53.5q0 -24 -0.5 -51.5
t-1.5 -70.5l6 -7q12 1 21 1.5t16 0.5h16h20zM887 119q1 10 1.5 16t0.5 10q0 5 0.5 10.5t1.5 13.5l-6 6q-9 0 -15 -0.5t-12 -0.5q-5 0 -12 -0.5t-17 -0.5v95v63q0 27 0.5 50t1.5 56l-6 6q-16 0 -26.5 -0.5t-20.5 -0.5h-22h-29l-6 -5q-18 -30 -41 -66.5t-47 -73t-46.5 -70
t-38.5 -56.5l-3 -7v-20q0 -7 -1 -24l6 -7q36 0 59.5 0.5t43.5 0.5h44h58q0 -20 -0.5 -32t-0.5 -23t-0.5 -23.5t-1.5 -31.5l6 -6q12 1 20 1h14h14h18l6 7q0 18 -0.5 30t-1 23t-0.5 23v32h26t27 -1zM625 173l67 102q17 26 33.5 54t33.5 56q-1 -35 -1.5 -73.5t-1.5 -75.5v-63
h-131zM366 5q49 125 99 247.5t104 245.5q4 10 15 35t23 52.5t22.5 52t14.5 33.5l-4 6q-11 0 -18.5 -0.5t-14.5 -0.5h-14h-20l-6 -4q-16 -45 -39 -101.5t-44 -108t-36.5 -89t-17.5 -42.5q-35 -82 -70 -163t-72 -162l3 -5q12 0 19.5 -0.5t13.5 -0.5h15h22z" />
    <glyph glyph-name="onehalf" unicode="&#xbd;" horiz-adv-x="917" 
d="M250 242q-2 19 -2.5 34t-1.5 35.5t-1 50.5v78q0 73 1 128.5t4 109.5l-6 7q-24 -4 -41 -6.5t-31.5 -4.5t-28.5 -3.5t-33 -3.5l-6 -7q-1 -17 -1.5 -24.5t-2.5 -24.5l6 -7q19 4 31.5 6t30.5 5q1 -26 0.5 -60t-0.5 -66q0 -45 -0.5 -73.5t-0.5 -53.5q0 -24 -0.5 -51t-1.5 -70
l6 -8q12 1 21 1.5t16 0.5h16h20zM870 64q-33 -1 -54 -1.5t-40 -1t-39 -0.5h-51q42 43 74.5 77t54.5 63t33.5 56.5t11.5 56.5q0 26 -10 50t-30 43t-50 30t-69 11q-27 0 -49 -4.5t-38.5 -11t-27.5 -13.5t-18 -11l-5 -6v-65l10 -5q6 6 16.5 15t25 17.5t33 14.5t42.5 6
q46 0 68.5 -24.5t22.5 -54.5q0 -18 -7.5 -36t-19 -34.5t-24.5 -31t-24 -26.5q-56 -59 -95 -99.5t-66 -68.5l5 -12q14 0 40 0.5t57 0.5t65 0.5t64 0.5h55h38l6 6v25t1 26zM325 5q49 125 99 247.5t104 245.5q4 10 15 35t23 52.5t22.5 52t14.5 33.5l-4 6q-12 0 -19 -0.5
t-14 -0.5h-14h-20l-6 -4q-16 -45 -39 -101.5t-44 -108t-36.5 -89t-17.5 -42.5l-70 -162t-72 -162l3 -6h15h13t16.5 -0.5t24.5 -0.5z" />
    <glyph glyph-name="threequarters" unicode="&#xbe;" horiz-adv-x="917" 
d="M338 679q-17 0 -33.5 -0.5t-46.5 -0.5h-199l-6 -7v-25q0 -8 -2 -25l6 -6q29 1 49.5 1.5t38.5 0.5h37h45q-10 -15 -26.5 -38t-34 -47t-34 -45t-25.5 -33l8 -9q12 4 24 6.5t32 2.5q21 0 39.5 -5t32.5 -15t22 -25.5t8 -36.5q0 -38 -30 -62t-78 -24q-45 0 -71 15t-38 25
l-10 -5q-1 -9 -1.5 -15.5t-0.5 -12.5t-0.5 -13t-1.5 -17l5 -6q10 -6 38 -17t82 -11q51 0 86.5 14t57.5 35.5t32 48t10 50.5q0 19 -6.5 41t-21 40.5t-38 31.5t-57.5 16q6 10 22.5 33.5t34.5 49.5t34 49.5t22 32.5zM886 119q1 10 1.5 16t0.5 10q0 5 0.5 10.5t1.5 13.5l-6 6
q-9 0 -15 -0.5t-12 -0.5q-5 0 -12 -0.5t-17 -0.5v95v63q0 27 0.5 50.5t1.5 56.5l-6 5q-16 0 -26.5 -0.5t-20.5 -0.5t-21.5 0.5t-29.5 0.5l-6 -5q-18 -30 -41 -67t-47 -73.5t-46.5 -70t-38.5 -56.5l-2 -7q-1 -12 -1 -20q0 -7 -1 -24l7 -7q36 0 59 0.5t43 0.5h44h58
q0 -20 -0.5 -32t-0.5 -23t-0.5 -23.5t-1.5 -31.5l6 -6q12 1 20 1h14h14h18l6 7q0 18 -0.5 30t-1 23t-0.5 23v32h26t27 -1zM624 173l67 103q17 26 33.5 53.5t33.5 55.5q-1 -35 -1.5 -73t-1.5 -76v-63h-131zM372 5q49 125 99 248t104 245q4 10 15 35t23 53l22.5 52.5
t14.5 33.5l-4 6q-12 0 -19 -0.5t-14 -0.5h-14h-20l-6 -5q-16 -44 -39 -101t-44 -108.5t-36.5 -88.5t-17.5 -42q-35 -82 -70 -163.5t-72 -162.5l3 -5q12 0 19.5 -0.5t13.5 -0.5h15h22z" />
    <glyph glyph-name="questiondown" unicode="&#xbf;" horiz-adv-x="417" 
d="M178 550q-2 -17 -5 -32.5t-10 -32.5t-17.5 -36t-27.5 -44l-28 -43q-9 -14 -19.5 -31.5t-19 -38.5t-14.5 -46t-6 -54q0 -44 14.5 -79.5t41 -61.5t65 -40t86.5 -14q32 0 57 4.5t43.5 11t31 13.5t20.5 12l5 7q1 15 1.5 25.5t1.5 20t1.5 20t2.5 26.5l-9 3q-9 -7 -21.5 -16.5
t-28.5 -17.5t-36 -14t-44 -6t-46 7t-38.5 22t-26.5 37.5t-10 53.5q0 47 19 85.5t39 72.5l22 34q12 20 21.5 37.5t16.5 35.5t11.5 38t6.5 44l-7 7q-13 -1 -22.5 -1.5t-19.5 -0.5h-20h-25zM176 643q19 1 30.5 1.5t22 1t23 1t32.5 0.5l8 9q0 13 -0.5 25.5t-0.5 26.5
q0 13 0.5 26t0.5 27l-7 7q-17 -1 -29.5 -1.5t-24.5 -1t-25.5 -1t-31.5 -1.5l-7 -8q0 -16 0.5 -27.5t0.5 -22.5v-24v-29z" />
    <glyph glyph-name="Agrave" unicode="&#xc0;" horiz-adv-x="604" 
d="M390 703l-7 7q-24 -1 -39.5 -1.5t-30 -1t-31 -1t-42.5 -0.5l-8 -7q-11 -36 -21 -68.5t-22.5 -70t-29 -85.5t-38.5 -114q-54 -162 -111 -324q-3 -8 -6 -15.5t-5 -15.5l4 -7q19 1 31.5 1.5t23 1t21.5 0.5h27l7 7q9 33 15.5 56.5t12.5 45t13 46t18 59.5q30 0 63.5 0.5
t66.5 0.5q30 0 59.5 -0.5t59.5 -0.5q10 -34 17 -58t13 -46t13 -47t16 -60l7 -7q16 1 28.5 1.5t25.5 1t27.5 1t34.5 0.5l4 8q-11 36 -25.5 81t-29.5 92t-29.5 92t-26.5 81q-23 72 -49.5 159t-51.5 170zM301 634h2l95 -338q-26 0 -52.5 -0.5t-52.5 -0.5q-24 0 -48 0.5t-48 0.5
zM302 901h-29h-28h-32h-42l-4 -8q19 -23 31.5 -38t23 -28.5t22.5 -28.5t30 -39l7 -4q16 0 37.5 0.5t37.5 0.5l4 8q-15 32 -28.5 66t-19.5 53q-2 8 -4 12z" />
    <glyph glyph-name="Aacute" unicode="&#xc1;" horiz-adv-x="604" 
d="M390 703l-7 7q-24 -1 -39.5 -1.5t-30 -1t-31 -1t-42.5 -0.5l-8 -7q-11 -36 -21 -68.5t-22.5 -70t-29 -85.5t-38.5 -114q-54 -162 -111 -324q-3 -8 -6 -15.5t-5 -15.5l4 -7q19 1 31.5 1.5t23 1t21.5 0.5h27l7 7q9 33 15.5 56.5t12.5 45t13 46t18 59.5q30 0 63.5 0.5
t66.5 0.5q30 0 59.5 -0.5t59.5 -0.5q10 -34 17 -58t13 -46t13 -47t16 -60l7 -7q16 1 28.5 1.5t25.5 1t27.5 1t34.5 0.5l4 8q-11 36 -25.5 81t-29.5 92t-29.5 92t-26.5 81q-23 72 -49.5 159t-51.5 170zM301 634h2l95 -338q-26 0 -52.5 -0.5t-52.5 -0.5q-24 0 -48 0.5t-48 0.5
zM437 902q-23 0 -37.5 -0.5t-27.5 -0.5h-29h-39l-6 -7q-9 -31 -23 -67.5t-28 -64.5l4 -7h76l7 4q17 23 29 39t23.5 30.5t23.5 29.5t30 36z" />
    <glyph glyph-name="Acircumflex" unicode="&#xc2;" horiz-adv-x="604" 
d="M390 703l-7 7q-24 -1 -39.5 -1.5t-30 -1t-31 -1t-42.5 -0.5l-8 -7q-11 -36 -21 -68.5t-22.5 -70t-29 -85.5t-38.5 -114q-54 -162 -111 -324q-3 -8 -6 -15.5t-5 -15.5l4 -7q19 1 31.5 1.5t23 1t21.5 0.5h27l7 7q9 33 15.5 56.5t12.5 45t13 46t18 59.5q30 0 63.5 0.5
t66.5 0.5q30 0 59.5 -0.5t59.5 -0.5q10 -34 17 -58t13 -46t13 -47t16 -60l7 -7q16 1 28.5 1.5t25.5 1t27.5 1t34.5 0.5l4 8q-11 36 -25.5 81t-29.5 92t-29.5 92t-26.5 81q-23 72 -49.5 159t-51.5 170zM301 634h2l95 -338q-26 0 -52.5 -0.5t-52.5 -0.5q-24 0 -48 0.5t-48 0.5
zM379 902q-19 -1 -38 -1h-37h-35t-35 1l-8 -5q-19 -35 -41 -72t-39 -63l3 -8q14 0 24 0.5t18 0.5t17 -0.5t21 -0.5l7 5q9 16 15.5 26.5t12.5 20t13.5 20.5t18.5 28q9 -14 15.5 -24.5l13 -21t13.5 -22.5t17 -29l7 -5q14 2 26.5 2.5t25.5 1.5q11 0 22.5 0.5t22.5 0.5l5 7
q-14 21 -25 38.5t-20 33t-17 30.5t-16 32z" />
    <glyph glyph-name="Atilde" unicode="&#xc3;" horiz-adv-x="604" 
d="M390 703l-7 7q-24 -1 -39.5 -1.5t-30 -1t-31 -1t-42.5 -0.5l-8 -7q-11 -36 -21 -68.5t-22.5 -70t-29 -85.5t-38.5 -114q-54 -162 -111 -324q-3 -8 -6 -15.5t-5 -15.5l4 -7q19 1 31.5 1.5t23 1t21.5 0.5h27l7 7q9 33 15.5 56.5t12.5 45t13 46t18 59.5q30 0 63.5 0.5
t66.5 0.5q30 0 59.5 -0.5t59.5 -0.5q10 -34 17 -58t13 -46t13 -47t16 -60l7 -7q16 1 28.5 1.5t25.5 1t27.5 1t34.5 0.5l4 8q-11 36 -25.5 81t-29.5 92t-29.5 92t-26.5 81q-23 72 -49.5 159t-51.5 170zM301 634h2l95 -338q-26 0 -52.5 -0.5t-52.5 -0.5q-24 0 -48 0.5t-48 0.5
zM454 888q-14 -19 -32.5 -30t-43.5 -11q-13 0 -25.5 3.5t-29.5 10.5l-31 12q-16 6 -32 11t-33 5q-30 0 -49 -12.5t-30 -22.5l-5 -8v-22q0 -8 -0.5 -16t-1 -17t-1.5 -23l9 -4q15 19 33.5 30t43.5 11q20 0 38.5 -6.5t27.5 -10.5l27 -10q11 -5 25 -10t31 -5q29 0 49.5 13.5
t32.5 24.5l3 7q0 13 0.5 21l1 16t1 17t1.5 23z" />
    <glyph glyph-name="Adieresis" unicode="&#xc4;" horiz-adv-x="604" 
d="M390 703l-7 7q-24 -1 -39.5 -1.5t-30 -1t-31 -1t-42.5 -0.5l-8 -7q-11 -36 -21 -68.5t-22.5 -70t-29 -85.5t-38.5 -114q-54 -162 -111 -324q-3 -8 -6 -15.5t-5 -15.5l4 -7q19 1 31.5 1.5t23 1t21.5 0.5h27l7 7q9 33 15.5 56.5t12.5 45t13 46t18 59.5q30 0 63.5 0.5
t66.5 0.5q30 0 59.5 -0.5t59.5 -0.5q10 -34 17 -58t13 -46t13 -47t16 -60l7 -7q16 1 28.5 1.5t25.5 1t27.5 1t34.5 0.5l4 8q-11 36 -25.5 81t-29.5 92t-29.5 92t-26.5 81q-23 72 -49.5 159t-51.5 170zM301 634h2l95 -338q-26 0 -52.5 -0.5t-52.5 -0.5q-24 0 -48 0.5t-48 0.5
zM485 878q-14 0 -28 -0.5t-28 -0.5t-27 0.5t-27 0.5l-7 -9q0 -15 0.5 -25.5t0.5 -20.5q0 -9 -0.5 -20.5t-0.5 -28.5l7 -7h30h26t24.5 -0.5t28.5 -1.5l7 8v51q0 21 1 48zM250 879q-20 -1 -32.5 -1.5t-23.5 -0.5t-22.5 0.5t-29.5 0.5l-7 -8v-97l7 -7h107l7 8q0 16 -0.5 27
t-0.5 21q0 11 0.5 22t1.5 28z" />
    <glyph glyph-name="Aring" unicode="&#xc5;" horiz-adv-x="604" 
d="M390 703l-7 7q-24 -1 -39.5 -1.5t-30 -1t-31 -1t-42.5 -0.5l-8 -7q-11 -36 -21 -68.5t-22.5 -70t-29 -85.5t-38.5 -114q-54 -162 -111 -324q-3 -8 -6 -15.5t-5 -15.5l4 -7q19 1 31.5 1.5t23 1t21.5 0.5h27l7 7q9 33 15.5 56.5t12.5 45t13 46t18 59.5q30 0 63.5 0.5
t66.5 0.5q30 0 59.5 -0.5t59.5 -0.5q10 -34 17 -58t13 -46t13 -47t16 -60l7 -7q16 1 28.5 1.5t25.5 1t27.5 1t34.5 0.5l4 8q-11 36 -25.5 81t-29.5 92t-29.5 92t-26.5 81q-23 72 -49.5 159t-51.5 170zM301 634h2l95 -338q-26 0 -52.5 -0.5t-52.5 -0.5q-24 0 -48 0.5t-48 0.5
zM428 853q-1 48 -33 77.5t-84 29.5q-56 0 -87.5 -33t-31.5 -80q0 -21 7 -41t21.5 -35t36 -24t51.5 -9t52.5 9t37.5 25t22.5 36.5t7.5 44.5zM357 849q0 -2 -1 -12t-5 -21t-13.5 -20t-25.5 -9q-21 0 -34 16.5t-13 46.5q0 31 15 45.5t31 14.5q19 0 32.5 -16t13.5 -45z" />
    <glyph glyph-name="AE" unicode="&#xc6;" horiz-adv-x="854" 
d="M814 89q-16 -1 -31 -1.5t-33.5 -1.5t-41.5 -1.5t-56 -0.5q-30 -1 -64 -1t-84 -1q-1 43 -1.5 72.5t-0.5 54.5v52v65h89t61.5 -0.5t55.5 -1t71 -1.5l5 6q0 12 0.5 20l1 16t1 17.5t1.5 23.5l-5 6q-37 -1 -71 -1.5t-75 -1.5h-28q-19 0 -40 -0.5t-40 -0.5h-26v52v46t0.5 50
t0.5 65q47 1 80 1h65q32 0 67.5 -1t86.5 -2l5 6q2 27 3 42t3 35l-5 7q-28 -1 -73.5 -1.5t-99 -1t-110 -1t-106.5 -0.5t-88.5 0.5t-54.5 0.5l-7 -7q-13 -39 -26 -75t-27.5 -74t-32 -81.5t-39.5 -98.5q-42 -102 -66.5 -163.5t-39.5 -98.5t-23.5 -59t-17.5 -45l4 -7
q19 1 31 1.5t22 0.5q11 0 23.5 0.5t31.5 0.5l6 7q11 35 18.5 58.5t15 45t16 45t20.5 58.5q36 0 59 0.5t43 0.5t43.5 -0.5t60.5 -0.5q-1 -36 -1.5 -60.5t-1 -46t-1 -45.5t-1.5 -58l5 -7q51 0 88.5 0.5t67.5 1t57 0.5h56t64.5 0.5t83.5 0.5l5 7q1 9 1 18t1 17q1 11 1.5 21
t1.5 20zM342 624h51q0 -59 0.5 -99t0.5 -75t-0.5 -70.5t-1.5 -84.5q-32 -1 -53 -1.5t-39 -0.5t-37 0.5t-47 0.5z" />
    <glyph glyph-name="Ccedilla" unicode="&#xc7;" horiz-adv-x="625" 
d="M285 -186q17 0 29 0.5t22 0.5t20 -0.5t25 -0.5l8 7q6 21 10.5 36t9 29t9.5 29l12 36l-4 6q-16 1 -38 1h-36l-7 -5q-10 -21 -17 -36t-14 -28.5t-14.5 -29t-19.5 -37.5zM593 139q-12 -8 -29 -18.5t-39.5 -20t-51.5 -16t-64 -6.5q-52 0 -96 16.5t-76.5 51t-50.5 86.5
t-18 123q0 63 16 114.5t47.5 87.5t77.5 56t106 20q33 0 59 -5t46 -12.5t33 -15t21 -12.5l9 4q1 16 2 27t2 20t2 18.5t3 23.5l-4 8q-25 9 -69.5 20.5t-113.5 11.5q-27 0 -59.5 -3t-67.5 -13.5t-70 -31t-67 -55.5q-33 -36 -51 -75t-27 -75t-11 -66.5t-2 -48.5q0 -84 23.5 -152
t68.5 -116t109.5 -74t146.5 -26q38 0 68.5 5t54.5 12t40.5 14.5t25.5 12.5l6 7q1 14 1.5 25t1 21.5t1.5 22.5t3 30z" />
    <glyph glyph-name="Egrave" unicode="&#xc8;" horiz-adv-x="542" 
d="M501 89q-48 -2 -81.5 -3t-65.5 -1.5t-70 -0.5h-94q0 36 -0.5 61.5t-0.5 50.5v54t1 73h84q34 0 62 -0.5t57.5 -1t73.5 -1.5l6 7q0 12 0.5 20.5l1 17t1 17.5t2.5 22l-5 7q-46 -1 -78.5 -1.5t-62.5 -0.5h-63h-79v59t0.5 47.5t1 47t1.5 59.5q48 0 82.5 -0.5t66.5 -1t67 -1.5
t83 -2l6 7q1 13 1.5 23t1.5 18.5l2 17t2 19.5l-6 7q-69 -1 -115.5 -1.5t-89.5 -0.5t-92 -0.5t-123 -0.5l-6 -7q3 -43 4 -84t2 -85.5t1 -95.5v-114q0 -69 -0.5 -115.5t-1.5 -81.5t-2 -62t-2 -57l5 -7q47 0 83 0.5t66 1t57 0.5t57.5 0.5t66.5 0.5h86l7 7q1 13 1.5 21.5t1 16
t1 16t1.5 21.5zM271 901h-29h-28h-32h-42l-4 -8q19 -23 31.5 -38t23 -28.5t22.5 -28.5t30 -39l7 -4q16 0 37.5 0.5t37.5 0.5l4 8q-15 32 -28.5 66t-19.5 53q-2 8 -4 12z" />
    <glyph glyph-name="Eacute" unicode="&#xc9;" horiz-adv-x="542" 
d="M501 89q-48 -2 -81.5 -3t-65.5 -1.5t-70 -0.5h-94q0 36 -0.5 61.5t-0.5 50.5v54t1 73h84q34 0 62 -0.5t57.5 -1t73.5 -1.5l6 7q0 12 0.5 20.5l1 17t1 17.5t2.5 22l-5 7q-46 -1 -78.5 -1.5t-62.5 -0.5h-63h-79v59t0.5 47.5t1 47t1.5 59.5q48 0 82.5 -0.5t66.5 -1t67 -1.5
t83 -2l6 7q1 13 1.5 23t1.5 18.5l2 17t2 19.5l-6 7q-69 -1 -115.5 -1.5t-89.5 -0.5t-92 -0.5t-123 -0.5l-6 -7q3 -43 4 -84t2 -85.5t1 -95.5v-114q0 -69 -0.5 -115.5t-1.5 -81.5t-2 -62t-2 -57l5 -7q47 0 83 0.5t66 1t57 0.5t57.5 0.5t66.5 0.5h86l7 7q1 13 1.5 21.5t1 16
t1 16t1.5 21.5zM406 902q-23 0 -37.5 -0.5t-27.5 -0.5h-29h-39l-6 -7q-9 -31 -23 -67.5t-28 -64.5l4 -7h76l7 4q17 23 29 39t23.5 30.5t23.5 29.5t30 36z" />
    <glyph glyph-name="Ecircumflex" unicode="&#xca;" horiz-adv-x="542" 
d="M501 89q-48 -2 -81.5 -3t-65.5 -1.5t-70 -0.5h-94q0 36 -0.5 61.5t-0.5 50.5v54t1 73h84q34 0 62 -0.5t57.5 -1t73.5 -1.5l6 7q0 12 0.5 20.5l1 17t1 17.5t2.5 22l-5 7q-46 -1 -78.5 -1.5t-62.5 -0.5h-63h-79v59t0.5 47.5t1 47t1.5 59.5q48 0 82.5 -0.5t66.5 -1t67 -1.5
t83 -2l6 7q1 13 1.5 23t1.5 18.5l2 17t2 19.5l-6 7q-69 -1 -115.5 -1.5t-89.5 -0.5t-92 -0.5t-123 -0.5l-6 -7q3 -43 4 -84t2 -85.5t1 -95.5v-114q0 -69 -0.5 -115.5t-1.5 -81.5t-2 -62t-2 -57l5 -7q47 0 83 0.5t66 1t57 0.5t57.5 0.5t66.5 0.5h86l7 7q1 13 1.5 21.5t1 16
t1 16t1.5 21.5zM348 902q-19 -1 -38 -1h-37h-35t-35 1l-8 -5q-19 -35 -41 -72t-39 -63l3 -8q14 0 24 0.5t18 0.5t17 -0.5t21 -0.5l7 5q9 16 15.5 26.5t12.5 20t13.5 20.5t18.5 28q9 -14 15.5 -24.5l13 -21t13.5 -22.5t17 -29l7 -5q14 2 26.5 2.5t25.5 1.5q11 0 22.5 0.5
t22.5 0.5l5 7q-14 21 -25 38.5t-20 33t-17 30.5t-16 32z" />
    <glyph glyph-name="Edieresis" unicode="&#xcb;" horiz-adv-x="542" 
d="M501 89q-48 -2 -81.5 -3t-65.5 -1.5t-70 -0.5h-94q0 36 -0.5 61.5t-0.5 50.5v54t1 73h84q34 0 62 -0.5t57.5 -1t73.5 -1.5l6 7q0 12 0.5 20.5l1 17t1 17.5t2.5 22l-5 7q-46 -1 -78.5 -1.5t-62.5 -0.5h-63h-79v59t0.5 47.5t1 47t1.5 59.5q48 0 82.5 -0.5t66.5 -1t67 -1.5
t83 -2l6 7q1 13 1.5 23t1.5 18.5l2 17t2 19.5l-6 7q-69 -1 -115.5 -1.5t-89.5 -0.5t-92 -0.5t-123 -0.5l-6 -7q3 -43 4 -84t2 -85.5t1 -95.5v-114q0 -69 -0.5 -115.5t-1.5 -81.5t-2 -62t-2 -57l5 -7q47 0 83 0.5t66 1t57 0.5t57.5 0.5t66.5 0.5h86l7 7q1 13 1.5 21.5t1 16
t1 16t1.5 21.5zM443 878q-14 0 -28 -0.5t-28 -0.5t-27 0.5t-27 0.5l-7 -9q0 -15 0.5 -25.5t0.5 -20.5q0 -9 -0.5 -20.5t-0.5 -28.5l7 -7h30h26t24.5 -0.5t28.5 -1.5l7 8v51q0 21 1 48zM208 879q-20 -1 -32.5 -1.5t-23.5 -0.5t-22.5 0.5t-29.5 0.5l-7 -8v-97l7 -7h107l7 8
q0 16 -0.5 27t-0.5 21q0 11 0.5 22t1.5 28z" />
    <glyph glyph-name="Igrave" unicode="&#xcc;" horiz-adv-x="271" 
d="M189 709q-19 -1 -32.5 -1.5t-25.5 -1t-25 -0.5h-28l-5 -8q5 -113 6 -225t1 -226q0 -48 -0.5 -83.5t-1 -63.5t-1 -50.5t-1.5 -45.5l6 -7q20 1 33.5 1.5t25.5 0.5t23.5 0.5t28.5 0.5l6 7q-2 39 -3.5 75.5t-2.5 79.5t-1.5 96.5t-0.5 125.5q0 64 0.5 112.5t1 86t1.5 66
t2 53.5zM135 901h-29h-28h-32h-42l-4 -8q19 -23 31.5 -38t23 -28.5t22.5 -28.5t30 -39l7 -4q16 0 37.5 0.5t37.5 0.5l4 8q-15 32 -28.5 66t-19.5 53q-2 8 -4 12z" />
    <glyph glyph-name="Iacute" unicode="&#xcd;" horiz-adv-x="271" 
d="M189 709q-19 -1 -32.5 -1.5t-25.5 -1t-25 -0.5h-28l-5 -8q5 -113 6 -225t1 -226q0 -48 -0.5 -83.5t-1 -63.5t-1 -50.5t-1.5 -45.5l6 -7q20 1 33.5 1.5t25.5 0.5t23.5 0.5t28.5 0.5l6 7q-2 39 -3.5 75.5t-2.5 79.5t-1.5 96.5t-0.5 125.5q0 64 0.5 112.5t1 86t1.5 66
t2 53.5zM270 902q-23 0 -37.5 -0.5t-27.5 -0.5h-29h-39l-6 -7q-9 -31 -23 -67.5t-28 -64.5l4 -7h76l7 4q17 23 29 39t23.5 30.5t23.5 29.5t30 36z" />
    <glyph glyph-name="Icircumflex" unicode="&#xce;" horiz-adv-x="271" 
d="M189 709q-19 -1 -32.5 -1.5t-25.5 -1t-25 -0.5h-28l-5 -8q5 -113 6 -225t1 -226q0 -48 -0.5 -83.5t-1 -63.5t-1 -50.5t-1.5 -45.5l6 -7q20 1 33.5 1.5t25.5 0.5t23.5 0.5t28.5 0.5l6 7q-2 39 -3.5 75.5t-2.5 79.5t-1.5 96.5t-0.5 125.5q0 64 0.5 112.5t1 86t1.5 66
t2 53.5zM212 902q-19 -1 -38 -1h-37h-35t-35 1l-8 -5q-19 -35 -41 -72t-39 -63l3 -8q14 0 24 0.5t18 0.5t17 -0.5t21 -0.5l7 5q9 16 15.5 26.5t12.5 20t13.5 20.5t18.5 28q9 -14 15.5 -24.5l13 -21t13.5 -22.5t17 -29l7 -5q14 2 26.5 2.5t25.5 1.5q11 0 22.5 0.5t22.5 0.5
l5 7q-14 21 -25 38.5t-20 33t-17 30.5t-16 32z" />
    <glyph glyph-name="Idieresis" unicode="&#xcf;" horiz-adv-x="271" 
d="M189 709q-19 -1 -32.5 -1.5t-25.5 -1t-25 -0.5h-28l-5 -8q5 -113 6 -225t1 -226q0 -48 -0.5 -83.5t-1 -63.5t-1 -50.5t-1.5 -45.5l6 -7q20 1 33.5 1.5t25.5 0.5t23.5 0.5t28.5 0.5l6 7q-2 39 -3.5 75.5t-2.5 79.5t-1.5 96.5t-0.5 125.5q0 64 0.5 112.5t1 86t1.5 66
t2 53.5zM307 878q-14 0 -28 -0.5t-28 -0.5t-27 0.5t-27 0.5l-7 -9q0 -15 0.5 -25.5t0.5 -20.5q0 -9 -0.5 -20.5t-0.5 -28.5l7 -7h30h26t24.5 -0.5t28.5 -1.5l7 8v51q0 21 1 48zM72 879q-20 -1 -32.5 -1.5t-23.5 -0.5t-22.5 0.5t-29.5 0.5l-7 -8v-97l7 -7h107l7 8
q0 16 -0.5 27t-0.5 21q0 11 0.5 22t1.5 28z" />
    <glyph glyph-name="Eth" unicode="&#xd0;" horiz-adv-x="708" 
d="M4 330q11 0 20 0.5t17 1t17 0.5h23v-119t-0.5 -80t-1.5 -62.5t-3 -66.5l6 -7l67 1h80t48.5 0.5t31 1t27.5 2.5q37 3 79 12.5t82.5 32t76 61t58.5 100.5q15 39 20.5 80.5t5.5 83.5q0 16 -2 52t-13.5 78.5t-37 86t-72.5 74.5q-26 17 -55 27t-57 14.5t-54 5.5t-45 1
q-20 0 -48.5 -0.5t-48.5 -0.5l-147 -4l-6 -7q1 -24 2.5 -43.5t2 -49t1.5 -76t2 -123.5h-22h-15t-15 0.5t-20 0.5l-5 -6q0 -12 -0.5 -19.5t-0.5 -14.5q0 -6 -0.5 -13t-1.5 -18zM389 339q1 12 1.5 19.5t1 14.5l1 14t1.5 18l-5 7q-32 -1 -54.5 -1.5t-43.5 -1t-44.5 -1
t-57.5 -0.5q0 47 0.5 79.5t1 56.5t1 43t0.5 40q51 2 80 2h32q13 0 32.5 -1t42.5 -5.5t46.5 -14.5t44.5 -28q43 -37 57.5 -91.5t14.5 -111.5q0 -36 -5 -71.5t-17 -68.5t-31.5 -61t-47.5 -49q-25 -18 -53.5 -27.5t-60 -13.5t-65.5 -4.5t-69 0.5q-1 32 -2 56t-1 50v59v85
q35 1 57 1.5t47 0.5q23 0 45 -0.5t45 -0.5z" />
    <glyph glyph-name="Ntilde" unicode="&#xd1;" horiz-adv-x="708" 
d="M634 49q-3 141 -3 283q0 93 1 185.5t3 184.5l-6 7q-15 -1 -25.5 -1.5t-20 -1t-21.5 -0.5h-28l-6 -7q1 -26 2.5 -46t2 -45.5t1.5 -62t3 -95.5l8 -330l-2 -2l-122 219q-50 88 -101.5 180.5t-102.5 184.5l-10 7q-21 -1 -35.5 -1.5t-27.5 -0.5t-28 -0.5t-38 -0.5l-5 -7
q4 -103 5 -204.5t1 -204.5q0 -72 -1 -143t-4 -143l6 -7q18 1 29 1.5t20.5 1t19.5 0.5h27l6 7q-1 15 -1.5 25t-1 22t-1 30t-1.5 49q-1 32 -2 62.5t-2 62.5l-10 341l2 2l156 -282q45 -79 89 -157.5t89 -157.5l8 -7q22 1 36 1.5t26 1t25 0.5h36l5 7zM506 888q-14 -19 -32.5 -30
t-43.5 -11q-13 0 -25.5 3.5t-29.5 10.5l-31 12q-16 6 -32 11t-33 5q-30 0 -49 -12.5t-30 -22.5l-5 -8v-22q0 -8 -0.5 -16t-1 -17t-1.5 -23l9 -4q15 19 33.5 30t43.5 11q20 0 38.5 -6.5t27.5 -10.5l27 -10q11 -5 25 -10t31 -5q29 0 49.5 13.5t32.5 24.5l3 7q0 13 0.5 21l1 16
t1 17t1.5 23z" />
    <glyph glyph-name="Ograve" unicode="&#xd2;" horiz-adv-x="750" 
d="M374 -15q74 0 134 23.5t103 69.5t66 114t23 158q0 87 -22.5 156t-64.5 116.5t-102 73t-134 25.5q-78 0 -138.5 -27t-102.5 -75.5t-64 -117.5t-22 -153q0 -83 21.5 -150t63 -114.5t101.5 -73t138 -25.5zM376 69q-56 0 -97 25t-67 69q-13 22 -21 48t-12.5 52t-6 50t-1.5 42
q0 17 1.5 41.5t6.5 52t14 55t23 49.5q8 13 21 27.5t32.5 27.5t46 21.5t61.5 8.5q9 0 28 -1.5t42 -9.5t47 -25.5t44 -49.5q14 -23 22.5 -51.5t13 -56.5t6 -51.5t1.5 -37.5q0 -57 -11.5 -109t-36 -91.5t-63.5 -62.5t-94 -23zM375 901h-29h-28h-32h-42l-4 -8q19 -23 31.5 -38
t23 -28.5t22.5 -28.5t30 -39l7 -4q16 0 37.5 0.5t37.5 0.5l4 8q-15 32 -28.5 66t-19.5 53q-2 8 -4 12z" />
    <glyph glyph-name="Oacute" unicode="&#xd3;" horiz-adv-x="750" 
d="M374 -15q74 0 134 23.5t103 69.5t66 114t23 158q0 87 -22.5 156t-64.5 116.5t-102 73t-134 25.5q-78 0 -138.5 -27t-102.5 -75.5t-64 -117.5t-22 -153q0 -83 21.5 -150t63 -114.5t101.5 -73t138 -25.5zM376 69q-56 0 -97 25t-67 69q-13 22 -21 48t-12.5 52t-6 50t-1.5 42
q0 17 1.5 41.5t6.5 52t14 55t23 49.5q8 13 21 27.5t32.5 27.5t46 21.5t61.5 8.5q9 0 28 -1.5t42 -9.5t47 -25.5t44 -49.5q14 -23 22.5 -51.5t13 -56.5t6 -51.5t1.5 -37.5q0 -57 -11.5 -109t-36 -91.5t-63.5 -62.5t-94 -23zM510 902q-23 0 -37.5 -0.5t-27.5 -0.5h-29h-39
l-6 -7q-9 -31 -23 -67.5t-28 -64.5l4 -7h76l7 4q17 23 29 39t23.5 30.5t23.5 29.5t30 36z" />
    <glyph glyph-name="Ocircumflex" unicode="&#xd4;" horiz-adv-x="750" 
d="M374 -15q74 0 134 23.5t103 69.5t66 114t23 158q0 87 -22.5 156t-64.5 116.5t-102 73t-134 25.5q-78 0 -138.5 -27t-102.5 -75.5t-64 -117.5t-22 -153q0 -83 21.5 -150t63 -114.5t101.5 -73t138 -25.5zM376 69q-56 0 -97 25t-67 69q-13 22 -21 48t-12.5 52t-6 50t-1.5 42
q0 17 1.5 41.5t6.5 52t14 55t23 49.5q8 13 21 27.5t32.5 27.5t46 21.5t61.5 8.5q9 0 28 -1.5t42 -9.5t47 -25.5t44 -49.5q14 -23 22.5 -51.5t13 -56.5t6 -51.5t1.5 -37.5q0 -57 -11.5 -109t-36 -91.5t-63.5 -62.5t-94 -23zM452 902q-19 -1 -38 -1h-37h-35t-35 1l-8 -5
q-19 -35 -41 -72t-39 -63l3 -8q14 0 24 0.5t18 0.5t17 -0.5t21 -0.5l7 5q9 16 15.5 26.5t12.5 20t13.5 20.5t18.5 28q9 -14 15.5 -24.5l13 -21t13.5 -22.5t17 -29l7 -5q14 2 26.5 2.5t25.5 1.5q11 0 22.5 0.5t22.5 0.5l5 7q-14 21 -25 38.5t-20 33t-17 30.5t-16 32z" />
    <glyph glyph-name="Otilde" unicode="&#xd5;" horiz-adv-x="750" 
d="M374 -15q74 0 134 23.5t103 69.5t66 114t23 158q0 87 -22.5 156t-64.5 116.5t-102 73t-134 25.5q-78 0 -138.5 -27t-102.5 -75.5t-64 -117.5t-22 -153q0 -83 21.5 -150t63 -114.5t101.5 -73t138 -25.5zM376 69q-56 0 -97 25t-67 69q-13 22 -21 48t-12.5 52t-6 50t-1.5 42
q0 17 1.5 41.5t6.5 52t14 55t23 49.5q8 13 21 27.5t32.5 27.5t46 21.5t61.5 8.5q9 0 28 -1.5t42 -9.5t47 -25.5t44 -49.5q14 -23 22.5 -51.5t13 -56.5t6 -51.5t1.5 -37.5q0 -57 -11.5 -109t-36 -91.5t-63.5 -62.5t-94 -23zM527 888q-14 -19 -32.5 -30t-43.5 -11
q-13 0 -25.5 3.5t-29.5 10.5l-31 12q-16 6 -32 11t-33 5q-30 0 -49 -12.5t-30 -22.5l-5 -8v-22q0 -8 -0.5 -16t-1 -17t-1.5 -23l9 -4q15 19 33.5 30t43.5 11q20 0 38.5 -6.5t27.5 -10.5l27 -10q11 -5 25 -10t31 -5q29 0 49.5 13.5t32.5 24.5l3 7q0 13 0.5 21l1 16t1 17
t1.5 23z" />
    <glyph glyph-name="Odieresis" unicode="&#xd6;" horiz-adv-x="750" 
d="M374 -15q74 0 134 23.5t103 69.5t66 114t23 158q0 87 -22.5 156t-64.5 116.5t-102 73t-134 25.5q-78 0 -138.5 -27t-102.5 -75.5t-64 -117.5t-22 -153q0 -83 21.5 -150t63 -114.5t101.5 -73t138 -25.5zM376 69q-56 0 -97 25t-67 69q-13 22 -21 48t-12.5 52t-6 50t-1.5 42
q0 17 1.5 41.5t6.5 52t14 55t23 49.5q8 13 21 27.5t32.5 27.5t46 21.5t61.5 8.5q9 0 28 -1.5t42 -9.5t47 -25.5t44 -49.5q14 -23 22.5 -51.5t13 -56.5t6 -51.5t1.5 -37.5q0 -57 -11.5 -109t-36 -91.5t-63.5 -62.5t-94 -23zM549 878q-14 0 -28 -0.5t-28 -0.5t-27 0.5t-27 0.5
l-7 -9q0 -15 0.5 -25.5t0.5 -20.5q0 -9 -0.5 -20.5t-0.5 -28.5l7 -7h30h26t24.5 -0.5t28.5 -1.5l7 8v51q0 21 1 48zM314 879q-20 -1 -32.5 -1.5t-23.5 -0.5t-22.5 0.5t-29.5 0.5l-7 -8v-97l7 -7h107l7 8q0 16 -0.5 27t-0.5 21q0 11 0.5 22t1.5 28z" />
    <glyph glyph-name="multiply" unicode="&#xd7;" horiz-adv-x="667" 
d="M590 91l-200 201l200 201l-56 56l-200 -201l-202 201l-55 -56l201 -201l-201 -201l55 -55l202 200l200 -200z" />
    <glyph glyph-name="Oslash" unicode="&#xd8;" horiz-adv-x="750" 
d="M740 671l-40 40h-8q-12 -13 -19.5 -21.5t-15.5 -16.5l-18.5 -18.5l-26.5 -26.5q-9 10 -26.5 26t-46 31t-69.5 25.5t-98 10.5q-82 0 -142.5 -29t-100.5 -80t-59.5 -120.5t-19.5 -149.5q0 -49 6 -86t14.5 -63.5t18 -44t15.5 -28.5l-31.5 -31.5l-21 -21t-15.5 -15t-16 -14.5
l-1 -8q10 -10 20.5 -20t20.5 -21h8q10 12 17.5 20.5t15.5 16.5l18 18l26 26q13 -14 30 -28t48 -28q23 -11 60 -20t97 -9q11 0 33 1t50 7.5t59.5 20t61 38.5t55 63.5t42.5 94.5q19 69 19 146q0 48 -6 84.5t-14.5 63.5t-17 45t-14.5 28q18 18 29.5 28.5t21 19t18.5 17t23 21.5
v8zM567 493q7 -24 12 -51.5t5 -71.5q0 -54 -9.5 -108.5t-33 -98t-64 -71t-102.5 -27.5q-38 0 -65.5 9t-46 21t-30 25.5t-17.5 22.5zM187 203q-8 26 -15 56.5t-7 79.5q0 25 2.5 53.5t9 57.5t16.5 56.5t25 50.5q24 36 64.5 60.5t95.5 24.5q26 0 50.5 -6t47.5 -19
q26 -14 39.5 -30t23.5 -31z" />
    <glyph glyph-name="Ugrave" unicode="&#xd9;" horiz-adv-x="688" 
d="M608 709q-15 -1 -25 -1.5t-19 -0.5t-20 -0.5t-28 -0.5l-5 -7q3 -43 4.5 -91t2 -97t1 -97.5t0.5 -91.5q0 -59 -2.5 -102t-19.5 -75q-14 -28 -34.5 -43t-41.5 -22.5t-39 -9t-27 -1.5q-52 0 -82 16.5t-43 32.5q-26 31 -31.5 79t-5.5 123v86t0.5 102.5t1 103.5t2.5 90l-5 7
q-19 -1 -31 -1.5t-23 -0.5t-24 -0.5t-34 -0.5l-7 -7q1 -49 1.5 -80t1 -60t0.5 -64v-88v-102q0 -44 1 -78t6 -62t16 -52t31 -47q10 -11 27 -25t43.5 -26.5t63.5 -21t85 -8.5q61 0 115.5 17.5t90.5 56.5q22 24 33.5 51t17 54.5t6.5 54t1 49.5l-1 90q0 28 -0.5 49t-0.5 38v32
v31v51t0.5 41.5t1 44t1.5 57.5zM344 901h-29h-28h-32h-42l-4 -8q19 -23 31.5 -38t23 -28.5t22.5 -28.5t30 -39l7 -4q16 0 37.5 0.5t37.5 0.5l4 8q-15 32 -28.5 66t-19.5 53q-2 8 -4 12z" />
    <glyph glyph-name="Uacute" unicode="&#xda;" horiz-adv-x="688" 
d="M608 709q-15 -1 -25 -1.5t-19 -0.5t-20 -0.5t-28 -0.5l-5 -7q3 -43 4.5 -91t2 -97t1 -97.5t0.5 -91.5q0 -59 -2.5 -102t-19.5 -75q-14 -28 -34.5 -43t-41.5 -22.5t-39 -9t-27 -1.5q-52 0 -82 16.5t-43 32.5q-26 31 -31.5 79t-5.5 123v86t0.5 102.5t1 103.5t2.5 90l-5 7
q-19 -1 -31 -1.5t-23 -0.5t-24 -0.5t-34 -0.5l-7 -7q1 -49 1.5 -80t1 -60t0.5 -64v-88v-102q0 -44 1 -78t6 -62t16 -52t31 -47q10 -11 27 -25t43.5 -26.5t63.5 -21t85 -8.5q61 0 115.5 17.5t90.5 56.5q22 24 33.5 51t17 54.5t6.5 54t1 49.5l-1 90q0 28 -0.5 49t-0.5 38v32
v31v51t0.5 41.5t1 44t1.5 57.5zM479 902q-23 0 -37.5 -0.5t-27.5 -0.5h-29h-39l-6 -7q-9 -31 -23 -67.5t-28 -64.5l4 -7h76l7 4q17 23 29 39t23.5 30.5t23.5 29.5t30 36z" />
    <glyph glyph-name="Ucircumflex" unicode="&#xdb;" horiz-adv-x="688" 
d="M608 709q-15 -1 -25 -1.5t-19 -0.5t-20 -0.5t-28 -0.5l-5 -7q3 -43 4.5 -91t2 -97t1 -97.5t0.5 -91.5q0 -59 -2.5 -102t-19.5 -75q-14 -28 -34.5 -43t-41.5 -22.5t-39 -9t-27 -1.5q-52 0 -82 16.5t-43 32.5q-26 31 -31.5 79t-5.5 123v86t0.5 102.5t1 103.5t2.5 90l-5 7
q-19 -1 -31 -1.5t-23 -0.5t-24 -0.5t-34 -0.5l-7 -7q1 -49 1.5 -80t1 -60t0.5 -64v-88v-102q0 -44 1 -78t6 -62t16 -52t31 -47q10 -11 27 -25t43.5 -26.5t63.5 -21t85 -8.5q61 0 115.5 17.5t90.5 56.5q22 24 33.5 51t17 54.5t6.5 54t1 49.5l-1 90q0 28 -0.5 49t-0.5 38v32
v31v51t0.5 41.5t1 44t1.5 57.5zM421 902q-19 -1 -38 -1h-37h-35t-35 1l-8 -5q-19 -35 -41 -72t-39 -63l3 -8q14 0 24 0.5t18 0.5t17 -0.5t21 -0.5l7 5q9 16 15.5 26.5t12.5 20t13.5 20.5t18.5 28q9 -14 15.5 -24.5l13 -21t13.5 -22.5t17 -29l7 -5q14 2 26.5 2.5t25.5 1.5
q11 0 22.5 0.5t22.5 0.5l5 7q-14 21 -25 38.5t-20 33t-17 30.5t-16 32z" />
    <glyph glyph-name="Udieresis" unicode="&#xdc;" horiz-adv-x="688" 
d="M608 709q-15 -1 -25 -1.5t-19 -0.5t-20 -0.5t-28 -0.5l-5 -7q3 -43 4.5 -91t2 -97t1 -97.5t0.5 -91.5q0 -59 -2.5 -102t-19.5 -75q-14 -28 -34.5 -43t-41.5 -22.5t-39 -9t-27 -1.5q-52 0 -82 16.5t-43 32.5q-26 31 -31.5 79t-5.5 123v86t0.5 102.5t1 103.5t2.5 90l-5 7
q-19 -1 -31 -1.5t-23 -0.5t-24 -0.5t-34 -0.5l-7 -7q1 -49 1.5 -80t1 -60t0.5 -64v-88v-102q0 -44 1 -78t6 -62t16 -52t31 -47q10 -11 27 -25t43.5 -26.5t63.5 -21t85 -8.5q61 0 115.5 17.5t90.5 56.5q22 24 33.5 51t17 54.5t6.5 54t1 49.5l-1 90q0 28 -0.5 49t-0.5 38v32
v31v51t0.5 41.5t1 44t1.5 57.5zM526 878q-14 0 -28 -0.5t-28 -0.5t-27 0.5t-27 0.5l-7 -9q0 -15 0.5 -25.5t0.5 -20.5q0 -9 -0.5 -20.5t-0.5 -28.5l7 -7h30h26t24.5 -0.5t28.5 -1.5l7 8v51q0 21 1 48zM291 879q-20 -1 -32.5 -1.5t-23.5 -0.5t-22.5 0.5t-29.5 0.5l-7 -8v-97
l7 -7h107l7 8q0 16 -0.5 27t-0.5 21q0 11 0.5 22t1.5 28z" />
    <glyph glyph-name="Yacute" unicode="&#xdd;" horiz-adv-x="542" 
d="M331 6q-2 27 -2.5 57.5t-1.5 60t-1 55.5v43v33q0 18 1 43q12 23 20 38.5t17.5 33.5t23 43t36.5 66q29 52 46.5 83.5t30 53.5t23 40.5t25.5 44.5l-6 8q-15 -1 -25.5 -1.5t-20.5 -1t-22 -0.5h-30l-8 -6q-13 -27 -31.5 -65t-40 -80.5t-44 -85.5t-43.5 -80q-26 52 -43 85
t-32 63t-31.5 65t-42.5 89q-2 5 -4 8.5t-4 8.5l-8 4q-14 -1 -28.5 -2t-29.5 -2l-57 -3l-5 -9q33 -58 62.5 -111t56 -102.5t51 -97t49.5 -95.5q1 -10 1 -21v-26v-50q0 -31 -0.5 -65.5t-1.5 -67.5t-2 -55l6 -7q16 1 28 1.5t24 0.5t25.5 -0.5t32.5 -0.5zM406 902
q-23 0 -37.5 -0.5t-27.5 -0.5h-29h-39l-6 -7q-9 -31 -23 -67.5t-28 -64.5l4 -7h76l7 4q17 23 29 39t23.5 30.5t23.5 29.5t30 36z" />
    <glyph glyph-name="Thorn" unicode="&#xde;" 
d="M190 596v28q0 16 0.5 30.5t1 27t0.5 20.5l-7 7q-18 -1 -30.5 -1.5t-24 -1t-24.5 -0.5h-29l-5 -8q5 -113 6 -225t1 -225q0 -48 -0.5 -83.5t-1 -63.5t-1 -51t-1.5 -46l6 -7q19 1 32.5 1.5t25 1t23.5 0.5h27l6 7q-1 13 -1.5 23.5t-0.5 25.5q0 16 -0.5 39t-1.5 62h59
q32 0 65 3t65 11t61 23q24 13 44.5 31.5t36.5 42.5t25 53.5t9 64.5q0 25 -6.5 54t-22 56t-42.5 49.5t-69 36.5q-36 12 -75.5 13.5t-89.5 1.5zM189 238q0 7 -0.5 24t-0.5 35q0 19 -0.5 35.5t-0.5 22.5q0 9 0.5 32t0.5 48t0.5 47.5t0.5 30.5l27 2q17 1 33 1h33q15 0 36 -1
t42 -8t40.5 -21t31.5 -39q7 -16 9.5 -32t2.5 -30q0 -19 -4 -37.5t-13 -34.5q-15 -27 -38.5 -42t-52 -22.5t-60 -9t-62.5 -1.5h-25z" />
    <glyph glyph-name="germandbls" unicode="&#xdf;" 
d="M185 7q-6 85 -7 171t-1 172v57t1 78.5t2 76.5t4 51q2 10 6 27t15 32.5t31 27t53 11.5q47 0 71 -30t24 -74q0 -25 -6.5 -45.5t-16.5 -38.5t-22 -33.5t-24 -29.5l-25 -29q-8 -10 -15 -21t-7 -24q0 -21 18.5 -43t44.5 -45l27 -24q31 -27 49 -46.5t27 -33.5t11.5 -24t2.5 -20
t-4 -23t-14 -24.5t-27 -19.5t-44 -8q-32 0 -55 8.5t-36 15.5l-8 -5v-76l5 -8q17 -5 40.5 -11t59.5 -6q55 0 91 17t58 42t31 54.5t9 53.5q0 28 -7 49.5t-19 39.5t-29 35t-36 35l-43 37q-5 4 -9 8t-9 8q-11 9 -20 19t-9 22q0 4 1 7.5t4.5 8t10 12t17.5 19.5l30 32q6 7 15.5 19
t18 29t15 39.5t6.5 49.5q0 74 -53.5 117t-141.5 43q-28 0 -59.5 -5t-62.5 -22q-36 -20 -56 -45.5t-30 -52t-12 -51.5t-3 -44v-39v-135q0 -12 -0.5 -40.5t-0.5 -60.5t-0.5 -60t-0.5 -39q0 -44 -0.5 -71t-1 -46t-1 -35.5t-1.5 -38.5l5 -7q18 1 30.5 1.5t23.5 1t23 1t31 0.5z
" />
    <glyph glyph-name="agrave" unicode="&#xe0;" horiz-adv-x="521" 
d="M452 305q0 32 -1 68t-6 57q-8 29 -24.5 49t-39 32t-49 17t-54.5 5q-45 0 -88 -9t-85 -24l-6 -6q0 -8 -0.5 -14t-0.5 -14q0 -7 -0.5 -17.5t-1.5 -27.5l8 -5q32 14 67.5 26t84.5 12q38 0 56.5 -11.5t26.5 -25.5q7 -12 8 -27t1 -35l-17 -2q-68 -8 -122 -21t-91.5 -35.5
t-58 -57t-20.5 -84.5q0 -37 12.5 -68t35 -53t53.5 -34t69 -12q28 0 51 6t40.5 14t29.5 16.5t19 14.5l-1 -36l4 -6q17 1 28.5 1.5t21.5 1t21.5 1t29.5 0.5l5 5q-2 24 -3 41t-2 37t-1 47v75v99zM349 281v-167q-4 -4 -13 -11t-22.5 -14.5t-32 -13t-41.5 -5.5q-36 0 -55 13.5
t-28 30t-10.5 31t-1.5 16.5q0 33 16.5 53.5t43.5 33t62 19t73 12.5zM259 741q-20 0 -34 -0.5t-27 -0.5h-25h-30l-4 -8q18 -26 30 -43t22.5 -33t21.5 -33t26 -41l6 -6q12 1 19.5 1.5t14.5 0.5h15h21l5 8q-15 38 -24 61t-14.5 38t-8.5 26t-7 25z" />
    <glyph glyph-name="aacute" unicode="&#xe1;" horiz-adv-x="521" 
d="M452 305q0 32 -1 68t-6 57q-8 29 -24.5 49t-39 32t-49 17t-54.5 5q-45 0 -88 -9t-85 -24l-6 -6q0 -8 -0.5 -14t-0.5 -14q0 -7 -0.5 -17.5t-1.5 -27.5l8 -5q32 14 67.5 26t84.5 12q38 0 56.5 -11.5t26.5 -25.5q7 -12 8 -27t1 -35l-17 -2q-68 -8 -122 -21t-91.5 -35.5
t-58 -57t-20.5 -84.5q0 -37 12.5 -68t35 -53t53.5 -34t69 -12q28 0 51 6t40.5 14t29.5 16.5t19 14.5l-1 -36l4 -6q17 1 28.5 1.5t21.5 1t21.5 1t29.5 0.5l5 5q-2 24 -3 41t-2 37t-1 47v75v99zM349 281v-167q-4 -4 -13 -11t-22.5 -14.5t-32 -13t-41.5 -5.5q-36 0 -55 13.5
t-28 30t-10.5 31t-1.5 16.5q0 33 16.5 53.5t43.5 33t62 19t73 12.5zM387 742q-14 -1 -29 -1h-28h-28t-31 1l-6 -5q-17 -49 -35 -92t-26 -61l4 -7h39q14 0 34 -1l7 4q17 27 28 45t21.5 34t23 33t30.5 42z" />
    <glyph glyph-name="acircumflex" unicode="&#xe2;" horiz-adv-x="521" 
d="M452 305q0 32 -1 68t-6 57q-8 29 -24.5 49t-39 32t-49 17t-54.5 5q-45 0 -88 -9t-85 -24l-6 -6q0 -8 -0.5 -14t-0.5 -14q0 -7 -0.5 -17.5t-1.5 -27.5l8 -5q32 14 67.5 26t84.5 12q38 0 56.5 -11.5t26.5 -25.5q7 -12 8 -27t1 -35l-17 -2q-68 -8 -122 -21t-91.5 -35.5
t-58 -57t-20.5 -84.5q0 -37 12.5 -68t35 -53t53.5 -34t69 -12q28 0 51 6t40.5 14t29.5 16.5t19 14.5l-1 -36l4 -6q17 1 28.5 1.5t21.5 1t21.5 1t29.5 0.5l5 5q-2 24 -3 41t-2 37t-1 47v75v99zM349 281v-167q-4 -4 -13 -11t-22.5 -14.5t-32 -13t-41.5 -5.5q-36 0 -55 13.5
t-28 30t-10.5 31t-1.5 16.5q0 33 16.5 53.5t43.5 33t62 19t73 12.5zM330 743h-30q-16 0 -33.5 -0.5t-34.5 -0.5h-29l-8 -6q-13 -28 -21 -45t-15.5 -32t-16 -31.5t-21.5 -41.5l3 -8q13 1 22 1h16q8 0 16 -0.5t19 -0.5l7 6l27.5 55t25.5 48q8 -15 14 -26.5t11.5 -22t11.5 -23
t15 -30.5l6 -5q16 1 26.5 1.5t19.5 0.5t18.5 -0.5t24.5 -0.5l4 9q-16 29 -35 69.5t-36 78.5z" />
    <glyph glyph-name="atilde" unicode="&#xe3;" horiz-adv-x="521" 
d="M452 305q0 32 -1 68t-6 57q-8 29 -24.5 49t-39 32t-49 17t-54.5 5q-45 0 -88 -9t-85 -24l-6 -6q0 -8 -0.5 -14t-0.5 -14q0 -7 -0.5 -17.5t-1.5 -27.5l8 -5q32 14 67.5 26t84.5 12q38 0 56.5 -11.5t26.5 -25.5q7 -12 8 -27t1 -35l-17 -2q-68 -8 -122 -21t-91.5 -35.5
t-58 -57t-20.5 -84.5q0 -37 12.5 -68t35 -53t53.5 -34t69 -12q28 0 51 6t40.5 14t29.5 16.5t19 14.5l-1 -36l4 -6q17 1 28.5 1.5t21.5 1t21.5 1t29.5 0.5l5 5q-2 24 -3 41t-2 37t-1 47v75v99zM349 281v-167q-4 -4 -13 -11t-22.5 -14.5t-32 -13t-41.5 -5.5q-36 0 -55 13.5
t-28 30t-10.5 31t-1.5 16.5q0 33 16.5 53.5t43.5 33t62 19t73 12.5zM413 710q-14 -20 -32.5 -30.5t-43.5 -10.5q-13 0 -25.5 3.5t-29.5 10.5l-31 12q-16 6 -32 11t-33 5q-30 0 -49 -12.5t-30 -22.5l-5 -8v-22q0 -8 -0.5 -16t-1 -17t-1.5 -23l9 -4q15 19 33.5 30t43.5 11
q20 0 38.5 -6.5t27.5 -10.5l27 -11q11 -5 25 -9.5t31 -4.5q29 0 49.5 13.5t32.5 24.5l3 7q0 12 0.5 20.5t1 16t1 17t1.5 23.5z" />
    <glyph glyph-name="adieresis" unicode="&#xe4;" horiz-adv-x="521" 
d="M452 305q0 32 -1 68t-6 57q-8 29 -24.5 49t-39 32t-49 17t-54.5 5q-45 0 -88 -9t-85 -24l-6 -6q0 -8 -0.5 -14t-0.5 -14q0 -7 -0.5 -17.5t-1.5 -27.5l8 -5q32 14 67.5 26t84.5 12q38 0 56.5 -11.5t26.5 -25.5q7 -12 8 -27t1 -35l-17 -2q-68 -8 -122 -21t-91.5 -35.5
t-58 -57t-20.5 -84.5q0 -37 12.5 -68t35 -53t53.5 -34t69 -12q28 0 51 6t40.5 14t29.5 16.5t19 14.5l-1 -36l4 -6q17 1 28.5 1.5t21.5 1t21.5 1t29.5 0.5l5 5q-2 24 -3 41t-2 37t-1 47v75v99zM349 281v-167q-4 -4 -13 -11t-22.5 -14.5t-32 -13t-41.5 -5.5q-36 0 -55 13.5
t-28 30t-10.5 31t-1.5 16.5q0 33 16.5 53.5t43.5 33t62 19t73 12.5zM426 725q-18 -1 -30.5 -1.5t-23.5 -0.5t-22.5 0.5t-27.5 0.5l-8 -7q0 -15 0.5 -25.5t0.5 -21.5q0 -10 -0.5 -22.5t-0.5 -29.5l6 -8q18 0 30.5 0.5t23.5 0.5h24h29l7 8q-1 18 -1.5 30.5t-0.5 23.5t0.5 21
t0.5 24zM221 725q-17 -1 -28 -1.5t-22 -0.5h-22h-31l-8 -9q1 -17 1 -29v-22v-21t-1 -26l6 -8q17 1 28 1.5t22 0.5h23h33l6 8q0 13 -0.5 23.5t-0.5 21.5t0.5 23.5t0.5 30.5z" />
    <glyph glyph-name="aring" unicode="&#xe5;" horiz-adv-x="521" 
d="M452 305q0 32 -1 68t-6 57q-8 29 -24.5 49t-39 32t-49 17t-54.5 5q-45 0 -88 -9t-85 -24l-6 -6q0 -8 -0.5 -14t-0.5 -14q0 -7 -0.5 -17.5t-1.5 -27.5l8 -5q32 14 67.5 26t84.5 12q38 0 56.5 -11.5t26.5 -25.5q7 -12 8 -27t1 -35l-17 -2q-68 -8 -122 -21t-91.5 -35.5
t-58 -57t-20.5 -84.5q0 -37 12.5 -68t35 -53t53.5 -34t69 -12q28 0 51 6t40.5 14t29.5 16.5t19 14.5l-1 -36l4 -6q17 1 28.5 1.5t21.5 1t21.5 1t29.5 0.5l5 5q-2 24 -3 41t-2 37t-1 47v75v99zM349 281v-167q-4 -4 -13 -11t-22.5 -14.5t-32 -13t-41.5 -5.5q-36 0 -55 13.5
t-28 30t-10.5 31t-1.5 16.5q0 33 16.5 53.5t43.5 33t62 19t73 12.5zM387 678q-1 48 -33 77.5t-84 29.5q-56 0 -87.5 -33t-31.5 -80q0 -21 7 -41t21.5 -35t36 -24t51.5 -9t52.5 9t37.5 25t22.5 36.5t7.5 44.5zM316 674q0 -2 -1 -12t-5 -21t-13.5 -20t-25.5 -9q-21 0 -34 16.5
t-13 46.5q0 31 15 45.5t31 14.5q19 0 32.5 -16t13.5 -45z" />
    <glyph glyph-name="ae" unicode="&#xe6;" horiz-adv-x="854" 
d="M789 37q1 14 2 23.5t1.5 18.5t2 19t3.5 26l-10 4q-9 -6 -23.5 -16.5t-35.5 -20t-47.5 -16.5t-58.5 -7q-54 0 -97 25.5t-59 78.5q-5 17 -7 36t-2 39q42 1 82 1h83q48 0 95.5 -0.5t92.5 -0.5l6 7q1 23 0.5 47t-6.5 58q-11 57 -36.5 91.5t-56.5 52.5t-62 24t-54 6
q-38 0 -67.5 -8.5t-51 -20.5t-35.5 -24.5t-23 -21.5q-14 26 -33 41t-39.5 22.5t-40.5 9.5t-36 2q-58 0 -105.5 -12.5t-76.5 -21.5l-6 -6v-22t-0.5 -17t-1.5 -16t-2 -20l9 -5q29 14 69.5 28t94.5 14q37 0 57 -11t29.5 -28.5t11 -38.5t1.5 -41v-13q-29 0 -64 -1t-71 -6
t-70.5 -15.5t-61 -29t-42.5 -47t-16 -70.5q0 -31 12 -61t36 -53t60 -37.5t84 -14.5q38 0 67.5 7.5t52 19.5t39.5 26t30 26q11 -13 29 -29t56 -31q28 -11 57 -15t59 -4q50 0 86 9t60 20q15 6 25 13zM715 324q-47 -1 -77 -1.5t-57 -0.5q-26 0 -54 0.5t-70 0.5q5 38 19 64
t33.5 42.5t42 24t43.5 7.5q37 0 60 -15t36 -37t18 -45.5t6 -39.5zM375 136l-17 -17t-28 -21.5t-40 -18t-53 -7.5q-26 0 -45 7.5t-31 19.5t-17.5 26.5t-5.5 28.5q0 35 23 53.5t57 27t71.5 9.5t67.5 1q1 -24 3 -41t4.5 -29t5 -21t5.5 -18z" />
    <glyph glyph-name="ccedilla" unicode="&#xe7;" horiz-adv-x="458" 
d="M193 -186q18 0 29.5 0.5t21.5 0.5t20.5 -0.5t25.5 -0.5l7 7q6 21 10.5 36t9 29t9.5 29.5t12 36.5l-4 6q-15 0 -36.5 0.5t-37.5 0.5l-7 -6q-10 -21 -17 -36t-14 -28.5t-14.5 -29t-18.5 -37.5zM438 123q-7 -6 -18.5 -14.5t-27.5 -16.5t-37 -13.5t-46 -5.5q-29 0 -57 10
t-50 31.5t-35 57t-13 86.5q0 48 12.5 84t34 60t50 36t59.5 12q30 0 58 -10.5t53 -28.5l8 4q1 22 2.5 37t4.5 42l-4 7q-20 8 -54 20t-83 12q-58 0 -104.5 -21t-79 -58.5t-50 -88.5t-17.5 -111q0 -59 17.5 -107.5t50 -83.5t78.5 -54.5t103 -19.5q53 0 84.5 11.5t53.5 22.5l7 7
q1 15 2 25t1.5 19t1.5 19t3 26z" />
    <glyph glyph-name="egrave" unicode="&#xe8;" horiz-adv-x="542" 
d="M477 127q-10 -8 -27 -20.5t-45 -23.5q-42 -15 -87 -15q-12 0 -27.5 1.5t-33 7t-35.5 16.5t-33 29q-26 31 -31.5 65t-6.5 60q41 0 72 0.5t56 0.5h48h48t54.5 -0.5t68.5 -0.5l7 6v41q0 26 -5 55.5t-16.5 59t-32.5 55.5q-23 27 -63.5 48t-100.5 21q-49 0 -93 -17
t-77.5 -51.5t-53 -86.5t-19.5 -122q0 -65 18.5 -115t53.5 -84t84 -51.5t111 -17.5q33 0 60 4.5t47 11t33.5 13t19.5 9.5l6 7q1 15 1.5 25t1.5 19t2 19.5t3 25.5zM402 324q-35 0 -61.5 -0.5t-53.5 -0.5h-59h-77q4 37 17 63.5t31.5 43t40.5 24t43 7.5q34 0 64 -18t45 -60
q6 -17 7.5 -32.5t2.5 -26.5zM269 741q-20 0 -34 -0.5t-27 -0.5h-25h-30l-4 -8q18 -26 30 -43t22.5 -33t21.5 -33t26 -41l6 -6q12 1 19.5 1.5t14.5 0.5h15h21l5 8q-15 38 -24 61t-14.5 38t-8.5 26t-7 25z" />
    <glyph glyph-name="eacute" unicode="&#xe9;" horiz-adv-x="542" 
d="M477 127q-10 -8 -27 -20.5t-45 -23.5q-42 -15 -87 -15q-12 0 -27.5 1.5t-33 7t-35.5 16.5t-33 29q-26 31 -31.5 65t-6.5 60q41 0 72 0.5t56 0.5h48h48t54.5 -0.5t68.5 -0.5l7 6v41q0 26 -5 55.5t-16.5 59t-32.5 55.5q-23 27 -63.5 48t-100.5 21q-49 0 -93 -17
t-77.5 -51.5t-53 -86.5t-19.5 -122q0 -65 18.5 -115t53.5 -84t84 -51.5t111 -17.5q33 0 60 4.5t47 11t33.5 13t19.5 9.5l6 7q1 15 1.5 25t1.5 19t2 19.5t3 25.5zM402 324q-35 0 -61.5 -0.5t-53.5 -0.5h-59h-77q4 37 17 63.5t31.5 43t40.5 24t43 7.5q34 0 64 -18t45 -60
q6 -17 7.5 -32.5t2.5 -26.5zM397 742q-14 -1 -29 -1h-28h-28t-31 1l-6 -5q-17 -49 -35 -92t-26 -61l4 -7h39q14 0 34 -1l7 4q17 27 28 45t21.5 34t23 33t30.5 42z" />
    <glyph glyph-name="ecircumflex" unicode="&#xea;" horiz-adv-x="542" 
d="M477 127q-10 -8 -27 -20.5t-45 -23.5q-42 -15 -87 -15q-12 0 -27.5 1.5t-33 7t-35.5 16.5t-33 29q-26 31 -31.5 65t-6.5 60q41 0 72 0.5t56 0.5h48h48t54.5 -0.5t68.5 -0.5l7 6v41q0 26 -5 55.5t-16.5 59t-32.5 55.5q-23 27 -63.5 48t-100.5 21q-49 0 -93 -17
t-77.5 -51.5t-53 -86.5t-19.5 -122q0 -65 18.5 -115t53.5 -84t84 -51.5t111 -17.5q33 0 60 4.5t47 11t33.5 13t19.5 9.5l6 7q1 15 1.5 25t1.5 19t2 19.5t3 25.5zM402 324q-35 0 -61.5 -0.5t-53.5 -0.5h-59h-77q4 37 17 63.5t31.5 43t40.5 24t43 7.5q34 0 64 -18t45 -60
q6 -17 7.5 -32.5t2.5 -26.5zM350 743h-30q-16 0 -33.5 -0.5t-34.5 -0.5h-29l-8 -6q-13 -28 -21 -45t-15.5 -32t-16 -31.5t-21.5 -41.5l3 -8q13 1 22 1h16q8 0 16 -0.5t19 -0.5l7 6l27.5 55t25.5 48q8 -15 14 -26.5t11.5 -22t11.5 -23t15 -30.5l6 -5q16 1 26.5 1.5t19.5 0.5
t18.5 -0.5t24.5 -0.5l4 9q-16 29 -35 69.5t-36 78.5z" />
    <glyph glyph-name="edieresis" unicode="&#xeb;" horiz-adv-x="542" 
d="M477 127q-10 -8 -27 -20.5t-45 -23.5q-42 -15 -87 -15q-12 0 -27.5 1.5t-33 7t-35.5 16.5t-33 29q-26 31 -31.5 65t-6.5 60q41 0 72 0.5t56 0.5h48h48t54.5 -0.5t68.5 -0.5l7 6v41q0 26 -5 55.5t-16.5 59t-32.5 55.5q-23 27 -63.5 48t-100.5 21q-49 0 -93 -17
t-77.5 -51.5t-53 -86.5t-19.5 -122q0 -65 18.5 -115t53.5 -84t84 -51.5t111 -17.5q33 0 60 4.5t47 11t33.5 13t19.5 9.5l6 7q1 15 1.5 25t1.5 19t2 19.5t3 25.5zM402 324q-35 0 -61.5 -0.5t-53.5 -0.5h-59h-77q4 37 17 63.5t31.5 43t40.5 24t43 7.5q34 0 64 -18t45 -60
q6 -17 7.5 -32.5t2.5 -26.5zM440 725q-18 -1 -30.5 -1.5t-23.5 -0.5t-22.5 0.5t-27.5 0.5l-8 -7q0 -15 0.5 -25.5t0.5 -21.5q0 -10 -0.5 -22.5t-0.5 -29.5l6 -8q18 0 30.5 0.5t23.5 0.5h24h29l7 8q-1 18 -1.5 30.5t-0.5 23.5t0.5 21t0.5 24zM235 725q-17 -1 -28 -1.5
t-22 -0.5h-22h-31l-8 -9q1 -17 1 -29v-22v-21t-1 -26l6 -8q17 1 28 1.5t22 0.5h23h33l6 8q0 13 -0.5 23.5t-0.5 21.5t0.5 23.5t0.5 30.5z" />
    <glyph glyph-name="igrave" unicode="&#xec;" horiz-adv-x="250" 
d="M185 7q-2 25 -3 46t-1.5 49.5t-1 71t-0.5 112.5q0 48 0.5 83.5t1.5 62.5t2 48t2 41l-10 6q-19 -4 -32 -6.5t-24.5 -5t-23.5 -4t-28 -4.5l-5 -7q3 -22 4.5 -42.5t3 -51t2 -75.5t0.5 -117q0 -42 -0.5 -72.5t-1.5 -54.5t-2 -43.5t-2 -39.5l5 -7q18 1 30 1.5t23 1t23.5 1
t32.5 0.5zM124 741q-20 0 -34 -0.5t-27 -0.5h-25h-30l-4 -8q18 -26 30 -43t22.5 -33t21.5 -33t26 -41l6 -6q12 1 19.5 1.5t14.5 0.5h15h21l5 8q-15 38 -24 61t-14.5 38t-8.5 26t-7 25z" />
    <glyph glyph-name="iacute" unicode="&#xed;" horiz-adv-x="250" 
d="M185 7q-2 25 -3 46t-1.5 49.5t-1 71t-0.5 112.5q0 48 0.5 83.5t1.5 62.5t2 48t2 41l-10 6q-19 -4 -32 -6.5t-24.5 -5t-23.5 -4t-28 -4.5l-5 -7q3 -22 4.5 -42.5t3 -51t2 -75.5t0.5 -117q0 -42 -0.5 -72.5t-1.5 -54.5t-2 -43.5t-2 -39.5l5 -7q18 1 30 1.5t23 1t23.5 1
t32.5 0.5zM251 742q-14 -1 -29 -1h-28h-28t-31 1l-6 -5q-17 -49 -35 -92t-26 -61l4 -7h39q14 0 34 -1l7 4q17 27 28 45t21.5 34t23 33t30.5 42z" />
    <glyph glyph-name="icircumflex" unicode="&#xee;" horiz-adv-x="250" 
d="M185 7q-2 25 -3 46t-1.5 49.5t-1 71t-0.5 112.5q0 48 0.5 83.5t1.5 62.5t2 48t2 41l-10 6q-19 -4 -32 -6.5t-24.5 -5t-23.5 -4t-28 -4.5l-5 -7q3 -22 4.5 -42.5t3 -51t2 -75.5t0.5 -117q0 -42 -0.5 -72.5t-1.5 -54.5t-2 -43.5t-2 -39.5l5 -7q18 1 30 1.5t23 1t23.5 1
t32.5 0.5zM195 743h-30q-16 0 -33.5 -0.5t-34.5 -0.5h-29l-8 -6q-13 -28 -21 -45t-15.5 -32t-16 -31.5t-21.5 -41.5l3 -8q13 1 22 1h16q8 0 16 -0.5t19 -0.5l7 6l27.5 55t25.5 48q8 -15 14 -26.5t11.5 -22t11.5 -23t15 -30.5l6 -5q16 1 26.5 1.5t19.5 0.5t18.5 -0.5
t24.5 -0.5l4 9q-16 29 -35 69.5t-36 78.5z" />
    <glyph glyph-name="idieresis" unicode="&#xef;" horiz-adv-x="250" 
d="M185 7q-2 25 -3 46t-1.5 49.5t-1 71t-0.5 112.5q0 48 0.5 83.5t1.5 62.5t2 48t2 41l-10 6q-19 -4 -32 -6.5t-24.5 -5t-23.5 -4t-28 -4.5l-5 -7q3 -22 4.5 -42.5t3 -51t2 -75.5t0.5 -117q0 -42 -0.5 -72.5t-1.5 -54.5t-2 -43.5t-2 -39.5l5 -7q18 1 30 1.5t23 1t23.5 1
t32.5 0.5zM280 725q-18 -1 -30.5 -1.5t-23.5 -0.5t-22.5 0.5t-27.5 0.5l-8 -7q0 -15 0.5 -25.5t0.5 -21.5q0 -10 -0.5 -22.5t-0.5 -29.5l6 -8q18 0 30.5 0.5t23.5 0.5h24h29l7 8q-1 18 -1.5 30.5t-0.5 23.5t0.5 21t0.5 24zM75 725q-17 -1 -28 -1.5t-22 -0.5h-22h-31l-8 -9
q1 -17 1 -29v-22v-21t-1 -26l6 -8q17 1 28 1.5t22 0.5h23h33l6 8q0 13 -0.5 23.5t-0.5 21.5t0.5 23.5t0.5 30.5z" />
    <glyph glyph-name="eth" unicode="&#xf0;" 
d="M157 589l9 -4q14 4 40.5 11t53 13.5t47 11.5t23.5 6q12 -19 19.5 -32.5t13.5 -26.5t11 -27t12 -34q-11 8 -34 18t-65 10q-21 0 -46.5 -4.5t-51.5 -15.5t-51 -30t-45 -48q-17 -23 -26.5 -48t-14 -48.5t-6 -44t-1.5 -35.5q0 -68 17.5 -119.5t49 -85.5t75 -51t96.5 -17
q83 0 138 35t81 83q13 22 20 46.5t11 48t5 45t1 36.5q0 73 -12 131.5t-29 104t-35.5 78.5t-32.5 56q25 6 43 9.5t44 7.5l5 9q-4 9 -7 15l-6 12t-6.5 13.5t-8.5 19.5l-11 5q-5 -2 -19 -6t-30 -8t-30 -8t-19 -5q-18 23 -32 38t-31 31l-12 4l-42 -8q-12 -2 -24.5 -4t-25.5 -4
l-3 -9q11 -8 30.5 -25t42.5 -48q-21 -6 -38 -10.5t-34 -8t-36.5 -7.5t-44.5 -8l-3 -8zM425 330q2 -17 4 -35t2 -39t-3.5 -53.5t-17 -63.5t-40.5 -53.5t-75 -22.5q-30 0 -54 11q-32 14 -49.5 39t-25.5 52.5t-9.5 52.5t-1.5 40q0 17 2 50.5t15.5 66.5t41.5 57.5t81 24.5
q40 0 65 -16t38.5 -37t19 -42t7.5 -32z" />
    <glyph glyph-name="ntilde" unicode="&#xf1;" 
d="M519 7q-1 14 -2 30.5t-1.5 39.5t-1.5 54.5t-2 75.5v117q-1 47 -3 73t-12 49q-17 41 -58 65q-20 11 -42 15t-41 4q-33 0 -61 -7t-50.5 -17t-38.5 -20.5t-26 -17.5l1 52l-7 7q-18 -3 -29.5 -5.5t-22.5 -4.5t-23 -4.5t-31 -5.5l-6 -7q2 -25 4 -54.5t4 -66.5t3 -84t1 -107
q0 -56 -1 -99t-2 -85l5 -7q18 1 30 1.5t22.5 1t22.5 1t30 0.5l6 6q-3 44 -4.5 84.5t-2.5 85t-1 95.5v117q10 8 23.5 17.5t30.5 18t36.5 14.5t42.5 6q5 0 17 -1t26 -8.5t27 -23t20 -43.5q2 -8 3 -16t2 -26.5t1 -51.5v-91v-74q0 -36 -1 -73q0 -8 -0.5 -16.5t-0.5 -16.5l7 -7
q17 1 28 1.5t21 1t21.5 1t29.5 0.5zM445 710q-14 -20 -32.5 -30.5t-43.5 -10.5q-13 0 -25.5 3.5t-29.5 10.5l-31 12q-16 6 -32 11t-33 5q-30 0 -49 -12.5t-30 -22.5l-5 -8v-22q0 -8 -0.5 -16t-1 -17t-1.5 -23l9 -4q15 19 33.5 30t43.5 11q20 0 38.5 -6.5t27.5 -10.5l27 -11
q11 -5 25 -9.5t31 -4.5q29 0 49.5 13.5t32.5 24.5l3 7q0 12 0.5 20.5t1 16t1 17t1.5 23.5z" />
    <glyph glyph-name="ograve" unicode="&#xf2;" 
d="M539 268q-2 53 -14 103t-47 90q-33 38 -80.5 55t-98.5 17q-38 0 -67.5 -7t-52.5 -17.5t-39.5 -22.5t-26.5 -23q-25 -25 -39 -54.5t-20.5 -58t-8 -52.5t-1.5 -38q0 -12 1 -36t8 -52.5t20.5 -59t39.5 -56.5q24 -25 67.5 -46t111.5 -21q53 0 96.5 14t76.5 47q49 49 65 121
q5 23 7 47t2 50zM430 264v-24q0 -15 -2.5 -33.5t-7 -38.5t-13.5 -37q-22 -41 -54 -54t-60 -13q-15 0 -30 3t-29 10q-30 15 -46 39.5t-23.5 51t-9 51t-1.5 39.5q0 32 5 71t25 70q13 21 29 32.5t32 17.5t29 7t20 1q42 0 67.5 -17t39.5 -40q9 -17 15 -36.5t9 -38.5t4 -35.5
t1 -25.5zM291 741q-20 0 -34 -0.5t-27 -0.5h-25h-30l-4 -8q18 -26 30 -43t22.5 -33t21.5 -33t26 -41l6 -6q12 1 19.5 1.5t14.5 0.5h15h21l5 8q-15 38 -24 61t-14.5 38t-8.5 26t-7 25z" />
    <glyph glyph-name="oacute" unicode="&#xf3;" 
d="M539 268q-2 53 -14 103t-47 90q-33 38 -80.5 55t-98.5 17q-38 0 -67.5 -7t-52.5 -17.5t-39.5 -22.5t-26.5 -23q-25 -25 -39 -54.5t-20.5 -58t-8 -52.5t-1.5 -38q0 -12 1 -36t8 -52.5t20.5 -59t39.5 -56.5q24 -25 67.5 -46t111.5 -21q53 0 96.5 14t76.5 47q49 49 65 121
q5 23 7 47t2 50zM430 264v-24q0 -15 -2.5 -33.5t-7 -38.5t-13.5 -37q-22 -41 -54 -54t-60 -13q-15 0 -30 3t-29 10q-30 15 -46 39.5t-23.5 51t-9 51t-1.5 39.5q0 32 5 71t25 70q13 21 29 32.5t32 17.5t29 7t20 1q42 0 67.5 -17t39.5 -40q9 -17 15 -36.5t9 -38.5t4 -35.5
t1 -25.5zM419 742q-14 -1 -29 -1h-28h-28t-31 1l-6 -5q-17 -49 -35 -92t-26 -61l4 -7h39q14 0 34 -1l7 4q17 27 28 45t21.5 34t23 33t30.5 42z" />
    <glyph glyph-name="ocircumflex" unicode="&#xf4;" 
d="M539 268q-2 53 -14 103t-47 90q-33 38 -80.5 55t-98.5 17q-38 0 -67.5 -7t-52.5 -17.5t-39.5 -22.5t-26.5 -23q-25 -25 -39 -54.5t-20.5 -58t-8 -52.5t-1.5 -38q0 -12 1 -36t8 -52.5t20.5 -59t39.5 -56.5q24 -25 67.5 -46t111.5 -21q53 0 96.5 14t76.5 47q49 49 65 121
q5 23 7 47t2 50zM430 264v-24q0 -15 -2.5 -33.5t-7 -38.5t-13.5 -37q-22 -41 -54 -54t-60 -13q-15 0 -30 3t-29 10q-30 15 -46 39.5t-23.5 51t-9 51t-1.5 39.5q0 32 5 71t25 70q13 21 29 32.5t32 17.5t29 7t20 1q42 0 67.5 -17t39.5 -40q9 -17 15 -36.5t9 -38.5t4 -35.5
t1 -25.5zM362 743h-30q-16 0 -33.5 -0.5t-34.5 -0.5h-29l-8 -6q-13 -28 -21 -45t-15.5 -32t-16 -31.5t-21.5 -41.5l3 -8q13 1 22 1h16q8 0 16 -0.5t19 -0.5l7 6l27.5 55t25.5 48q8 -15 14 -26.5t11.5 -22t11.5 -23t15 -30.5l6 -5q16 1 26.5 1.5t19.5 0.5t18.5 -0.5
t24.5 -0.5l4 9q-16 29 -35 69.5t-36 78.5z" />
    <glyph glyph-name="otilde" unicode="&#xf5;" 
d="M539 268q-2 53 -14 103t-47 90q-33 38 -80.5 55t-98.5 17q-38 0 -67.5 -7t-52.5 -17.5t-39.5 -22.5t-26.5 -23q-25 -25 -39 -54.5t-20.5 -58t-8 -52.5t-1.5 -38q0 -12 1 -36t8 -52.5t20.5 -59t39.5 -56.5q24 -25 67.5 -46t111.5 -21q53 0 96.5 14t76.5 47q49 49 65 121
q5 23 7 47t2 50zM430 264v-24q0 -15 -2.5 -33.5t-7 -38.5t-13.5 -37q-22 -41 -54 -54t-60 -13q-15 0 -30 3t-29 10q-30 15 -46 39.5t-23.5 51t-9 51t-1.5 39.5q0 32 5 71t25 70q13 21 29 32.5t32 17.5t29 7t20 1q42 0 67.5 -17t39.5 -40q9 -17 15 -36.5t9 -38.5t4 -35.5
t1 -25.5zM445 710q-14 -20 -32.5 -30.5t-43.5 -10.5q-13 0 -25.5 3.5t-29.5 10.5l-31 12q-16 6 -32 11t-33 5q-30 0 -49 -12.5t-30 -22.5l-5 -8v-22q0 -8 -0.5 -16t-1 -17t-1.5 -23l9 -4q15 19 33.5 30t43.5 11q20 0 38.5 -6.5t27.5 -10.5l27 -11q11 -5 25 -9.5t31 -4.5
q29 0 49.5 13.5t32.5 24.5l3 7q0 12 0.5 20.5t1 16t1 17t1.5 23.5z" />
    <glyph glyph-name="odieresis" unicode="&#xf6;" 
d="M539 268q-2 53 -14 103t-47 90q-33 38 -80.5 55t-98.5 17q-38 0 -67.5 -7t-52.5 -17.5t-39.5 -22.5t-26.5 -23q-25 -25 -39 -54.5t-20.5 -58t-8 -52.5t-1.5 -38q0 -12 1 -36t8 -52.5t20.5 -59t39.5 -56.5q24 -25 67.5 -46t111.5 -21q53 0 96.5 14t76.5 47q49 49 65 121
q5 23 7 47t2 50zM430 264v-24q0 -15 -2.5 -33.5t-7 -38.5t-13.5 -37q-22 -41 -54 -54t-60 -13q-15 0 -30 3t-29 10q-30 15 -46 39.5t-23.5 51t-9 51t-1.5 39.5q0 32 5 71t25 70q13 21 29 32.5t32 17.5t29 7t20 1q42 0 67.5 -17t39.5 -40q9 -17 15 -36.5t9 -38.5t4 -35.5
t1 -25.5zM448 725q-18 -1 -30.5 -1.5t-23.5 -0.5t-22.5 0.5t-27.5 0.5l-8 -7q0 -15 0.5 -25.5t0.5 -21.5q0 -10 -0.5 -22.5t-0.5 -29.5l6 -8q18 0 30.5 0.5t23.5 0.5h24h29l7 8q-1 18 -1.5 30.5t-0.5 23.5t0.5 21t0.5 24zM243 725q-17 -1 -28 -1.5t-22 -0.5h-22h-31l-8 -9
q1 -17 1 -29v-22v-21t-1 -26l6 -8q17 1 28 1.5t22 0.5h23h33l6 8q0 13 -0.5 23.5t-0.5 21.5t0.5 23.5t0.5 30.5z" />
    <glyph glyph-name="divide" unicode="&#xf7;" horiz-adv-x="667" 
d="M391 145q0 21 -14.5 39t-41.5 18q-28 0 -42.5 -18.5t-14.5 -38.5q0 -27 17.5 -41.5t37.5 -14.5q28 0 43 18t15 38zM391 435q0 21 -14.5 39t-41.5 18q-28 0 -42.5 -18.5t-14.5 -38.5q0 -27 17.5 -41.5t37.5 -14.5q28 0 43 18t15 38zM667 330h-667v-79h667v79z" />
    <glyph glyph-name="oslash" unicode="&#xf8;" 
d="M583 488q-12 13 -17.5 20t-18.5 21h-8q-18 -18 -31 -30t-34 -31q-8 7 -21.5 18.5t-34.5 22t-51.5 18t-70.5 7.5q-58 0 -104.5 -18.5t-79 -53t-50 -83t-17.5 -109.5q0 -17 1.5 -37t5.5 -42q5 -32 11 -49t11 -30q-14 -12 -23.5 -20.5t-18.5 -16l-18 -15l-21 -17.5l1 -8
q11 -11 17 -17.5t19 -20.5h10l20 20l14.5 14.5t14 13.5t19.5 18q8 -10 26 -25.5t48 -29.5q27 -11 55.5 -15.5t56.5 -4.5q12 0 34.5 1.5t50 9.5t56.5 25t53 49q30 38 41 85.5t11 96.5q0 23 -1.5 46t-6.5 46q-6 29 -12 44t-12 27q12 10 20.5 17.5t16.5 14.5t16.5 14t20.5 16z
M425 345q3 -17 6 -39.5t3 -57.5q0 -36 -6 -70t-21.5 -60.5t-43.5 -43t-71 -16.5q-32 0 -61 12.5t-46 39.5q-2 3 -3.5 7t-3.5 8zM158 186q-2 14 -4 33t-2 46q0 83 22 124t56 59q13 6 28.5 10t35.5 4q28 0 47 -7t31.5 -16.5t19.5 -19t10 -15.5z" />
    <glyph glyph-name="ugrave" unicode="&#xf9;" 
d="M506 524q-17 -1 -29 -1.5t-22.5 -1t-22.5 -1t-29 -0.5l-6 -7q2 -24 3.5 -44t2 -44.5t1 -58t0.5 -85.5v-81q0 -36 -1 -77q-9 -7 -21.5 -16t-28 -17t-34.5 -13.5t-41 -5.5q-38 0 -59 14.5t-30.5 35.5t-12 43.5t-2.5 38.5q-1 36 -0.5 55.5t0.5 39.5l4 219l-6 7
q-18 -2 -29.5 -2.5t-22 -1t-22 -1t-29.5 -0.5l-5 -7q1 -20 1.5 -36t1 -37.5t1 -53.5t1.5 -86v-62q0 -29 1.5 -59t7.5 -58t19 -53.5t37 -44.5t54.5 -26.5t59.5 -7.5q31 0 56 6.5t45 16t34 19t22 15.5l-1 -42l6 -6q17 1 28.5 1.5t22 1t22 1t29.5 0.5l4 6q-1 11 -1.5 21
t-0.5 21q-2 32 -3.5 89.5t-1.5 150.5q0 61 0.5 116t2.5 112zM291 741q-20 0 -34 -0.5t-27 -0.5h-25h-30l-4 -8q18 -26 30 -43t22.5 -33t21.5 -33t26 -41l6 -6q12 1 19.5 1.5t14.5 0.5h15h21l5 8q-15 38 -24 61t-14.5 38t-8.5 26t-7 25z" />
    <glyph glyph-name="uacute" unicode="&#xfa;" 
d="M506 524q-17 -1 -29 -1.5t-22.5 -1t-22.5 -1t-29 -0.5l-6 -7q2 -24 3.5 -44t2 -44.5t1 -58t0.5 -85.5v-81q0 -36 -1 -77q-9 -7 -21.5 -16t-28 -17t-34.5 -13.5t-41 -5.5q-38 0 -59 14.5t-30.5 35.5t-12 43.5t-2.5 38.5q-1 36 -0.5 55.5t0.5 39.5l4 219l-6 7
q-18 -2 -29.5 -2.5t-22 -1t-22 -1t-29.5 -0.5l-5 -7q1 -20 1.5 -36t1 -37.5t1 -53.5t1.5 -86v-62q0 -29 1.5 -59t7.5 -58t19 -53.5t37 -44.5t54.5 -26.5t59.5 -7.5q31 0 56 6.5t45 16t34 19t22 15.5l-1 -42l6 -6q17 1 28.5 1.5t22 1t22 1t29.5 0.5l4 6q-1 11 -1.5 21
t-0.5 21q-2 32 -3.5 89.5t-1.5 150.5q0 61 0.5 116t2.5 112zM419 742q-14 -1 -29 -1h-28h-28t-31 1l-6 -5q-17 -49 -35 -92t-26 -61l4 -7h39q14 0 34 -1l7 4q17 27 28 45t21.5 34t23 33t30.5 42z" />
    <glyph glyph-name="ucircumflex" unicode="&#xfb;" 
d="M506 524q-17 -1 -29 -1.5t-22.5 -1t-22.5 -1t-29 -0.5l-6 -7q2 -24 3.5 -44t2 -44.5t1 -58t0.5 -85.5v-81q0 -36 -1 -77q-9 -7 -21.5 -16t-28 -17t-34.5 -13.5t-41 -5.5q-38 0 -59 14.5t-30.5 35.5t-12 43.5t-2.5 38.5q-1 36 -0.5 55.5t0.5 39.5l4 219l-6 7
q-18 -2 -29.5 -2.5t-22 -1t-22 -1t-29.5 -0.5l-5 -7q1 -20 1.5 -36t1 -37.5t1 -53.5t1.5 -86v-62q0 -29 1.5 -59t7.5 -58t19 -53.5t37 -44.5t54.5 -26.5t59.5 -7.5q31 0 56 6.5t45 16t34 19t22 15.5l-1 -42l6 -6q17 1 28.5 1.5t22 1t22 1t29.5 0.5l4 6q-1 11 -1.5 21
t-0.5 21q-2 32 -3.5 89.5t-1.5 150.5q0 61 0.5 116t2.5 112zM362 743h-30q-16 0 -33.5 -0.5t-34.5 -0.5h-29l-8 -6q-13 -28 -21 -45t-15.5 -32t-16 -31.5t-21.5 -41.5l3 -8q13 1 22 1h16q8 0 16 -0.5t19 -0.5l7 6l27.5 55t25.5 48q8 -15 14 -26.5t11.5 -22t11.5 -23
t15 -30.5l6 -5q16 1 26.5 1.5t19.5 0.5t18.5 -0.5t24.5 -0.5l4 9q-16 29 -35 69.5t-36 78.5z" />
    <glyph glyph-name="udieresis" unicode="&#xfc;" 
d="M506 524q-17 -1 -29 -1.5t-22.5 -1t-22.5 -1t-29 -0.5l-6 -7q2 -24 3.5 -44t2 -44.5t1 -58t0.5 -85.5v-81q0 -36 -1 -77q-9 -7 -21.5 -16t-28 -17t-34.5 -13.5t-41 -5.5q-38 0 -59 14.5t-30.5 35.5t-12 43.5t-2.5 38.5q-1 36 -0.5 55.5t0.5 39.5l4 219l-6 7
q-18 -2 -29.5 -2.5t-22 -1t-22 -1t-29.5 -0.5l-5 -7q1 -20 1.5 -36t1 -37.5t1 -53.5t1.5 -86v-62q0 -29 1.5 -59t7.5 -58t19 -53.5t37 -44.5t54.5 -26.5t59.5 -7.5q31 0 56 6.5t45 16t34 19t22 15.5l-1 -42l6 -6q17 1 28.5 1.5t22 1t22 1t29.5 0.5l4 6q-1 11 -1.5 21
t-0.5 21q-2 32 -3.5 89.5t-1.5 150.5q0 61 0.5 116t2.5 112zM448 725q-18 -1 -30.5 -1.5t-23.5 -0.5t-22.5 0.5t-27.5 0.5l-8 -7q0 -15 0.5 -25.5t0.5 -21.5q0 -10 -0.5 -22.5t-0.5 -29.5l6 -8q18 0 30.5 0.5t23.5 0.5h24h29l7 8q-1 18 -1.5 30.5t-0.5 23.5t0.5 21t0.5 24z
M243 725q-17 -1 -28 -1.5t-22 -0.5h-22h-31l-8 -9q1 -17 1 -29v-22v-21t-1 -26l6 -8q17 1 28 1.5t22 0.5h23h33l6 8q0 13 -0.5 23.5t-0.5 21.5t0.5 23.5t0.5 30.5z" />
    <glyph glyph-name="yacute" unicode="&#xfd;" horiz-adv-x="458" 
d="M462 523q-34 -1 -56 -1h-41l-7 -6q-12 -43 -29 -99.5t-33 -108.5l-57 -176l-63 191q-8 24 -15 45.5t-14 44t-15 48t-18 59.5l-6 6q-19 -2 -32 -3.5t-24 -2.5t-23.5 -2t-31.5 -2l-4 -9q11 -26 29.5 -73t39.5 -103.5t43 -115.5t40 -108t29 -81.5t11 -35.5q-2 -6 -3 -8
q-8 -26 -19.5 -50.5t-22.5 -49.5q-13 -29 -24.5 -58t-25.5 -57l-4 -7l4 -7q18 1 29.5 1.5t22.5 0.5t23 0.5t31 0.5l9 8q16 70 37.5 138t44.5 137q6 17 18 49.5t27 73.5t32 88t35 94t35 91t31 79zM355 742q-14 -1 -29 -1h-28h-28t-31 1l-6 -5q-17 -49 -35 -92t-26 -61l4 -7
h39q14 0 34 -1l7 4q17 27 28 45t21.5 34t23 33t30.5 42z" />
    <glyph glyph-name="thorn" unicode="&#xfe;" 
d="M64 771q1 -11 2 -19t1.5 -16t1 -17.5t1.5 -24.5q1 -35 2 -59t1.5 -46t0.5 -48v-63v-546v-56t-0.5 -41.5t-1 -36t-1.5 -39.5l5 -6l106 3l6 6q-2 35 -3.5 60t-2.5 50t-1.5 55t-1.5 75q11 -1 21 -1.5t24 -0.5q79 0 138.5 23t98.5 62.5t58.5 92t19.5 110.5q0 53 -16 98
t-44.5 77.5t-68.5 51t-87 18.5q-29 0 -53 -6.5t-42 -15t-31 -18t-20 -15.5q0 59 0.5 95t0.5 66q0 31 0.5 64.5t1.5 88.5l-6 6l-105 -20zM179 77q-1 44 -1.5 87.5t-0.5 88.5q0 38 0.5 76.5t0.5 76.5q8 6 20 13t26.5 14t32 11.5t36.5 4.5q61 0 98.5 -45t37.5 -123
q0 -46 -14 -84t-40.5 -65.5t-65.5 -42.5t-88 -15q-13 0 -22.5 1t-19.5 2z" />
    <glyph glyph-name="ydieresis" unicode="&#xff;" horiz-adv-x="458" 
d="M462 523q-34 -1 -56 -1h-41l-7 -6q-12 -43 -29 -99.5t-33 -108.5l-57 -176l-63 191q-8 24 -15 45.5t-14 44t-15 48t-18 59.5l-6 6q-19 -2 -32 -3.5t-24 -2.5t-23.5 -2t-31.5 -2l-4 -9q11 -26 29.5 -73t39.5 -103.5t43 -115.5t40 -108t29 -81.5t11 -35.5q-2 -6 -3 -8
q-8 -26 -19.5 -50.5t-22.5 -49.5q-13 -29 -24.5 -58t-25.5 -57l-4 -7l4 -7q18 1 29.5 1.5t22.5 0.5t23 0.5t31 0.5l9 8q16 70 37.5 138t44.5 137q6 17 18 49.5t27 73.5t32 88t35 94t35 91t31 79zM383 725q-18 -1 -30.5 -1.5t-23.5 -0.5t-22.5 0.5t-27.5 0.5l-8 -7
q0 -15 0.5 -25.5t0.5 -21.5q0 -10 -0.5 -22.5t-0.5 -29.5l6 -8q18 0 30.5 0.5t23.5 0.5h24h29l7 8q-1 18 -1.5 30.5t-0.5 23.5t0.5 21t0.5 24zM178 725q-17 -1 -28 -1.5t-22 -0.5h-22h-31l-8 -9q1 -17 1 -29v-22v-21t-1 -26l6 -8q17 1 28 1.5t22 0.5h23h33l6 8
q0 13 -0.5 23.5t-0.5 21.5t0.5 23.5t0.5 30.5z" />
    <glyph glyph-name="dotlessi" unicode="&#x131;" horiz-adv-x="250" 
d="M185 7q-2 25 -3 46t-1.5 49.5t-1 71t-0.5 112.5q0 48 0.5 83.5t1.5 62.5t2 48t2 41l-10 6q-19 -4 -32 -6.5t-24.5 -5t-23.5 -4t-28 -4.5l-5 -7q3 -22 4.5 -42.5t3 -51t2 -75.5t0.5 -117q0 -42 -0.5 -72.5t-1.5 -54.5t-2 -43.5t-2 -39.5l5 -7q18 1 30 1.5t23 1t23.5 1
t32.5 0.5z" />
    <glyph glyph-name="Lslash" unicode="&#x141;" horiz-adv-x="479" 
d="M466 92q-50 -2 -83.5 -2.5t-62 -1.5t-57.5 -1h-71q-1 33 -1.5 66t-0.5 81v39q0 18 0.5 35t1 34.5t0.5 40.5q15 9 28 16.5t30.5 17.5t42 23.5t63.5 34.5l5 7q1 13 1.5 22t1 17t1 17t2.5 23l-8 2l-54 -30q-6 -4 -22 -13t-34 -19.5t-34 -20t-22 -12.5q1 64 2.5 118.5
t4.5 116.5l-6 6q-19 -1 -32 -1.5t-25 -0.5q-11 0 -24.5 -0.5t-33.5 -0.5l-7 -7q2 -31 3.5 -58t2.5 -59t1.5 -75t0.5 -106q-13 -8 -20.5 -12.5t-14.5 -8.5t-15.5 -9t-21.5 -13l-4 -7q-1 -17 -1.5 -32t-2.5 -46l7 -4q13 9 21.5 14.5t16 10t16 9.5t20.5 12q-1 -62 -2 -108
t-1.5 -82t-1 -65t-1.5 -56l6 -7q47 1 81 1.5t61 0.5q28 0 52 0.5t51 0.5h59h77l5 7q2 22 2.5 37t2.5 40z" />
    <glyph glyph-name="lslash" unicode="&#x142;" horiz-adv-x="250" 
d="M184 7q-3 52 -4 117t-2 126.5t-0.5 111.5t0.5 72q11 7 18.5 12t14.5 8.5t14 7.5t18 10l6 7q0 12 -0.5 21.5t0 18.5t1 19t1.5 25l-8 6q-11 -8 -19.5 -13t-15.5 -9.5l-14 -9t-16 -10.5q0 61 0.5 101t1 68t1.5 49.5t2 45.5l-6 7q-18 -4 -30.5 -6.5t-23.5 -5t-24 -4.5t-31 -5
l-5 -6q3 -37 5 -77t3 -80t1.5 -78.5t0.5 -71.5q-12 -7 -19.5 -11.5t-14.5 -8t-14.5 -7.5t-17.5 -9l-5 -8v-82l8 -4q10 7 17.5 12.5t14.5 10t14 8.5t17 10v-71t-0.5 -99t-2 -107t-2.5 -94l5 -7q18 1 30 1.5t22.5 1t22.5 1t30 0.5z" />
    <glyph glyph-name="OE" unicode="&#x152;" horiz-adv-x="958" 
d="M917 89q-48 -2 -81 -2.5t-64.5 -1.5t-68.5 -1h-93q-1 41 -1.5 69t-0.5 53v53q0 28 1 68h75t58 -0.5t60 -1t80 -1.5l6 6q1 10 1.5 17.5l1 15t1 17.5t1.5 27l-5 6q-50 -1 -83 -1.5t-62 -0.5h-59h-75v58q0 25 0.5 47.5t1 47t1.5 58.5h79q34 0 65 -0.5t66 -1.5t85 -3l6 6
q1 13 2.5 22.5t2 17.5t1.5 17t2 21l-5 7q-28 -1 -49 -1h-43h-37t-55 0.5t-55 0.5h-35l-186 2q-47 0 -86 -1.5t-78 -10.5q-71 -16 -118 -52.5t-74.5 -84t-38.5 -101t-11 -103.5q0 -77 22.5 -149t77.5 -124q34 -32 72 -49.5t75.5 -25.5t71 -9.5t57.5 -1.5h235q18 1 31.5 1.5
t25.5 0.5h27h35h132l6 7q0 13 0.5 22t1 17t1 16.5t2.5 20.5zM263 122q-27 18 -45 43.5t-29 55t-16 62t-5 65.5q0 53 9 92t21.5 66.5t27 45t25.5 26.5q22 18 49 28t52 14.5t46 5.5t32 1h28t43 -2q0 -3 0.5 -15.5t1 -43t0.5 -84.5v-139v-34t-0.5 -49.5t-0.5 -57.5
q0 -29 -0.5 -53.5t-1 -42.5t-0.5 -22q-14 -1 -30 -1.5t-32 -0.5q-43 0 -90.5 7t-84.5 33z" />
    <glyph glyph-name="oe" unicode="&#x153;" horiz-adv-x="917" 
d="M850 126q-38 -29 -77 -44t-87 -15q-53 0 -95.5 24.5t-59.5 78.5q-7 21 -8 40t-2 33q38 1 76 1h77q49 0 100.5 -0.5t98.5 -1.5l6 6q1 12 1 16v13q0 15 -1 30t-3 30q-2 14 -6.5 36t-15.5 46.5t-31.5 48.5t-53.5 42q-24 13 -50.5 18.5t-55.5 5.5q-40 0 -70 -11t-52.5 -26
t-38 -31.5t-24.5 -28.5q-13 17 -29.5 34.5t-39 31.5t-53 22.5t-71.5 8.5q-39 0 -82 -12t-78 -43t-58 -83t-23 -133q0 -51 10.5 -101t42.5 -91q25 -32 70.5 -57.5t114.5 -25.5q63 0 112 22.5t84 71.5q12 -18 28.5 -35t40.5 -30t56.5 -21t76.5 -8q65 0 104.5 14t59.5 25l5 6
q1 16 2 26t2 19t2 19t3 24zM776 319q-42 0 -70.5 -0.5t-55.5 -0.5q-26 0 -55.5 0.5t-73.5 0.5q5 66 42 104.5t95 38.5q42 0 69 -20t39 -52q7 -19 8.5 -37t1.5 -34zM424 263q0 -14 -0.5 -34.5t-4.5 -42.5t-12 -44t-23 -39.5t-37.5 -28.5t-55.5 -11q-46 0 -73.5 20t-42.5 50
t-19.5 65t-4.5 65q0 8 0.5 26t4.5 40t12 45t23.5 42t39 31t57.5 12q48 0 75 -21t40.5 -51.5t17 -64.5t3.5 -59z" />
    <glyph glyph-name="Scaron" unicode="&#x160;" horiz-adv-x="542" 
d="M282 422q-23 10 -36 15.5t-20.5 9t-11.5 6t-9 5.5q-8 5 -17 11.5t-16.5 16t-12.5 22t-5 29.5q0 45 36 71.5t99 26.5q56 0 94.5 -15t70.5 -31l8 4q1 13 2 23.5t1.5 20t1.5 20t3 24.5l-5 8q-40 13 -80.5 22.5t-99.5 9.5q-61 0 -118 -19t-92 -69q-16 -23 -23.5 -50t-7.5 -55
q0 -46 16 -78t40.5 -54.5t53.5 -38t56 -27.5l50 -22q24 -9 46.5 -19.5t39.5 -24.5t27 -33t10 -45q0 -23 -8.5 -43t-26 -36t-45 -25t-66.5 -9q-35 0 -63.5 7t-50 16.5t-37.5 19.5t-25 16l-10 -4q-1 -14 -2 -25.5t-1.5 -22t-2 -21t-2.5 -23.5l4 -7q9 -5 26 -12t42 -14.5
t57.5 -12.5t72.5 -5q65 0 113.5 17.5t80.5 47t47.5 68t15.5 80.5q0 48 -16.5 81t-41.5 56t-55 38t-57 27zM208 753q19 0 37.5 0.5t37.5 0.5q17 0 35 -0.5t36 -0.5l7 5q16 29 39 67.5t42 67.5l-3 7q-15 0 -24.5 -0.5t-18.5 -0.5q-8 0 -17 0.5t-21 0.5l-7 -4q-9 -16 -15.5 -27
t-13 -20.5t-13.5 -20.5t-18 -27q-8 13 -14.5 23.5l-13 21t-13.5 23t-17 29.5l-8 4q-13 -1 -26 -1.5t-26 -1.5q-11 -1 -23 -1q-11 0 -22 -1l-4 -7q13 -21 24 -38.5t20 -32.5t17.5 -30t16.5 -32z" />
    <glyph glyph-name="scaron" unicode="&#x161;" horiz-adv-x="437" 
d="M245 315q-47 14 -75 28.5t-28 46.5q0 23 16 38.5t39 21.5q11 3 21.5 4t21.5 1q49 0 79.5 -14t49.5 -26l9 4q1 14 2 23t1.5 17t1.5 16.5t3 22.5l-5 7q-14 5 -51 16.5t-93 11.5q-42 0 -79 -9.5t-64 -29t-43 -48t-16 -67.5t14.5 -64.5t35.5 -42t43.5 -25t37.5 -13.5l32 -11
q46 -15 75 -31t29 -50q0 -12 -6 -25t-18.5 -24t-33 -18.5t-50.5 -7.5q-29 0 -51.5 5.5t-40 13t-29 16t-18.5 13.5l-10 -3q-1 -15 -1.5 -24.5t-1 -18t-1.5 -17.5t-2 -24l5 -9l15 -6q29 -11 62.5 -18t74.5 -7q13 0 32.5 1t41 6t44 14.5t42.5 26.5q31 25 43.5 56.5t12.5 61.5
q0 40 -15 66.5t-35.5 43.5t-43 26t-37.5 14zM166 578h29q17 0 34.5 0.5t33.5 0.5h30l7 6q13 28 21.5 45.5t16 32.5l15.5 31t22 41l-3 8q-13 -1 -22 -1h-17q-7 0 -15 0.5t-19 0.5l-7 -6q-8 -17 -14.5 -29t-12 -23.5t-12 -23t-14.5 -27.5q-8 15 -14 26.5t-11.5 22t-11.5 23
t-15 30.5l-6 5q-16 -1 -26.5 -1.5t-19.5 -0.5t-18.5 0.5t-24.5 0.5l-4 -9q16 -29 35 -69.5t36 -78.5z" />
    <glyph glyph-name="Ydieresis" unicode="&#x178;" horiz-adv-x="542" 
d="M331 6q-2 27 -2.5 57.5t-1.5 60t-1 55.5v43v33q0 18 1 43q12 23 20 38.5t17.5 33.5t23 43t36.5 66q29 52 46.5 83.5t30 53.5t23 40.5t25.5 44.5l-6 8q-15 -1 -25.5 -1.5t-20.5 -1t-22 -0.5h-30l-8 -6q-13 -27 -31.5 -65t-40 -80.5t-44 -85.5t-43.5 -80q-26 52 -43 85
t-32 63t-31.5 65t-42.5 89q-2 5 -4 8.5t-4 8.5l-8 4q-14 -1 -28.5 -2t-29.5 -2l-57 -3l-5 -9q33 -58 62.5 -111t56 -102.5t51 -97t49.5 -95.5q1 -10 1 -21v-26v-50q0 -31 -0.5 -65.5t-1.5 -67.5t-2 -55l6 -7q16 1 28 1.5t24 0.5t25.5 -0.5t32.5 -0.5zM443 878
q-14 0 -28 -0.5t-28 -0.5t-27 0.5t-27 0.5l-7 -9q0 -15 0.5 -25.5t0.5 -20.5q0 -9 -0.5 -20.5t-0.5 -28.5l7 -7h30h26t24.5 -0.5t28.5 -1.5l7 8v51q0 21 1 48zM208 879q-20 -1 -32.5 -1.5t-23.5 -0.5t-22.5 0.5t-29.5 0.5l-7 -8v-97l7 -7h107l7 8q0 16 -0.5 27t-0.5 21
q0 11 0.5 22t1.5 28z" />
    <glyph glyph-name="Zcaron" unicode="&#x17d;" horiz-adv-x="521" 
d="M496 4q2 27 3.5 41.5t4.5 34.5l-6 6q-53 -2 -89.5 -2.5t-71 -1.5t-74.5 -1h-101q82 157 168 315q37 68 62.5 115t44.5 81t33 58.5t28 47.5l-5 10q-26 -1 -58.5 -1.5t-85.5 -0.5q-77 0 -153.5 0.5t-153.5 1.5l-6 -7q-1 -11 -1.5 -19t-1.5 -15.5t-2 -16.5t-2 -21l5 -7
q55 1 95 1.5t73 0.5h65h69l-110 -207q-55 -103 -110 -204.5t-112 -204.5l6 -9q30 1 56 1h34h194q101 0 195 -1zM198 753q19 0 37.5 0.5t37.5 0.5q17 0 35 -0.5t36 -0.5l7 5q16 29 39 67.5t42 67.5l-3 7q-15 0 -24.5 -0.5t-18.5 -0.5q-8 0 -17 0.5t-21 0.5l-7 -4
q-9 -16 -15.5 -27t-13 -20.5t-13.5 -20.5t-18 -27q-8 13 -14.5 23.5l-13 21t-13.5 23t-17 29.5l-8 4q-13 -1 -26 -1.5t-26 -1.5q-11 -1 -23 -1q-11 0 -22 -1l-4 -7q13 -21 24 -38.5t20 -32.5t17.5 -30t16.5 -32z" />
    <glyph glyph-name="zcaron" unicode="&#x17e;" horiz-adv-x="437" 
d="M410 5q1 22 2.5 36.5t4.5 37.5l-5 6q-51 -2 -113 -3.5t-127 -2.5q7 13 21.5 40t34 63t43 79t48 87t49.5 87t47 79l-5 8q-65 -1 -106 -1.5t-76.5 -1t-75.5 -0.5h-103l-6 -6q-1 -11 -1.5 -18t-1.5 -14.5t-2 -16t-2 -20.5l5 -6q24 1 43 1.5t41.5 1t54 1t81.5 0.5
q-19 -36 -49.5 -91t-65 -116t-70 -121.5t-63.5 -107.5l4 -9q23 1 39 1.5t35 0.5h46h71h40t59 0.5t58 0.5h39zM166 578h29q17 0 34.5 0.5t33.5 0.5h30l7 6q13 28 21.5 45.5t16 32.5l15.5 31t22 41l-3 8q-13 -1 -22 -1h-17q-7 0 -15 0.5t-19 0.5l-7 -6q-8 -17 -14.5 -29
t-12 -23.5t-12 -23t-14.5 -27.5q-8 15 -14 26.5t-11.5 22t-11.5 23t-15 30.5l-6 5q-16 -1 -26.5 -1.5t-19.5 -0.5t-18.5 0.5t-24.5 0.5l-4 -9q16 -29 35 -69.5t36 -78.5z" />
    <glyph glyph-name="florin" unicode="&#x192;" horiz-adv-x="375" 
d="M317 349q3 14 5 28t7 36l-6 8q-11 -1 -21 -1.5t-21 -0.5h-23h-30l5 53q5 48 9.5 73t15.5 39q10 12 24 16.5t28 4.5t23.5 -2t17.5 -5l8 6q1 12 2.5 20.5t2.5 16t2 14.5t3 18l-6 8q-10 2 -28.5 5t-44.5 3q-8 0 -21 -0.5t-29 -4.5t-32.5 -11.5t-30.5 -21.5q-26 -26 -34 -65
t-13 -101l-6 -65h-20q-8 0 -15.5 0.5t-15.5 1t-20 1.5l-7 -7q-2 -11 -3 -19t-2 -14.5t-2.5 -14.5t-3.5 -19l7 -6h15t23 0.5t23 0.5h15l-24 -272q-4 -41 -8 -75.5t-9 -56.5q-1 -6 -4 -15.5t-10 -17.5t-19 -14t-32 -6q-14 0 -23.5 2t-17.5 4l-8 -5q-2 -22 -4 -35t-6 -34l6 -8
q11 -2 28.5 -5t43.5 -3q49 0 78 14t45 35t22.5 46.5t9.5 49.5q1 9 3.5 39t6.5 70t8 86t7.5 87t6.5 72t4 42q16 0 27 -0.5t20 -0.5t18 -0.5t23 -1.5z" />
    <glyph glyph-name="circumflex" unicode="&#x2c6;" horiz-adv-x="292" 
d="M211 743h-30q-16 0 -33.5 -0.5t-34.5 -0.5h-29l-8 -6q-13 -28 -21 -45t-15.5 -32t-16 -31.5t-21.5 -41.5l3 -8q13 1 22 1h16q8 0 16 -0.5t19 -0.5l7 6l27.5 55t25.5 48q8 -15 14 -26.5t11.5 -22t11.5 -23t15 -30.5l6 -5q16 1 26.5 1.5t19.5 0.5t18.5 -0.5t24.5 -0.5l4 9
q-16 29 -35 69.5t-36 78.5z" />
    <glyph glyph-name="caron" unicode="&#x2c7;" horiz-adv-x="292" 
d="M80 578h29q17 0 34.5 0.5t33.5 0.5h30l7 6q13 28 21.5 45.5t16 32.5l15.5 31t22 41l-3 8q-13 -1 -22 -1h-17q-7 0 -15 0.5t-19 0.5l-7 -6q-8 -17 -14.5 -29t-12 -23.5t-12 -23t-14.5 -27.5q-8 15 -14 26.5t-11.5 22t-11.5 23t-15 30.5l-6 5q-16 -1 -26.5 -1.5t-19.5 -0.5
t-18.5 0.5t-24.5 0.5l-4 -9q16 -29 35 -69.5t36 -78.5z" />
    <glyph glyph-name="breve" unicode="&#x2d8;" horiz-adv-x="292" 
d="M273 734q-17 -2 -30 -2.5t-37 -1.5l-5 -6q0 -4 -1 -12.5t-6.5 -17.5t-16 -16t-29.5 -7q-20 0 -31 7t-17 16t-7.5 18.5t-1.5 14.5l-6 5q-10 -1 -17 -1.5t-14 -0.5h-15h-20l-7 -7q1 -14 4 -36t15 -42q4 -6 12.5 -15.5t22 -18.5t33 -15.5t45.5 -6.5q36 0 68.5 14.5
t49.5 45.5q12 21 14 43t3 36z" />
    <glyph glyph-name="dotaccent" unicode="&#x2d9;" horiz-adv-x="292" 
d="M198 723q-17 0 -29 -0.5t-23 -0.5h-23h-28l-6 -6q0 -14 0.5 -24.5t0.5 -21.5q0 -10 -0.5 -22t-1.5 -29l6 -7q18 0 30.5 0.5t23.5 0.5h22h28l6 7q0 18 -0.5 29.5t-0.5 20.5q0 10 0.5 20.5t0.5 26.5z" />
    <glyph glyph-name="ring" unicode="&#x2da;" horiz-adv-x="292" 
d="M264 678q-1 48 -33 77.5t-84 29.5q-56 0 -87.5 -33t-31.5 -80q0 -21 7 -41t21.5 -35t36 -24t51.5 -9t52.5 9t37.5 25t22.5 36.5t7.5 44.5zM193 674q0 -2 -1 -12t-5 -21t-13.5 -20t-25.5 -9q-21 0 -34 16.5t-13 46.5q0 31 15 45.5t31 14.5q19 0 32.5 -16t13.5 -45z" />
    <glyph glyph-name="ogonek" unicode="&#x2db;" horiz-adv-x="292" 
d="M182 24q-14 -4 -36.5 -12.5t-44 -22.5t-37.5 -35t-16 -50q0 -15 5.5 -29.5t17.5 -26t30 -18.5t43 -7q32 0 54.5 8.5t34.5 13.5l5 9q1 11 1.5 18t1 13.5t1 14t2.5 19.5l-8 3q-5 -5 -20.5 -17t-41.5 -12q-16 0 -29.5 8.5t-13.5 27.5q0 13 7.5 25t19.5 21t25.5 15.5
t25.5 9.5z" />
    <glyph glyph-name="tilde" unicode="&#x2dc;" horiz-adv-x="292" 
d="M298 710q-14 -20 -32.5 -30.5t-43.5 -10.5q-13 0 -25.5 3.5t-29.5 10.5l-31 12q-16 6 -32 11t-33 5q-30 0 -49 -12.5t-30 -22.5l-5 -8v-22q0 -8 -0.5 -16t-1 -17t-1.5 -23l9 -4q15 19 33.5 30t43.5 11q20 0 38.5 -6.5t27.5 -10.5l27 -11q11 -5 25 -9.5t31 -4.5
q29 0 49.5 13.5t32.5 24.5l3 7q0 12 0.5 20.5t1 16t1 17t1.5 23.5z" />
    <glyph glyph-name="hungarumlaut" unicode="&#x2dd;" horiz-adv-x="292" 
d="M158 741q-14 0 -27.5 -0.5t-27.5 -0.5t-28 0.5t-30 1.5l-6 -5q-6 -19 -14 -40.5t-16.5 -42t-16.5 -39t-14 -31.5l5 -7q22 0 34 -0.5t35 -1.5l7 5q16 27 27.5 45t22 34t22.5 33t30 42zM311 741q-14 0 -27.5 -0.5t-27.5 -0.5t-28 0.5t-30 1.5l-6 -5q-15 -45 -32 -86
t-29 -67l5 -7h18h15q8 0 16 -0.5t20 -1.5l7 5q17 27 28 45t21.5 34t23 33t30.5 42z" />
    <glyph glyph-name="endash" unicode="&#x2013;" 
d="M549 325q-79 -2 -160 -2.5t-162 -0.5q-70 0 -110.5 0.5t-71.5 1.5l-8 -6q-1 -12 -2 -20t-1.5 -15.5t-2 -16t-2.5 -21.5l6 -7q106 1 179 1.5t128 0.5q56 0 101.5 -0.5t96.5 -0.5l7 7l3.5 35t4.5 38z" />
    <glyph glyph-name="emdash" unicode="&#x2014;" horiz-adv-x="729" 
d="M695 326q-91 -3 -192 -3.5t-200 -0.5h-67q-30 0 -60 0.5t-62.5 1t-71.5 0.5l-6 -6q-1 -13 -1.5 -21t-1.5 -15t-2 -15.5t-2 -22.5l5 -6q16 0 49.5 0.5t74 1t83.5 1t79 0.5h61h27h33t50 -0.5t58 -0.5q31 0 58 -0.5t48 -0.5h32l6 6q2 26 3.5 40.5t3.5 35.5z" />
    <glyph glyph-name="quoteleft" unicode="&#x2018;" horiz-adv-x="229" 
d="M31 494q19 1 32 2t24.5 2t24 1.5t31.5 0.5l6 7q8 64 23 126t32 125l-5 7q-12 -1 -19.5 -1.5t-14.5 -0.5t-15.5 -0.5t-22.5 -0.5l-6 -7q-22 -65 -45 -128t-51 -126z" />
    <glyph glyph-name="quoteright" unicode="&#x2019;" horiz-adv-x="229" 
d="M198 765q-20 -2 -32.5 -2.5t-24 -1t-24 -1t-31.5 -1.5l-6 -7q-8 -63 -23 -125.5t-32 -125.5l5 -7q12 1 20 1.5t15 0.5t15.5 0.5t21.5 1.5l7 7q21 64 44 127.5t51 125.5z" />
    <glyph glyph-name="quotesinglbase" unicode="&#x201a;" horiz-adv-x="229" 
d="M186 119q-20 -1 -33.5 -2t-25 -1.5t-23.5 -0.5h-30l-6 -7q-5 -31 -9.5 -58.5t-11 -56t-14.5 -62t-18 -76.5l4 -6q13 0 21.5 0.5t14.5 0.5q7 0 15 0.5t20 0.5l7 7q7 21 17.5 52t23 65.5t26 69.5t26.5 66z" />
    <glyph glyph-name="quotedblleft" unicode="&#x201c;" horiz-adv-x="396" 
d="M28 492q18 2 30 3t23.5 1.5t24 1t32.5 1.5l7 6q6 40 12.5 71.5t13 60.5t14 58t16.5 63l-5 7q-13 -1 -21 -1.5t-15 -0.5t-15 -0.5t-21 -0.5l-7 -6q-7 -21 -14 -42.5t-17.5 -50.5t-25.5 -68.5t-38 -95.5zM201 493q19 1 32.5 2t25.5 1.5l24 1t30 1.5l6 7q9 64 23.5 126
t31.5 125l-5 7q-12 -1 -20 -1.5t-15 -0.5t-15.5 -0.5t-21.5 -1.5l-6 -7q-21 -64 -44.5 -127t-50.5 -126z" />
    <glyph glyph-name="quotedblright" unicode="&#x201d;" horiz-adv-x="396" 
d="M368 765q-19 -2 -31 -3t-23 -1.5t-23.5 -1t-32.5 -1.5l-7 -6q-7 -39 -12 -66.5t-11 -54t-13.5 -57t-19.5 -75.5l5 -7q13 1 21 1.5t15 0.5t15 0.5t21 0.5l7 6q6 21 13 42.5t17.5 50.5t26 68.5t38.5 96.5zM195 764q-20 -2 -32.5 -2.5t-24 -1t-24 -1t-31.5 -1.5l-6 -7
q-9 -63 -24 -125.5t-31 -125.5l5 -7q12 1 20 1.5t15 0.5t15 0.5t21 1.5l7 7q21 65 44 128t51 125z" />
    <glyph glyph-name="quotedblbase" unicode="&#x201e;" horiz-adv-x="396" 
d="M368 120q-19 -2 -31 -3t-23 -1.5t-23.5 -1t-32.5 -1.5l-7 -6q-7 -39 -12 -66.5t-11 -54t-13.5 -57t-19.5 -75.5l5 -7q13 1 21 1.5t15 0.5t15 0.5t21 1.5l7 6q7 21 14 42.5t17.5 50.5t25.5 68.5t38 95.5zM195 119q-20 -2 -32.5 -2.5t-24 -1t-24 -1t-31.5 -1.5l-6 -7
q-9 -63 -24 -125.5t-31 -125.5l5 -7q12 1 20 1.5t15 1t15 1t21 0.5l7 7q21 65 44 128t51 125z" />
    <glyph glyph-name="dagger" unicode="&#x2020;" horiz-adv-x="479" 
d="M453 444q1 13 1.5 21.5t1 15.5t1.5 15t2 20l-6 6q-26 -1 -44.5 -1.5t-35.5 -0.5t-36.5 -0.5t-47.5 -0.5q0 13 -0.5 40t-0.5 61t0.5 70.5t2.5 67.5l-6 7q-17 0 -28 -0.5t-21 -0.5h-20h-26l-7 -8q1 -15 3 -33.5t3.5 -45.5t2.5 -65t1 -92h-42h-36q-17 0 -36.5 0.5t-47.5 0.5
l-6 -7q0 -12 -0.5 -20t-1 -15.5t-1.5 -15t-2 -18.5l5 -7q28 1 46 1.5t34 0.5q17 0 36.5 0.5t50.5 0.5v-63v-101t-1 -122t-2 -126.5t-2 -114t-3 -84.5l5 -6q17 0 29 0.5t22 0.5h22h27l5 6q-2 35 -3 79t-1.5 89.5t-1 89t-1 79t-0.5 58.5v28v92q0 50 1 95q28 0 48.5 -0.5
t37.5 -0.5t34 -0.5t39 -1.5z" />
    <glyph glyph-name="daggerdbl" unicode="&#x2021;" horiz-adv-x="479" 
d="M454 444q1 13 1.5 21.5t1 15.5t1 15t1.5 20l-5 6q-28 -1 -46.5 -1.5t-35.5 -0.5t-36.5 -0.5t-48.5 -0.5v99t0.5 61t1 41t1.5 38l-7 7q-16 0 -26.5 -0.5t-19.5 -0.5h-20h-26l-6 -8q2 -22 3.5 -40.5t2.5 -43t1.5 -60.5t1.5 -92h-44h-36q-17 0 -36 0.5t-47 0.5l-6 -7
q0 -12 -0.5 -20t-1 -15.5t-1.5 -15t-2 -18.5l5 -7q28 1 46.5 1.5t34.5 0.5q17 0 36.5 0.5t51.5 0.5v-33v-49v-57v-56t0.5 -48t0.5 -31h-45h-35t-36.5 0.5t-47.5 0.5l-6 -7q0 -12 -0.5 -20t-1 -15.5t-1.5 -15t-2 -18.5l5 -7q28 1 46.5 1.5t34.5 0.5q17 0 36.5 0.5t51.5 0.5
q-1 -56 -2 -95.5t-2 -68.5t-2 -51t-2 -42l5 -7q17 0 28.5 0.5t21.5 0.5h21h26l5 6q-5 122 -6 257q29 0 50 -0.5t38 -0.5t34 -0.5t38 -1.5l7 6q1 13 1.5 21.5t1 15.5t1 15t1.5 20l-5 6q-28 -1 -46.5 -1.5t-35.5 -0.5t-36.5 -0.5t-48.5 -0.5v68v78t0.5 73.5t0.5 55.5
q29 0 49.5 -0.5t37.5 -0.5t34 -0.5t38 -1.5z" />
    <glyph glyph-name="bullet" unicode="&#x2022;" horiz-adv-x="333" 
d="M297 353q0 28 -10 52t-27.5 41.5t-41 27t-50.5 9.5q-28 0 -52 -10.5t-41.5 -28.5t-27.5 -41.5t-10 -49.5t9.5 -49.5t26.5 -41.5t41.5 -28.5t54.5 -10.5q28 0 52 10t40.5 28t26 41.5t9.5 50.5z" />
    <glyph glyph-name="ellipsis" unicode="&#x2026;" horiz-adv-x="1000" 
d="M891 51q0 20 -14.5 38t-41.5 18q-24 0 -40.5 -16.5t-16.5 -39.5t15.5 -40t41.5 -17q25 0 40.5 17t15.5 40zM557 51q-1 23 -16.5 39.5t-39.5 16.5q-23 0 -40 -16t-17 -40q0 -26 17 -41.5t41 -15.5q20 0 37.5 15.5t17.5 41.5zM223 51q1 22 -14.5 39t-40.5 17
q-26 0 -42 -16.5t-16 -40.5q0 -25 17 -40.5t40 -15.5q20 0 37.5 14t18.5 43z" />
    <glyph glyph-name="perthousand" unicode="&#x2030;" horiz-adv-x="1312" 
d="M889 221q0 10 -1 31t-5.5 46t-14.5 51.5t-28.5 48.5t-47 36t-70.5 14q-49 0 -87.5 -23t-60.5 -70q-16 -33 -20.5 -70t-4.5 -66q0 -12 1 -33t5.5 -46t14.5 -51t28.5 -47.5t47.5 -35t71 -13.5t71 13t48 34t30 47t16 51t6 47t1 36zM811 223q0 -32 -4.5 -66.5t-15.5 -57.5
q-8 -17 -23.5 -32t-47.5 -15q-50 0 -71 45.5t-21 119.5q0 24 3 54t12.5 56.5t28 44.5t49.5 18q30 0 47.5 -16t27 -41t12.5 -54t3 -56zM368 457q0 10 -1 31t-5.5 46t-14.5 51.5t-28.5 48.5t-47 36t-70.5 14q-49 0 -87.5 -23t-60.5 -70q-16 -33 -20.5 -70t-4.5 -66
q0 -11 1 -32t5.5 -46.5t14.5 -51.5t28.5 -47.5t47.5 -35t71 -13.5q63 0 98 28t51.5 66t19.5 76t3 58zM290 459q0 -85 -21.5 -128t-69.5 -43q-50 0 -71 45.5t-21 119.5q0 24 3 54t12.5 56.5t28 44.5t49.5 18q30 0 47.5 -15.5t27 -40t12.5 -54t3 -57.5zM359 6q49 125 99 247.5
t104 245.5q4 10 15 35t23 52.5t22.5 51.5t14.5 33l-4 6h-67l-6 -5q-17 -44 -39.5 -101t-43.5 -108.5t-36.5 -88.5t-17.5 -42q-35 -82 -70 -163t-72 -162l3 -6h19h14q7 0 15 -0.5t21 -0.5zM1285 221q0 10 -1 31t-5.5 46t-14.5 51.5t-28.5 48.5t-47 36t-70.5 14
q-49 0 -87.5 -23t-60.5 -70q-16 -33 -20.5 -70t-4.5 -66q0 -12 1 -33t5.5 -46t14.5 -51t28.5 -47.5t47.5 -35t71 -13.5t71 13t48 34t30 47t16 51t6 47t1 36zM1207 223q0 -32 -4.5 -66.5t-15.5 -57.5q-8 -17 -23.5 -32t-47.5 -15q-50 0 -71 45.5t-21 119.5q0 24 3 54
t12.5 56.5t28 44.5t49.5 18q30 0 47.5 -16t27 -41t12.5 -54t3 -56z" />
    <glyph glyph-name="guilsinglleft" unicode="&#x2039;" horiz-adv-x="271" 
d="M122 465q-12 -25 -19 -39.5t-11.5 -23.5t-6.5 -13.5t-5 -9.5q-3 -6 -10.5 -20.5t-15.5 -30t-15.5 -29.5t-10.5 -19v-10q23 -39 39 -67t27.5 -49t20.5 -38t17 -33l7 -5h79l5 8q-3 5 -10.5 18t-15.5 27t-15 26.5t-10 17.5q-14 24 -22 38.5t-13.5 25t-10 19.5l-10.5 21
q7 15 19 38t25.5 48.5t28 51t27.5 45.5l-3 7h-41q-11 0 -21.5 0.5t-21.5 0.5z" />
    <glyph glyph-name="guilsinglright" unicode="&#x203a;" horiz-adv-x="271" 
d="M149 83q13 27 20.5 42.5t11.5 23.5l6 12l4 8q3 6 10.5 20t15.5 29.5t15.5 29.5t10.5 20l-1 10q-23 39 -38.5 67t-27.5 49t-20.5 38l-16.5 33l-7 5h-17h-14t-19 -0.5t-29 -0.5l-5 -7q3 -5 10 -18t15.5 -27.5t15.5 -27t10 -16.5q13 -24 21.5 -38.5t14 -25t10 -19.5
l10.5 -21q-7 -15 -19 -38t-25.5 -48.5t-28 -51t-27.5 -45.5l3 -7h41q11 -1 21 -1h22z" />
    <glyph glyph-name="trademark" unicode="&#x2122;" horiz-adv-x="687" 
d="M636 706h-79l-81 -262l-83 262h-79v-332h56l-2 205l-4 67l17 -55l67 -217h52l67 216l17 57l-3 -68l-2 -205h57v332zM181 657h105v49h-270v-49h107v-283h58v283z" />
    <glyph glyph-name="minus" unicode="&#x2212;" horiz-adv-x="667" 
d="M667 332h-667v-79h667v79z" />
    <glyph glyph-name="fraction" unicode="&#x2215;" horiz-adv-x="125" 
d="M-51 5q27 69 48.5 122.5t40.5 100.5t38 93t42.5 100t52.5 122t69 158l-1 5h-55l-7 -5q-5 -12 -16 -40t-23.5 -59.5t-23.5 -59t-15 -38.5q-17 -43 -35 -86t-37 -86q-35 -82 -72.5 -168t-69.5 -157l4 -6h16h11t11.5 -0.5t15.5 -0.5z" />
    <glyph glyph-name="fi" unicode="&#xfb01;" horiz-adv-x="542" 
d="M194 7q-1 8 -1.5 16t-0.5 16q-5 100 -6.5 200t-1.5 200h25h19q10 0 21 -0.5t27 -0.5l6 6q0 12 0.5 20t1 15.5t1 15.5t1.5 20l-5 6q-4 0 -19.5 -0.5t-33.5 -0.5q-17 0 -31 -0.5t-15 -0.5v30q0 23 -0.5 37.5t0 24t1.5 16t3 14.5q6 25 21.5 41.5t49.5 16.5q8 0 14 -1t13 -3
l7 5q2 23 3.5 37t3.5 35l-5 7q-10 1 -18.5 1.5t-19.5 0.5q-46 0 -77 -10t-51 -26t-30 -36.5t-14.5 -42.5t-5 -43t-0.5 -38l1 -66q-11 0 -26 0.5t-38 1.5l-6 -6q0 -13 -0.5 -22t-1 -16.5t-1 -15.5t-1.5 -18l6 -6h33t37 1q0 -17 0.5 -29.5t0.5 -25.5v-26v-34q0 -80 -0.5 -160
t-4.5 -159l5 -7q20 1 33 1.5t24 1t22 0.5h29zM477 7q-2 25 -3 45.5t-1.5 49t-1 71.5t-0.5 113q0 48 0.5 83.5t1.5 62.5t2 48t2 41l-10 6q-19 -4 -32 -6.5t-24.5 -5t-23.5 -4t-28 -4.5l-5 -7q3 -23 4.5 -43.5t3 -50.5t2 -75t0.5 -117q0 -42 -0.5 -72.5t-1.5 -54.5t-2 -44
l-2 -40l5 -6q18 1 30 1.5t23 1t23 0.5h33zM479 673q0 16 -0.5 27.5t-0.5 20.5q0 10 0.5 21t0.5 26l-6 7q-19 -2 -31.5 -3t-23.5 -2.5t-24 -2.5t-32 -3l-7 -6q1 -14 1.5 -27t0.5 -26v-21q0 -9 -1 -20l6 -6q18 2 30.5 3t24 2t24.5 1.5t32 1.5z" />
    <glyph glyph-name="fl" unicode="&#xfb02;" horiz-adv-x="542" 
d="M194 7q-1 8 -1.5 16t-0.5 16q-5 100 -6.5 200t-1.5 200h25h19q10 0 21 -0.5t27 -0.5l6 6q0 12 0.5 20t1 15.5t1 15.5t1.5 20l-5 6q-4 0 -19.5 -0.5t-33.5 -0.5q-17 0 -31 -0.5t-15 -0.5v30v43q0 19 1.5 33t4.5 24.5t9 19.5q12 20 28 25t32 5q8 0 14 -1t13 -3l7 5
q2 23 3.5 37t3.5 35l-5 7q-10 1 -18.5 1.5t-19.5 0.5t-36 -2t-53 -12.5t-52.5 -34.5t-33.5 -67q-1 -7 -1.5 -13t-1 -15t-0.5 -21v-31l1 -66q-11 0 -26 0.5t-38 1.5l-6 -6q0 -13 -0.5 -22t-1 -16.5t-1 -15.5t-1.5 -18l6 -6h33t37 1q0 -17 0.5 -29.5t0.5 -25.5v-26v-34
q0 -80 -0.5 -160t-4.5 -159l5 -7q20 1 33 1.5t24 1t22 0.5h29zM476 7q-2 36 -3.5 70.5t-2.5 78t-1.5 101t-0.5 139.5q0 100 1 197.5t6 197.5l-6 6q-19 -4 -31.5 -6.5t-23.5 -4.5t-23.5 -4t-30.5 -5l-5 -7q8 -96 9 -202.5t1 -211.5q0 -72 -0.5 -126t-1.5 -95.5t-1.5 -73
t-1.5 -58.5l5 -6q18 1 29.5 1.5t22.5 1t23 0.5h30z" />
    </font>
</defs>
</svg>
